<svg width="620" height="188" viewBox="0 0 620 188" fill="none" xmlns="http://www.w3.org/2000/svg">
<path d="M105.119 131.932C101.661 137.365 96.9331 141.262 90.9426 143.617C84.947 145.982 78.375 147.158 71.231 147.158C66.3916 147.158 61.9525 146.394 57.9211 144.856C53.8831 143.324 50.7133 141.083 48.4084 138.128C46.1038 135.179 44.9504 131.461 44.9504 126.975C44.9504 122.015 46.1626 117.764 48.585 114.222C51.0032 110.681 54.6335 107.849 59.4741 105.722C64.3162 103.6 70.1954 102.535 77.1087 102.535C86.5622 102.535 94.7445 103.72 101.661 106.077C104.588 107.079 107.463 108.362 110.307 109.826V110.328C110.307 119.304 108.578 126.503 105.119 131.932V131.932ZM119.814 14.3549C109.321 10.3435 97.1673 8.33665 83.3334 8.33665C69.0393 8.33665 56.0161 10.4068 44.2622 14.5298C32.5038 18.6682 22.5884 22.9779 14.5221 27.4583L30.7755 58.9776C33.3113 57.3281 37.0547 55.3185 42.0145 52.9578C46.9702 50.6003 52.7331 48.5305 59.3036 46.7603C65.8726 44.9889 72.9621 44.1028 80.5667 44.1028C89.3274 44.1028 96.4729 46.173 102.006 50.3019C107.539 54.4344 110.307 60.1621 110.307 67.4772V86.2478C105.359 83.5654 99.3814 81.1956 92.3252 79.1642C84.947 77.0386 76.9939 75.978 68.4674 75.978C54.6335 75.978 42.5883 78.1008 32.3317 82.352C22.0722 86.6 14.1191 92.6815 8.47388 100.589C2.8211 108.503 0 118.004 0 129.096C0 139.957 2.47696 149.107 7.43389 156.543C12.3893 163.981 19.1334 169.591 27.6646 173.364C36.1883 177.139 45.8712 179.033 56.7089 179.033C67.773 179.033 77.7439 177.085 86.6194 173.19C95.4918 169.291 102.58 163.628 107.884 156.188C108.776 154.939 109.566 153.629 110.307 152.294V175.49H153.529V60.0382C153.529 48.9465 150.531 39.5612 144.536 31.8855C138.54 24.2147 130.302 18.3714 119.814 14.3549Z" fill="white"/>
<path d="M347.736 12.2624H294.239L235.914 69.8459V12.2624H192.771V175.601H235.914V92.4235L301.487 175.601H354.639L279.401 79.7272L347.736 12.2624Z" fill="white"/>
<path d="M423.818 98.0505V12.4066H380.637V187.864L490.494 89.8157V175.459H533.675V-5.63826e-05L423.818 98.0505Z" fill="white"/>
<path d="M576.836 153.283C576.836 165.609 586.495 175.601 598.416 175.601C610.337 175.601 620.001 165.609 620.001 153.283C620.001 140.957 610.337 130.965 598.416 130.965C586.495 130.965 576.836 140.957 576.836 153.283Z" fill="white"/>
</svg>
