<svg width="365" height="153" viewBox="0 0 365 153" fill="none" xmlns="http://www.w3.org/2000/svg">
<path d="M2.88943 153L53.4284 79.6489H15.4572L2.88943 153Z" fill="url(#paint0_linear_1_333)"/>
<path d="M18.1369 25.9338L0 96.1515H24.8972L72.6963 25.9338H18.1369Z" fill="url(#paint1_linear_1_333)"/>
<path d="M25.1052 0L6.96838 70.2177H336.392L365 0H25.1052Z" fill="url(#paint2_linear_1_333)"/>
<path d="M56.5294 29.1628H60.3794C62.7127 29.1628 64.5327 29.9328 65.8394 31.4728C67.1461 32.9895 67.6011 34.9028 67.2044 37.2128C66.7844 39.5928 65.7461 41.4245 64.0894 42.7078C62.4561 43.9911 60.3094 44.6328 57.6494 44.6328H47.5344L51.8394 20.1328H68.0794L67.0294 26.1878H57.0544L56.5294 29.1628ZM59.1544 34.7978H55.5144L54.8144 38.8928H58.4194C59.9127 38.8928 60.7761 38.2161 61.0094 36.8628C61.1261 36.1861 61.0211 35.6728 60.6944 35.3228C60.3677 34.9728 59.8544 34.7978 59.1544 34.7978ZM75.3523 35.0778L83.5423 27.1328H88.0223L84.9423 44.6328H79.2723L80.6723 36.6878L72.4823 44.6328H68.0023L71.0823 27.1328H76.7523L75.3523 35.0778ZM103.188 32.1728C102.885 33.8995 102.01 35.1245 100.563 35.8478C102.127 36.8045 102.745 38.2511 102.418 40.1878C102.138 41.7511 101.31 42.9761 99.9332 43.8628C98.5566 44.7261 96.7366 45.1578 94.4732 45.1578C90.6699 45.1578 88.2666 43.7578 87.2632 40.9578L92.0932 38.4728C92.5132 39.7095 93.4582 40.3278 94.9282 40.3278C96.0716 40.3278 96.7132 39.9311 96.8532 39.1378C96.8999 38.7878 96.8066 38.5195 96.5732 38.3328C96.3632 38.1461 96.0249 38.0528 95.5582 38.0528H93.4582L94.2282 33.6428H95.9782C96.9349 33.6428 97.4599 33.2928 97.5532 32.5928C97.5999 32.2428 97.4949 31.9628 97.2382 31.7528C97.0049 31.5428 96.6666 31.4378 96.2232 31.4378C95.0566 31.4378 94.0999 32.0561 93.3532 33.2928L89.1882 30.6328C91.1716 27.9728 93.7966 26.6428 97.0632 26.6428C99.0699 26.6428 100.645 27.2028 101.788 28.3228C102.978 29.4428 103.445 30.7261 103.188 32.1728ZM116.91 33.1528L117.96 27.1328H123.77L120.69 44.6328H114.88L115.93 38.6128H110.785L109.735 44.6328H103.925L107.005 27.1328H112.815L111.765 33.1528H116.91ZM128.363 29.1628C130.323 27.4828 132.609 26.6428 135.223 26.6428C137.836 26.6428 139.901 27.5411 141.418 29.3378C142.911 31.1111 143.424 33.2811 142.958 35.8478C142.841 36.6411 142.643 37.3645 142.363 38.0178H130.358C130.661 39.4411 131.781 40.1528 133.718 40.1528C135.118 40.1528 136.273 39.7328 137.183 38.8928L140.893 42.2878C138.863 44.1778 136.319 45.1228 133.263 45.1228C130.229 45.1228 127.943 44.2011 126.403 42.3578C124.886 40.4678 124.349 38.1928 124.793 35.5328C125.213 32.9661 126.403 30.8428 128.363 29.1628ZM131.058 33.9578H137.673C137.579 32.3478 136.658 31.5428 134.908 31.5428C133.181 31.5428 131.898 32.3478 131.058 33.9578ZM152.773 45.1228C149.973 45.1228 147.803 44.2011 146.263 42.3578C144.723 40.5145 144.163 38.2395 144.583 35.5328C145.003 32.9195 146.193 30.7961 148.153 29.1628C150.113 27.4828 152.4 26.6428 155.013 26.6428C156.81 26.6428 158.35 27.0511 159.633 27.8678C160.916 28.6611 161.885 29.7811 162.538 31.2278L157.253 33.9928C156.74 32.8728 155.83 32.3128 154.523 32.3128C153.473 32.3128 152.563 32.6395 151.793 33.2928C151.023 33.9461 150.556 34.7978 150.393 35.8478C150.206 36.8978 150.381 37.7611 150.918 38.4378C151.478 39.1145 152.248 39.4528 153.228 39.4528C154.581 39.4528 155.666 38.8695 156.483 37.7028L161.103 40.6428C160.216 42.0895 159.038 43.1978 157.568 43.9678C156.121 44.7378 154.523 45.1228 152.773 45.1228ZM173.45 27.1328H186.015L185.07 32.6978H178.28L176.18 44.6328H170.37L172.47 32.6978L173.45 27.1328ZM193.343 45.1228C191.406 45.1228 189.738 44.6328 188.338 43.6528C186.961 42.6495 186.016 41.4011 185.503 39.9078C184.989 38.4145 184.908 36.8861 185.258 35.3228C185.701 32.9195 186.868 30.8661 188.758 29.1628C190.648 27.4828 193.004 26.6428 195.828 26.6428C198.628 26.6428 200.763 27.6461 202.233 29.6528C203.703 31.6595 204.216 33.8995 203.773 36.3728C203.353 38.7761 202.186 40.8295 200.273 42.5328C198.336 44.2595 196.026 45.1228 193.343 45.1228ZM193.798 39.5228C194.824 39.5228 195.723 39.1845 196.493 38.5078C197.263 37.8311 197.741 36.9561 197.928 35.8828C198.114 34.8095 197.939 33.9345 197.403 33.2578C196.889 32.5811 196.119 32.2428 195.093 32.2428C194.089 32.2428 193.203 32.5811 192.433 33.2578C191.663 33.9345 191.184 34.8095 190.998 35.8828C190.811 36.9561 190.974 37.8311 191.488 38.5078C192.024 39.1845 192.794 39.5228 193.798 39.5228ZM222.253 32.4528C221.973 34.0628 221.168 35.1945 219.838 35.8478C221.284 36.8045 221.868 38.1461 221.588 39.8728C221.028 43.0461 218.706 44.6328 214.623 44.6328H204.858L207.938 27.1328H217.108C218.881 27.1328 220.246 27.6461 221.203 28.6728C222.159 29.6995 222.509 30.9595 222.253 32.4528ZM215.463 31.4728H212.733L212.348 33.7828H215.043C215.976 33.7828 216.501 33.4095 216.618 32.6628C216.781 31.8695 216.396 31.4728 215.463 31.4728ZM215.953 38.9978C216.093 38.2278 215.708 37.8428 214.798 37.8428H211.613L211.193 40.2228H214.343C215.276 40.2228 215.813 39.8145 215.953 38.9978ZM231.897 45.1228C229.961 45.1228 228.292 44.6328 226.892 43.6528C225.516 42.6495 224.571 41.4011 224.057 39.9078C223.544 38.4145 223.462 36.8861 223.812 35.3228C224.256 32.9195 225.422 30.8661 227.312 29.1628C229.202 27.4828 231.559 26.6428 234.382 26.6428C237.182 26.6428 239.317 27.6461 240.787 29.6528C242.257 31.6595 242.771 33.8995 242.327 36.3728C241.907 38.7761 240.741 40.8295 238.827 42.5328C236.891 44.2595 234.581 45.1228 231.897 45.1228ZM232.352 39.5228C233.379 39.5228 234.277 39.1845 235.047 38.5078C235.817 37.8311 236.296 36.9561 236.482 35.8828C236.669 34.8095 236.494 33.9345 235.957 33.2578C235.444 32.5811 234.674 32.2428 233.647 32.2428C232.644 32.2428 231.757 32.5811 230.987 33.2578C230.217 33.9345 229.739 34.8095 229.552 35.8828C229.366 36.9561 229.529 37.8311 230.042 38.5078C230.579 39.1845 231.349 39.5228 232.352 39.5228ZM257.027 26.6428C259.431 26.6428 261.274 27.5995 262.557 29.5128C263.864 31.4261 264.307 33.6661 263.887 36.2328C263.467 38.7295 262.417 40.8411 260.737 42.5678C259.104 44.2711 257.051 45.1228 254.577 45.1228C252.291 45.1228 250.622 44.2945 249.572 42.6378L247.997 51.6328H242.187L246.492 27.1328H252.302L252.057 28.5678C253.364 27.2845 255.021 26.6428 257.027 26.6428ZM258.077 35.8828C258.287 34.7161 258.124 33.7945 257.587 33.1178C257.051 32.4178 256.234 32.0678 255.137 32.0678C254.064 32.0678 253.131 32.4061 252.337 33.0828C251.544 33.7361 251.031 34.6228 250.797 35.7428L250.727 35.9878C250.564 37.1078 250.762 38.0061 251.322 38.6828C251.882 39.3595 252.699 39.6978 253.772 39.6978C254.892 39.6978 255.837 39.3595 256.607 38.6828C257.401 37.9828 257.891 37.0495 258.077 35.8828ZM272.296 35.0778L280.486 27.1328H284.966L281.886 44.6328H276.216L277.616 36.6878L269.426 44.6328H264.946L268.026 27.1328H273.696L272.296 35.0778ZM286.928 27.1328H302.818L301.873 32.6978H296.833L294.733 44.6328H288.923L291.023 32.6978H285.948L286.928 27.1328ZM309.144 35.7078H304.314L304.664 27.1328L305.889 20.1328H313.029L311.804 27.1328L309.144 35.7078ZM305.049 45.1228C304.045 45.1228 303.252 44.7611 302.669 44.0378C302.085 43.3145 301.887 42.4395 302.074 41.4128C302.26 40.4095 302.75 39.5695 303.544 38.8928C304.36 38.1928 305.294 37.8428 306.344 37.8428C307.347 37.8428 308.14 38.2161 308.724 38.9628C309.33 39.6861 309.54 40.5495 309.354 41.5528C309.167 42.6028 308.677 43.4661 307.884 44.1428C307.09 44.7961 306.145 45.1228 305.049 45.1228Z" fill="white"/>
<defs>
<linearGradient id="paint0_linear_1_333" x1="-15.751" y1="-12.5754" x2="306.974" y2="206.25" gradientUnits="userSpaceOnUse">
<stop stop-color="#A43BDB"/>
<stop offset="0.872742" stop-color="#B61592"/>
</linearGradient>
<linearGradient id="paint1_linear_1_333" x1="-15.751" y1="-12.5754" x2="306.974" y2="206.25" gradientUnits="userSpaceOnUse">
<stop stop-color="#A43BDB"/>
<stop offset="0.872742" stop-color="#B61592"/>
</linearGradient>
<linearGradient id="paint2_linear_1_333" x1="-15.751" y1="-12.5754" x2="306.974" y2="206.25" gradientUnits="userSpaceOnUse">
<stop stop-color="#A43BDB"/>
<stop offset="0.872742" stop-color="#B61592"/>
</linearGradient>
</defs>
</svg>
