<svg width="174" height="46" viewBox="0 0 174 46" fill="none" xmlns="http://www.w3.org/2000/svg">
<path d="M74.168 15.3915V5.13043H75.9708L78.5815 11.7105H79.143L81.7537 5.13043H83.5565V15.3915H82.4367V6.5974V6.45031H82.4137L79.8753 12.8988H77.8229L75.3009 6.45031H75.2746V6.5974V15.3915H74.168Z" fill="white"/>
<path d="M86.5074 14.4134C86.1575 14.0779 85.8823 13.677 85.6985 13.2354C85.5147 12.7938 85.4262 12.3207 85.4384 11.845C85.4364 11.3694 85.5315 10.8981 85.7184 10.458C85.9052 10.0179 86.1801 9.61761 86.5274 9.27996C86.8746 8.94232 87.2874 8.67395 87.7422 8.49017C88.197 8.3064 88.6849 8.21082 89.178 8.20889C89.6711 8.20696 90.1598 8.29873 90.6161 8.47894C91.0724 8.65915 91.4875 8.92429 91.8375 9.25921C92.1876 9.59413 92.4659 9.99227 92.6564 10.4309C92.847 10.8695 92.9461 11.3401 92.9481 11.8157C92.9294 12.525 92.6978 13.2139 92.2815 13.7989C91.8651 14.3839 91.2819 14.8399 90.6023 15.1117C89.9227 15.3835 89.176 15.4594 88.4526 15.3303C87.7291 15.2011 87.0601 14.8725 86.5264 14.3841L86.5074 14.4134ZM87.3253 9.98109C87.0828 10.2245 86.8929 10.5122 86.7669 10.8271C86.6408 11.1421 86.581 11.4782 86.5911 11.8157C86.5825 12.153 86.6429 12.4886 86.7689 12.8034C86.8949 13.1182 87.084 13.4059 87.3253 13.6502C87.8258 14.1116 88.4914 14.369 89.1837 14.369C89.876 14.369 90.5417 14.1116 91.0421 13.6502C91.285 13.407 91.4751 13.1194 91.6012 12.8044C91.7272 12.4894 91.7868 12.1532 91.7763 11.8157C91.7877 11.4783 91.729 11.1422 91.6035 10.8271C91.4781 10.512 91.2885 10.2244 91.0459 9.98109C90.5486 9.51379 89.8818 9.25227 89.1875 9.25227C88.4932 9.25227 87.8264 9.51379 87.3291 9.98109H87.3253Z" fill="white"/>
<path d="M94.8381 14.3814C94.5207 14.0389 94.2729 13.6333 94.1096 13.1888C93.9463 12.7442 93.8707 12.2699 93.8876 11.7942C93.8751 11.3228 93.9534 10.8536 94.1178 10.4142C94.2823 9.97491 94.5296 9.57435 94.8451 9.23623C95.1747 8.89466 95.5682 8.6274 96.0012 8.45107C96.4342 8.27474 96.8973 8.19312 97.3619 8.21129C97.8264 8.22945 98.2824 8.34702 98.7015 8.55666C99.1206 8.76631 99.4937 9.06356 99.7978 9.42991C100.07 9.78654 100.274 10.1948 100.398 10.6321H99.3453C99.2415 10.3756 99.0928 10.1414 98.9069 9.9415C98.6878 9.70949 98.4244 9.52784 98.1339 9.40826C97.8433 9.28869 97.5319 9.23382 97.2197 9.2472C96.9161 9.24052 96.6147 9.30238 96.3362 9.42853C96.0577 9.55469 95.8087 9.74215 95.6063 9.97804C95.1659 10.4701 94.9269 11.1216 94.9398 11.7942C94.9211 12.4711 95.1607 13.1282 95.6063 13.6213C95.8073 13.8531 96.0531 14.038 96.3275 14.1639C96.602 14.2899 96.8988 14.354 97.1987 14.3521C97.5268 14.369 97.8545 14.3095 98.1578 14.1781C98.4612 14.0466 98.7326 13.8464 98.9525 13.5921C99.1503 13.3725 99.3041 13.1142 99.405 12.832H100.457C100.275 13.5808 99.8537 14.2425 99.2618 14.7077C98.6699 15.1728 97.9433 15.4135 97.2022 15.3899C96.7624 15.4027 96.325 15.3196 95.9179 15.1459C95.5107 14.9722 95.143 14.7118 94.8381 14.3814Z" fill="white"/>
<path d="M101.396 15.3877V8.2088H102.552V11.0819H104.012L106.346 8.2088H107.748L105.052 11.5822L107.968 15.3726H106.508L104.023 12.1621H102.563V15.3915L101.396 15.3877Z" fill="white"/>
<path d="M108.905 14.3981C108.598 14.0681 108.358 13.6741 108.197 13.2401C108.036 12.806 107.959 12.3412 107.971 11.8739C107.957 11.3982 108.031 10.9242 108.19 10.4803C108.349 10.0363 108.588 9.63139 108.895 9.28951C109.201 8.94764 109.568 8.6758 109.973 8.49016C110.379 8.30452 110.815 8.20886 111.255 8.20886C111.695 8.20886 112.131 8.30452 112.537 8.49016C112.942 8.6758 113.309 8.94764 113.615 9.28951C113.922 9.63139 114.161 10.0363 114.32 10.4803C114.479 10.9242 114.553 11.3982 114.539 11.8739C114.523 12.5717 114.321 13.2496 113.955 13.8252C113.59 14.4009 113.078 14.8496 112.482 15.1168C111.885 15.3841 111.229 15.4584 110.595 15.3308C109.96 15.2032 109.373 14.8792 108.905 14.3981ZM109.625 10.0421C109.412 10.2809 109.245 10.5634 109.135 10.8731C109.024 11.1828 108.972 11.5133 108.981 11.845C108.972 12.1768 109.025 12.5071 109.135 12.8167C109.246 13.1264 109.412 13.409 109.625 13.648C110.064 14.1014 110.648 14.3544 111.255 14.3544C111.862 14.3544 112.446 14.1014 112.885 13.648C113.096 13.4079 113.262 13.1251 113.373 12.8158C113.483 12.5064 113.536 12.1765 113.528 11.845C113.537 11.5134 113.485 11.1831 113.374 10.8735C113.264 10.564 113.097 10.2813 112.885 10.0421C112.449 9.58281 111.864 9.32579 111.255 9.32579C110.646 9.32579 110.061 9.58281 109.625 10.0421Z" fill="white"/>
<path d="M116.417 15.3906V8.21233H119.741C120.281 8.18121 120.812 8.36057 121.235 8.7164C121.41 8.87591 121.55 9.07463 121.643 9.29815C121.737 9.52168 121.782 9.76442 121.776 10.0088C121.778 10.2299 121.747 10.45 121.683 10.6607C121.633 10.8276 121.554 10.9832 121.45 11.1193C121.366 11.2241 121.268 11.316 121.16 11.3921C121.08 11.4516 120.994 11.5 120.902 11.5362C120.856 11.5542 120.808 11.5656 120.759 11.5703C120.814 11.5754 120.868 11.5881 120.92 11.6082C121.032 11.6454 121.139 11.6976 121.239 11.7636C121.373 11.8485 121.499 11.9475 121.615 12.0592C121.749 12.2014 121.852 12.3719 121.92 12.5595C122.008 12.7933 122.051 13.0431 122.049 13.2947C122.06 13.5791 122.012 13.8627 121.907 14.1249C121.803 14.3871 121.644 14.6214 121.443 14.8107C120.969 15.2205 120.367 15.4262 119.756 15.3868L116.417 15.3906ZM117.492 11.1572H119.663C120.34 11.1572 120.68 10.8464 120.68 10.221C120.68 9.59568 120.34 9.28869 119.663 9.28869H117.492V11.1572ZM117.492 14.3142H119.731C120.057 14.3373 120.38 14.235 120.641 14.0262C120.745 13.9276 120.827 13.8057 120.881 13.6693C120.935 13.5329 120.959 13.3855 120.952 13.2379C120.959 13.0896 120.935 12.9416 120.881 12.8045C120.827 12.6675 120.745 12.5449 120.641 12.4458C120.38 12.2383 120.056 12.1374 119.731 12.1615H117.492V14.3142Z" fill="white"/>
<path d="M123.943 14.3429C123.629 14.0049 123.383 13.6048 123.22 13.1662C123.056 12.7275 122.979 12.2593 122.991 11.7889C122.978 11.3185 123.056 10.8501 123.219 10.4114C123.383 9.97272 123.629 9.57267 123.943 9.23489C124.272 8.89376 124.665 8.62685 125.097 8.45075C125.529 8.27466 125.991 8.19314 126.455 8.21128C126.919 8.22942 127.374 8.34681 127.792 8.55617C128.21 8.76554 128.583 9.06238 128.887 9.42827C129.159 9.78367 129.361 10.1916 129.481 10.6286H128.432C128.329 10.3719 128.181 10.1379 127.994 9.93907C127.776 9.70704 127.514 9.52544 127.224 9.40602C126.934 9.2866 126.623 9.23203 126.312 9.24584C126.009 9.23917 125.708 9.30094 125.43 9.4269C125.152 9.55286 124.904 9.74003 124.702 9.97555C124.271 10.4744 124.041 11.1283 124.062 11.7998C124.042 12.4752 124.28 13.1312 124.723 13.6241C124.924 13.8553 125.169 14.0399 125.443 14.1656C125.716 14.2913 126.012 14.3555 126.312 14.3538C126.639 14.3709 126.966 14.3117 127.268 14.1804C127.571 14.0491 127.842 13.8491 128.061 13.5949C128.261 13.3776 128.414 13.1191 128.512 12.836H129.562C129.447 13.3039 129.24 13.7414 128.953 14.1203C128.638 14.5304 128.235 14.8585 127.777 15.0789C127.32 15.2992 126.819 15.4057 126.315 15.39C125.871 15.3997 125.43 15.3114 125.022 15.131C124.613 14.9505 124.245 14.6819 123.943 14.3429Z" fill="white"/>
<path d="M130.501 15.3877V8.2088H131.659V11.0819H133.119L135.459 8.2088H136.849L134.146 11.5822L137.073 15.3726H135.609L133.13 12.1621H131.671V15.3915L130.501 15.3877Z" fill="white"/>
<path d="M138.013 15.3916V8.20886H139.026V13.594V13.7381H139.05L142.494 8.20886H143.646V15.3916H142.632V10.0064V9.86233H142.605L139.165 15.3916H138.013Z" fill="white"/>
<path d="M145.521 15.3915V8.06049H146.536V13.5568V13.7039H146.559L150.001 8.06049H151.154V15.3915H150.14V9.89517V9.74809H150.113L146.671 15.3915H145.521ZM146.441 5.13043H147.391C147.387 5.25092 147.408 5.3708 147.45 5.4813C147.492 5.5918 147.555 5.69013 147.635 5.76909C147.841 5.94424 148.095 6.02934 148.351 6.00906C148.612 6.03385 148.872 5.94849 149.082 5.76909C149.161 5.68976 149.223 5.59127 149.265 5.48079C149.306 5.37031 149.326 5.25062 149.322 5.13043L150.282 5.13043C150.287 5.38131 150.242 5.63016 150.151 5.8586C150.06 6.08705 149.926 6.28926 149.758 6.45031C149.359 6.8133 148.857 6.9952 148.348 6.96124C147.84 6.99424 147.34 6.81239 146.941 6.45031C146.778 6.28647 146.648 6.08307 146.561 5.85481C146.475 5.62655 146.434 5.37913 146.441 5.13043V5.13043Z" fill="white"/>
<path d="M74.168 27.7047V20.522H75.1829V25.91V26.0541H75.21L78.6508 20.522H79.8011V27.7047H78.7861V22.3167V22.1725H78.7624L75.3217 27.7047H74.168Z" fill="white"/>
<path d="M81.6802 27.7047V20.522H82.6976V23.4665H86.2959V20.522H87.3133V27.7047H86.2959V24.5441H82.7078V27.7047H81.6802Z" fill="white"/>
<path d="M89.1912 27.7047V20.522H90.2092V23.4665H93.8062V20.522H94.8243V27.7047H93.8062V24.5441H90.2092V27.7047H89.1912Z" fill="white"/>
<path d="M97.639 26.7112C97.3331 26.3808 97.0926 25.9867 96.932 25.5528C96.7715 25.1189 96.6942 24.6542 96.7049 24.187C96.6909 23.7113 96.7655 23.2374 96.9242 22.7934C97.0829 22.3494 97.3226 21.9445 97.629 21.6026C97.9353 21.2607 98.3021 20.9889 98.7076 20.8033C99.1131 20.6176 99.5489 20.522 99.9892 20.522C100.43 20.522 100.865 20.6176 101.271 20.8033C101.676 20.9889 102.043 21.2607 102.349 21.6026C102.656 21.9445 102.896 22.3494 103.054 22.7934C103.213 23.2374 103.288 23.7113 103.274 24.187C103.258 24.8848 103.055 25.5627 102.69 26.1383C102.324 26.714 101.812 27.1627 101.216 27.4299C100.619 27.6972 99.9637 27.7715 99.3288 27.6439C98.6939 27.5164 98.1069 27.1923 97.639 26.7112ZM98.3596 22.3552C98.146 22.5937 97.9789 22.8763 97.8683 23.186C97.7577 23.4957 97.7058 23.8263 97.7157 24.1581C97.706 24.49 97.758 24.8205 97.8686 25.1302C97.9791 25.4399 98.1461 25.7224 98.3596 25.9611C98.7956 26.4204 99.3804 26.6774 99.9892 26.6774C100.598 26.6774 101.183 26.4204 101.619 25.9611C101.832 25.7224 101.999 25.4399 102.11 25.1302C102.221 24.8205 102.272 24.49 102.263 24.1581C102.273 23.8263 102.221 23.4957 102.11 23.186C102 22.8763 101.832 22.5937 101.619 22.3552C101.183 21.8959 100.598 21.6389 99.9892 21.6389C99.3804 21.6389 98.7956 21.8959 98.3596 22.3552Z" fill="white"/>
<path d="M105.151 27.7047V20.526H108.483C109.024 20.4927 109.557 20.6709 109.982 21.0266C110.158 21.1858 110.298 21.3846 110.392 21.6083C110.485 21.8321 110.531 22.0751 110.524 22.3197C110.526 22.541 110.495 22.7613 110.431 22.972C110.346 23.2753 110.16 23.5356 109.906 23.7039C109.826 23.7634 109.739 23.8118 109.647 23.848C109.602 23.8686 109.553 23.8814 109.504 23.8859C109.56 23.8913 109.615 23.9027 109.669 23.9201C109.782 23.958 109.889 24.0116 109.989 24.0793C110.118 24.1635 110.238 24.2614 110.348 24.3713C110.483 24.5148 110.587 24.6867 110.654 24.8757C110.742 25.1083 110.786 25.357 110.783 25.6076C110.794 25.8917 110.746 26.1749 110.641 26.437C110.537 26.6992 110.379 26.9339 110.179 27.1245C109.702 27.5328 109.096 27.7371 108.483 27.6972L105.151 27.7047ZM106.23 23.4688H108.404C109.087 23.4688 109.424 23.1578 109.424 22.5359C109.424 21.9139 109.097 21.6144 108.415 21.6144H106.24L106.23 23.4688ZM106.23 26.6277H108.472C108.8 26.6525 109.124 26.55 109.385 26.3395C109.484 26.2365 109.563 26.1137 109.616 25.9783C109.67 25.8429 109.698 25.6975 109.698 25.5507C109.698 25.4039 109.67 25.2586 109.616 25.1232C109.563 24.9878 109.484 24.865 109.385 24.7619C109.124 24.5515 108.8 24.449 108.472 24.4737H106.23V26.6277Z" fill="white"/>
<path d="M112.649 26.6818C112.032 25.9884 111.7 25.0675 111.725 24.1188C111.699 23.17 112.032 22.249 112.649 21.5558C112.932 21.2257 113.279 20.9628 113.667 20.7847C114.054 20.6066 114.474 20.5175 114.897 20.5233C115.381 20.5085 115.862 20.6231 116.292 20.8565C116.621 21.0305 116.907 21.281 117.13 21.5888L117.249 21.7938V20.6441H118.295V27.5751H117.249V26.4548L117.13 26.6488C116.914 26.9503 116.635 27.1949 116.313 27.3628C115.873 27.6022 115.382 27.7194 114.886 27.7033C114.466 27.7089 114.049 27.6208 113.663 27.4447C113.278 27.2685 112.932 27.0085 112.649 26.6818ZM113.435 22.2661C113.003 22.7661 112.774 23.4227 112.796 24.0968C112.774 24.7709 113.003 25.4273 113.435 25.9275C113.642 26.1554 113.891 26.3367 114.168 26.4606C114.444 26.5845 114.741 26.6484 115.041 26.6484C115.342 26.6484 115.639 26.5845 115.915 26.4606C116.191 26.3367 116.441 26.1554 116.648 25.9275C117.079 25.4273 117.308 24.7709 117.287 24.0968C117.309 23.4227 117.08 22.7661 116.648 22.2661C116.441 22.0383 116.191 21.8569 115.915 21.7331C115.639 21.6092 115.342 21.5453 115.041 21.5453C114.741 21.5453 114.444 21.6092 114.168 21.7331C113.891 21.8569 113.642 22.0383 113.435 22.2661Z" fill="white"/>
<path d="M120.175 28.0313V20.522H121.24V26.9047H124.739V20.522H125.805V26.9047H126.747V29.7569H125.681V28.0313H120.175Z" fill="white"/>
<path d="M127.683 27.7047V20.522H128.697V25.91V26.0541H128.72L132.164 20.522H133.316V27.7047H132.302V22.3167V22.1725H132.279L128.835 27.7047H127.683Z" fill="white"/>
<path d="M136.13 26.7112C135.825 26.3809 135.584 25.9868 135.423 25.5529C135.263 25.1189 135.186 24.6543 135.196 24.1871C135.182 23.7113 135.257 23.2374 135.416 22.7935C135.574 22.3495 135.814 21.9446 136.12 21.6027C136.427 21.2608 136.794 20.989 137.199 20.8033C137.605 20.6177 138.04 20.522 138.481 20.522C138.921 20.522 139.357 20.6177 139.762 20.8033C140.168 20.989 140.535 21.2608 140.841 21.6027C141.147 21.9446 141.387 22.3495 141.546 22.7935C141.704 23.2374 141.779 23.7113 141.765 24.1871C141.749 24.8849 141.546 25.5628 141.181 26.1384C140.816 26.7141 140.304 27.1627 139.707 27.43C139.111 27.6972 138.455 27.7716 137.82 27.644C137.185 27.5164 136.598 27.1924 136.13 26.7112ZM136.851 22.3552C136.637 22.5938 136.47 22.8763 136.36 23.1861C136.249 23.4958 136.197 23.8264 136.207 24.1582C136.197 24.49 136.249 24.8206 136.36 25.1303C136.471 25.4399 136.638 25.7225 136.851 25.9612C137.287 26.4204 137.872 26.6774 138.481 26.6774C139.09 26.6774 139.674 26.4204 140.11 25.9612C140.324 25.7225 140.491 25.4399 140.601 25.1303C140.712 24.8206 140.764 24.49 140.754 24.1582C140.764 23.8264 140.712 23.4958 140.602 23.1861C140.491 22.8763 140.324 22.5938 140.11 22.3552C139.674 21.896 139.09 21.639 138.481 21.639C137.872 21.639 137.287 21.896 136.851 22.3552Z" fill="white"/>
<path d="M143.646 27.7047V20.522H144.663V23.4664H148.261V20.522H149.279V27.7047H148.261V24.544H144.673V27.7047H143.646Z" fill="white"/>
<path d="M151.154 27.7047V20.522H152.172V23.4664H155.769V20.522H156.787V27.7047H155.769V24.544H152.172V27.7047H151.154Z" fill="white"/>
<path d="M158.666 27.7023V20.522H159.781V22.961H161.47C162.174 22.931 162.864 23.175 163.399 23.6437C163.634 23.8548 163.822 24.1145 163.951 24.4055C164.08 24.6966 164.147 25.0123 164.147 25.3316C164.147 25.651 164.08 25.9667 163.951 26.2577C163.822 26.5488 163.634 26.8085 163.399 27.0195C162.864 27.4882 162.174 27.7322 161.47 27.7023H158.666ZM159.781 26.6251H161.47C161.881 26.652 162.287 26.5237 162.611 26.2647C162.74 26.1473 162.843 26.0035 162.913 25.8427C162.984 25.6819 163.02 25.5078 163.02 25.3316C163.02 25.1555 162.984 24.9813 162.913 24.8205C162.843 24.6597 162.74 24.5159 162.611 24.3985C162.288 24.1346 161.883 23.9998 161.47 24.0192H159.781V26.6251ZM165.061 27.7023V20.522H166.177V27.7023H165.061Z" fill="white"/>
<path d="M168.056 27.7049V20.3778H169.07V25.8741V26.0211H169.094L172.537 20.3778H173.689V27.7049H172.676V22.2086V22.0615H172.649L169.205 27.7049H168.056ZM168.979 17.4438H169.938C169.934 17.5644 169.954 17.6845 169.996 17.7951C170.038 17.9056 170.102 18.0039 170.182 18.0825C170.395 18.2417 170.644 18.3265 170.898 18.3265C171.153 18.3265 171.401 18.2417 171.615 18.0825C171.694 18.0039 171.758 17.9056 171.8 17.7951C171.842 17.6845 171.862 17.5644 171.858 17.4438H172.818C172.826 17.6965 172.784 17.9479 172.695 18.1793C172.606 18.4106 172.472 18.6158 172.304 18.7792C171.893 19.1139 171.401 19.2937 170.896 19.2937C170.392 19.2937 169.9 19.1139 169.489 18.7792C169.322 18.6152 169.189 18.4098 169.1 18.1786C169.012 17.9473 168.97 17.6961 168.979 17.4438Z" fill="white"/>
<path d="M74.168 40.018V32.8353H75.1615V35.7099H76.4166L78.4234 32.8353H79.6123L77.2942 36.2105L79.8011 40.0029H78.5559L76.4232 36.7718H75.1681V40.0029L74.168 40.018Z" fill="white"/>
<path d="M79.801 40.018L81.6737 32.8353H84.5003L86.373 40.018H85.2211L83.6806 33.9124H82.4757L80.9388 40.018H79.801Z" fill="white"/>
<path d="M88.2319 38.9855C87.6398 38.2768 87.3135 37.3675 87.3135 36.4264C87.3135 35.4853 87.6398 34.5761 88.2319 33.8673C88.5147 33.5377 88.8615 33.2752 89.2493 33.0974C89.637 32.9196 90.0567 32.8306 90.48 32.8363C90.9655 32.8234 91.4462 32.9378 91.8786 33.169C92.2057 33.3462 92.492 33.5957 92.7177 33.9002L92.8365 34.1086V32.957H93.8854V39.8812H92.8365V38.7845L92.7177 38.9782C92.5052 39.2727 92.2314 39.5127 91.917 39.6802C91.4753 39.9172 90.9832 40.0329 90.487 40.0165C90.0625 40.0233 89.6415 39.9348 89.2525 39.7569C88.8634 39.5791 88.5154 39.316 88.2319 38.9855ZM89.0046 34.5765C88.5916 35.0934 88.3653 35.7455 88.3653 36.4191C88.3653 37.0927 88.5916 37.7448 89.0046 38.2617C89.2127 38.4881 89.4625 38.6683 89.7389 38.7914C90.0152 38.9145 90.3125 38.9779 90.6129 38.9779C90.9133 38.9779 91.2106 38.9145 91.4869 38.7914C91.7633 38.6683 92.013 38.4881 92.2212 38.2617C92.6368 37.7461 92.8648 37.0934 92.8648 36.4191C92.8648 35.7448 92.6368 35.0921 92.2212 34.5765C92.0136 34.3491 91.764 34.1681 91.4875 34.0445C91.2111 33.9208 90.9136 33.857 90.6129 33.857C90.3122 33.857 90.0147 33.9208 89.7382 34.0445C89.4618 34.1681 89.2122 34.3491 89.0046 34.5765Z" fill="white"/>
<path d="M96.7216 38.9925C96.1049 38.2913 95.7629 37.376 95.7629 36.4264C95.7629 35.4768 96.1049 34.5614 96.7216 33.8602C97.0514 33.5195 97.4453 33.2529 97.8786 33.077C98.312 32.9011 98.7755 32.8197 99.2405 32.8378C99.7054 32.8559 100.162 32.9732 100.581 33.1823C101.001 33.3915 101.374 33.688 101.678 34.0534C101.953 34.4083 102.157 34.8158 102.279 35.2526H101.226C101.12 34.9907 100.968 34.752 100.776 34.5491C100.557 34.3177 100.293 34.1365 100.003 34.0172C99.7117 33.8979 99.4001 33.8432 99.0877 33.8566C98.7838 33.8499 98.4821 33.9116 98.2034 34.0374C97.9246 34.1633 97.6754 34.3503 97.4728 34.5856C97.0372 35.0826 96.8055 35.7365 96.8269 36.4081C96.8081 37.0834 97.048 37.7388 97.4939 38.2307C97.6951 38.4619 97.9411 38.6464 98.2158 38.772C98.4904 38.8976 98.7876 38.9616 99.0877 38.9597C99.4161 38.9766 99.744 38.9172 100.048 38.7861C100.351 38.655 100.623 38.4553 100.843 38.2016C101.036 37.9895 101.185 37.739 101.282 37.4652H102.335C102.22 37.9327 102.012 38.3698 101.724 38.7483C101.409 39.1565 101.006 39.4835 100.549 39.7035C100.092 39.9236 99.5916 40.0308 99.0877 40.0168C98.6463 40.0272 98.2076 39.9415 97.8001 39.7651C97.3926 39.5886 97.0252 39.3255 96.7216 38.9925Z" fill="white"/>
<path d="M102.336 33.9124V32.8353H107.969V33.9124H105.677V40.018H104.639V33.9124H102.336Z" fill="white"/>
<path d="M109.847 38.9927C109.244 38.2946 108.908 37.3781 108.908 36.4266C108.908 35.4751 109.244 34.5587 109.847 33.8606C110.151 33.5259 110.516 33.2621 110.92 33.0858C111.323 32.9095 111.756 32.8246 112.192 32.8364C112.627 32.8259 113.06 32.9102 113.465 33.0844C113.869 33.2585 114.236 33.5188 114.543 33.8494C114.851 34.18 115.092 34.5741 115.253 35.0078C115.414 35.4414 115.491 35.9055 115.479 36.372V36.7729H109.943C109.995 37.3809 110.257 37.9461 110.678 38.3584C111.088 38.7695 111.633 38.992 112.195 38.9781C112.793 38.9938 113.376 38.7732 113.832 38.3584C114.031 38.187 114.197 37.9768 114.322 37.7388H115.343C115.105 38.4226 114.673 39.0096 114.108 39.418C113.543 39.8264 112.873 40.0357 112.192 40.0169C111.756 40.0289 111.323 39.9441 110.919 39.7678C110.516 39.5915 110.151 39.3276 109.847 38.9927ZM109.963 35.807H114.387C114.316 35.2734 114.067 34.7853 113.686 34.4329C113.275 34.053 112.745 33.8527 112.202 33.8716C111.657 33.8552 111.125 34.0551 110.708 34.4329C110.314 34.78 110.049 35.2679 109.963 35.807Z" fill="white"/>
<path d="M117.357 43.0964V32.9955H118.403V34.1552L118.535 33.9349C118.749 33.623 119.024 33.3702 119.341 33.1965C119.781 32.9428 120.272 32.819 120.767 32.837C121.19 32.8312 121.609 32.9254 121.996 33.1134C122.383 33.3013 122.73 33.5788 123.013 33.9271C123.603 34.6766 123.929 35.638 123.929 36.6331C123.929 37.6282 123.603 38.5896 123.013 39.339C122.55 39.8794 121.943 40.242 121.282 40.3741C120.62 40.5062 119.938 40.4009 119.334 40.0735C119.013 39.903 118.738 39.6433 118.535 39.3197L118.403 39.1148V43.0964H117.357ZM119.055 34.708C118.64 35.2532 118.413 35.9432 118.413 36.6563C118.413 37.3693 118.64 38.0593 119.055 38.6045C119.263 38.844 119.512 39.0345 119.787 39.1646C120.063 39.2948 120.359 39.3618 120.659 39.3618C120.959 39.3618 121.255 39.2948 121.531 39.1646C121.806 39.0345 122.055 38.844 122.263 38.6045C122.678 38.0593 122.905 37.3693 122.905 36.6563C122.905 35.9432 122.678 35.2532 122.263 34.708C122.056 34.4676 121.807 34.2762 121.531 34.1454C121.256 34.0147 120.959 33.9472 120.659 33.9472C120.359 33.9472 120.062 34.0147 119.787 34.1454C119.511 34.2762 119.262 34.4676 119.055 34.708Z" fill="white"/>
<path d="M65.1949 0.0148926H49.6139V44.6599H65.1949V0.0148926Z" fill="white"/>
<path d="M40.3862 0.0148926H24.8052V40.6448H40.3862V0.0148926Z" fill="white"/>
<path d="M0 45.3773V27.8969C6.58189 27.8877 12.8914 24.9445 17.5426 19.7138C22.1938 14.4831 24.8063 7.39269 24.8063 0L40.3873 0C40.3791 12.0294 36.1218 23.5637 28.5499 32.0712C20.9779 40.5786 10.7101 45.3641 0 45.3773Z" fill="url(#paint0_linear_105_1433)"/>
<path d="M24.8052 45.3773V27.8969C31.3878 27.889 37.6985 24.9464 42.3506 19.7155C47.0028 14.4847 49.6159 7.39355 49.6159 0L65.1969 0C65.1875 12.0299 60.9292 23.5641 53.3566 32.0715C45.784 40.5788 35.5157 45.3641 24.8052 45.3773Z" fill="url(#paint1_linear_105_1433)"/>
<defs>
<linearGradient id="paint0_linear_105_1433" x1="4.8699" y1="40.7594" x2="43.5911" y2="5.5784" gradientUnits="userSpaceOnUse">
<stop stop-color="#00EF12"/>
<stop offset="1" stop-color="#00FFE9"/>
</linearGradient>
<linearGradient id="paint1_linear_105_1433" x1="1620.68" y1="4981.52" x2="5147.72" y2="1777.66" gradientUnits="userSpaceOnUse">
<stop stop-color="#00EF12"/>
<stop offset="1" stop-color="#00FFE9"/>
</linearGradient>
</defs>
</svg>
