<svg width="346" height="42" viewBox="0 0 346 42" fill="none" xmlns="http://www.w3.org/2000/svg">
<path d="M235.637 14.1226L238.792 7.72908H240.553L236.273 16.629H234.977L232.523 11.4189V18.7492H230.746V7.72908H232.491L235.637 14.1226Z" fill="white"/>
<path d="M241.784 18.7492L245.582 7.72908H247.327L251.126 18.7492H249.177L248.435 16.4647H244.49L243.748 18.7492H241.784ZM245.004 14.8704H247.922L246.463 10.4163L245.004 14.8704Z" fill="white"/>
<path d="M260.378 7.72908V18.7492H258.544V9.33977H255.25V10.6053C255.25 14.1965 255.096 15.6675 254.696 16.7112C254.191 18.0343 253.147 18.6424 251.558 18.8972V16.9002C252.21 16.7687 252.748 16.4975 253.017 15.7826C253.318 14.9855 253.416 13.5473 253.416 10.6053V7.72908H260.378Z" fill="white"/>
<path d="M264.625 7.72908V11.912H266.288C269.157 11.912 270.249 13.5555 270.249 15.3306C270.249 17.1057 269.157 18.7492 266.173 18.7492H262.782V7.72908H264.625ZM264.625 17.155H266.222C267.763 17.155 268.407 16.4236 268.407 15.3306C268.407 14.2623 267.755 13.5062 266.222 13.5062H264.625V17.155ZM273.037 18.7492H271.203V7.72908H273.037V18.7492Z" fill="white"/>
<path d="M277.268 7.7295V15.2571L282.102 7.7295H283.61V18.7497H281.776V11.3043L276.959 18.7497H275.434V7.7295H277.268ZM282.559 4.71354C282.559 6.30781 281.573 7.06385 279.657 7.06385C277.741 7.06385 276.739 6.31602 276.739 4.71354H278.45C278.45 5.3381 278.687 5.83117 279.657 5.83117C280.627 5.83117 280.863 5.3381 280.863 4.71354H282.559Z" fill="white"/>
<path d="M296.963 9.33977H291.794V11.912H293.759C296.628 11.912 297.704 13.5555 297.704 15.3306C297.704 17.1057 296.628 18.7492 293.759 18.7492H289.96V7.72908H296.963V9.33977ZM291.794 17.155H293.694C295.234 17.155 295.862 16.4236 295.862 15.3306C295.862 14.2623 295.226 13.5062 293.694 13.5062H291.794V17.155Z" fill="white"/>
<path d="M301.243 7.72908V15.2566L306.077 7.72908H307.585V18.7492H305.751V11.3038L300.933 18.7492H299.409V7.72908H301.243Z" fill="white"/>
<path d="M312.117 12.2326H313.226C314.604 12.2326 315.158 11.5752 315.158 10.6548C315.158 9.79191 314.653 9.18379 313.365 9.18379C312.125 9.18379 311.539 9.72617 311.212 10.6877H309.566C309.786 8.75644 311.498 7.58951 313.381 7.58951C315.46 7.58951 316.992 8.62496 316.992 10.548C316.992 11.6985 316.405 12.4627 315.394 12.9558C316.552 13.342 317.343 14.2953 317.343 15.5937C317.343 17.4181 316.063 18.8973 313.43 18.8973C311.212 18.8973 309.753 17.8783 309.297 15.6348H311.074C311.53 16.7525 312.117 17.2784 313.389 17.2784C314.816 17.2784 315.508 16.6374 315.508 15.5362C315.508 14.435 314.75 13.8269 313.144 13.8269H312.117V12.2326Z" fill="white"/>
<path d="M320.953 12.2489H325.135V7.72908H326.969V18.7492H325.135V13.8514H320.953V18.7575H319.119V7.72908H320.953V12.2489Z" fill="white"/>
<path d="M336.092 7.72908V9.33977H331.225V12.2489H335.611V13.8432H331.225V17.1468H336.092V18.741H329.391V7.72908H336.092Z" fill="white"/>
<path d="M343.68 11.148C343.395 9.80848 342.686 9.20036 341.479 9.20036C340.02 9.20036 339.23 10.1618 339.23 12.5368V13.9421C339.23 16.2924 340.02 17.2785 341.479 17.2785C342.735 17.2785 343.395 16.6704 343.68 15.3309H345.441C345.074 17.8045 343.648 18.8892 341.479 18.8892C339.042 18.8892 337.387 17.4018 337.387 13.9339V12.5368C337.387 9.06887 339.034 7.58141 341.479 7.58141C343.648 7.58141 345.091 8.74835 345.458 11.1398H343.68V11.148Z" fill="white"/>
<path d="M235.76 29.8521L238.914 23.4586H240.675V34.4788H238.898V27.0991L236.395 32.3503H235.099L232.646 27.1402V34.4706H230.868V23.4668H232.613L235.76 29.8521Z" fill="white"/>
<path d="M246.732 34.6262C244.295 34.6262 242.64 33.1388 242.64 29.6708V28.2656C242.64 24.7976 244.286 23.3102 246.732 23.3102C249.186 23.3102 250.832 24.7976 250.832 28.2656V29.6708C250.832 33.1388 249.186 34.6262 246.732 34.6262ZM244.482 29.679C244.482 32.0622 245.273 33.0155 246.732 33.0155C248.191 33.0155 248.998 32.054 248.998 29.679V28.2738C248.998 25.8906 248.191 24.9373 246.732 24.9373C245.273 24.9373 244.482 25.8988 244.482 28.2738V29.679Z" fill="white"/>
<path d="M258.642 26.885C258.356 25.5455 257.647 24.9373 256.441 24.9373C254.982 24.9373 254.191 25.8988 254.191 28.2738V29.679C254.191 32.0294 254.982 33.0155 256.441 33.0155C257.696 33.0155 258.356 32.4074 258.642 31.0679H260.402C260.036 33.5415 258.609 34.6262 256.441 34.6262C254.003 34.6262 252.349 33.1388 252.349 29.6708V28.2656C252.349 24.7976 253.995 23.3102 256.441 23.3102C258.609 23.3102 260.052 24.4771 260.419 26.8685H258.642V26.885Z" fill="white"/>
<path d="M268.244 34.4866L265.139 29.7449H263.932V34.4866H262.098V23.4664H263.932V28.1506H265.09L267.812 23.4664H269.842L266.72 28.8492L270.429 34.4866H268.244Z" fill="white"/>
<path d="M275.345 23.4664C277.912 23.4664 279.225 24.4279 279.225 26.3263C279.225 27.4603 278.573 28.3725 277.627 28.7259C278.866 29.0793 279.575 29.9421 279.575 31.331C279.575 32.991 278.532 34.4948 275.695 34.4948H271.831V23.4664H275.345ZM273.665 27.9698H275.459C276.82 27.9698 277.391 27.3453 277.391 26.4331C277.391 25.5702 276.967 25.0607 275.222 25.0607H273.673V27.9698H273.665ZM275.581 32.8841C277.056 32.8841 277.733 32.276 277.733 31.2241C277.733 30.0572 276.975 29.5641 275.353 29.5641H273.657V32.8841H275.581Z" fill="white"/>
<path d="M283.21 23.4664V27.6494H284.873C287.743 27.6494 288.835 29.2929 288.835 31.068C288.835 32.8431 287.743 34.4866 284.759 34.4866H281.368V23.4664H283.21ZM283.21 32.8841H284.808C286.349 32.8841 286.993 32.1528 286.993 31.0598C286.993 29.9914 286.341 29.2354 284.808 29.2354H283.21V32.8841ZM291.623 34.4866H289.789V23.4664H291.623V34.4866Z" fill="white"/>
<path d="M119.467 1.18775H128.181L138.762 21.149L149.286 1.18775H158.057V40.5432H149.229V18.3056L141.199 34.0511H136.161L128.295 18.4782V40.5514H119.467V1.18775Z" fill="white"/>
<path d="M191.74 17.7878V23.9512C191.74 29.5064 190.362 33.7551 187.607 36.6971C184.852 39.6473 181.102 41.1183 176.349 41.1183C171.597 41.1183 167.847 39.6473 165.092 36.6971C162.336 33.7469 160.959 29.4982 160.959 23.9512V17.7878C160.959 12.1996 162.328 7.94274 165.059 5.00895C167.798 2.08339 171.564 0.620605 176.349 0.620605C181.134 0.620605 184.9 2.08339 187.639 5.00895C190.378 7.94274 191.74 12.1996 191.74 17.7878ZM170.358 17.7878V23.9512C170.358 30.1474 172.355 33.2456 176.357 33.2456C180.36 33.2456 182.357 30.1474 182.357 23.9512V17.7878C182.357 11.5915 180.36 8.49333 176.357 8.49333C172.355 8.49333 170.358 11.5915 170.358 17.7878Z" fill="white"/>
<path d="M221.355 7.06342L214.394 12.0845C213.636 10.7943 212.731 9.87394 211.679 9.31512C210.62 8.76453 209.209 8.48512 207.44 8.48512C204.457 8.48512 202.973 9.6274 202.973 11.9038C202.973 13.046 203.503 13.9993 204.555 14.7554C205.606 15.5196 207.4 16.2592 209.927 16.9824C214.223 18.2397 217.247 19.7765 218.983 21.6009C220.752 23.4663 221.641 26.0467 221.641 29.3585C221.641 33.0073 220.451 35.8835 218.078 37.9709C215.706 40.0664 212.348 41.1101 208.011 41.1101C204.351 41.1101 201.286 40.6088 198.816 39.598C196.346 38.5872 194.202 36.9436 192.392 34.6673L199.411 29.7037C201.294 32.0622 203.903 33.2374 207.22 33.2374C208.883 33.2374 210.13 32.9333 210.978 32.3252C211.826 31.7171 212.25 30.8788 212.25 29.8187C212.25 28.6764 211.736 27.7478 210.717 27.0247C209.886 26.3754 207.946 25.5454 204.889 24.5182C200.927 23.228 198.05 21.6009 196.264 19.645C194.471 17.6891 193.574 15.1334 193.574 11.9695C193.574 8.46868 194.756 5.70747 197.112 3.66944C199.468 1.63962 202.867 0.620605 207.318 0.620605C213.888 0.620605 218.559 2.76547 221.355 7.06342Z" fill="white"/>
<path d="M19.6645 21.1738L30.1803 1.22075H38.9434V40.5598H30.1232V18.3222L22.0937 34.0594H17.0641L9.20579 18.4948V40.5598H0.377441V1.21253H9.08351L19.6645 21.1738Z" fill="white"/>
<path d="M56.5344 1.21253C65.7541 1.21253 71.1261 4.45859 71.1261 11.6493C71.1261 15.7007 69.3734 18.0346 66.6589 19.8589C70.2212 21.6258 72.3733 24.4198 72.3733 29.2684C72.3733 35.5386 68.1914 40.5598 57.7816 40.5598H42.9047V1.21253H56.5344ZM52.2955 16.2102H56.2573C60.0478 16.2102 61.7434 15.0104 61.7434 12.734C61.7434 10.4001 60.5532 9.02776 55.4095 9.02776H52.2955V16.2102ZM52.2955 32.687H56.7627C60.9445 32.687 62.9824 31.2653 62.9824 28.3562C62.9824 25.1595 60.8304 24.0829 56.0861 24.0829H52.2955V32.687Z" fill="white"/>
<path d="M95.052 21.1738L105.568 1.22075H114.331L97.4731 34.0594H92.4435L84.5852 18.4948V40.5598H75.7654V1.21253H84.4711L95.052 21.1738Z" fill="white"/>
<path d="M109.937 40.5762C112.364 40.5762 114.331 38.5931 114.331 36.1468C114.331 33.7005 112.364 31.7173 109.937 31.7173C107.51 31.7173 105.543 33.7005 105.543 36.1468C105.543 38.5931 107.51 40.5762 109.937 40.5762Z" fill="#E40046"/>
</svg>
