<svg width="370" height="44" viewBox="0 0 370 44" fill="none" xmlns="http://www.w3.org/2000/svg">
<g clip-path="url(#clip0_105_1657)">
<path d="M251.664 14.4582L255.032 7.61182H256.912L252.343 17.1422H250.959L248.34 11.563V19.4126H246.442V7.61182H248.305L251.664 14.4582Z" fill="white"/>
<path d="M258.226 19.4126L262.281 7.61182H264.144L268.199 19.4126H266.119L265.327 16.9662H261.115L260.323 19.4126H258.226ZM261.663 15.259H264.779L263.221 10.4894L261.663 15.259Z" fill="white"/>
<path d="M278.077 7.61182V19.4126H276.119V9.3366H272.603V10.6918C272.603 14.5374 272.438 16.1126 272.011 17.2302C271.472 18.647 270.358 19.2982 268.661 19.571V17.4326C269.357 17.2918 269.931 17.0014 270.218 16.2358C270.54 15.3822 270.645 13.8422 270.645 10.6918V7.61182H278.077Z" fill="white"/>
<path d="M282.611 7.61182V12.091H284.386C287.45 12.091 288.616 13.851 288.616 15.7518C288.616 17.6526 287.45 19.4126 284.264 19.4126H280.644V7.61182H282.611ZM282.611 13.807V17.7054H284.317C285.961 17.7054 286.649 16.9222 286.649 15.7518C286.649 14.6078 285.953 13.7982 284.317 13.7982H282.611V13.807ZM291.592 19.4126H289.634V7.61182H291.592V19.4126Z" fill="white"/>
<path d="M296.109 7.61192V15.6727L301.27 7.61192H302.88V19.4127H300.922V11.4399L295.779 19.4127H294.151V7.61192H296.109ZM301.758 4.38232C301.758 6.08952 300.704 6.89912 298.659 6.89912C296.614 6.89912 295.544 6.09832 295.544 4.38232H297.371C297.371 5.05112 297.624 5.57912 298.659 5.57912C299.695 5.57912 299.947 5.05112 299.947 4.38232H301.758Z" fill="white"/>
<path d="M317.135 9.3366H311.617V12.091H313.715C316.778 12.091 317.927 13.851 317.927 15.7518C317.927 17.6526 316.778 19.4126 313.715 19.4126H309.659V7.61182H317.135V9.3366ZM311.617 13.807V17.7054H313.645C315.29 17.7054 315.96 16.9222 315.96 15.7518C315.96 14.6078 315.281 13.7982 313.645 13.7982H311.617V13.807Z" fill="white"/>
<path d="M321.704 7.61182V15.6726L326.865 7.61182H328.475V19.4126H326.517V11.4398L321.374 19.4126H319.746V7.61182H321.704Z" fill="white"/>
<path d="M333.314 12.4344H334.498C335.968 12.4344 336.56 11.7304 336.56 10.7448C336.56 9.82082 336.021 9.16962 334.646 9.16962C333.323 9.16962 332.696 9.75042 332.348 10.78H330.59C330.825 8.712 332.653 7.4624 334.663 7.4624C336.882 7.4624 338.518 8.5712 338.518 10.6304C338.518 11.8624 337.892 12.6808 336.813 13.2088C338.048 13.6224 338.893 14.6432 338.893 16.0336C338.893 17.9872 337.526 19.5712 334.715 19.5712C332.348 19.5712 330.79 18.48 330.303 16.0776H332.2C332.687 17.2744 333.314 17.8376 334.672 17.8376C336.195 17.8376 336.934 17.1512 336.934 15.972C336.934 14.7928 336.125 14.1416 334.411 14.1416H333.314V12.4344Z" fill="white"/>
<path d="M342.748 12.4518H347.212V7.61182H349.17V19.4126H347.212V14.1678H342.748V19.4214H340.789V7.61182H342.748V12.4518Z" fill="white"/>
<path d="M358.909 7.61182V9.3366H353.713V12.4518H358.395V14.159H353.713V17.6966H358.909V19.4038H351.755V7.61182H358.909Z" fill="white"/>
<path d="M367.011 11.2728C366.707 9.83844 365.95 9.18724 364.662 9.18724C363.104 9.18724 362.26 10.2168 362.26 12.76V14.2648C362.26 16.7816 363.104 17.8376 364.662 17.8376C366.002 17.8376 366.707 17.1864 367.011 15.752H368.891C368.499 18.4008 366.976 19.5624 364.662 19.5624C362.059 19.5624 360.293 17.9696 360.293 14.256V12.76C360.293 9.04644 362.051 7.45361 364.662 7.45361C366.976 7.45361 368.517 8.70321 368.909 11.264H367.011V11.2728Z" fill="white"/>
<path d="M251.794 31.302L255.162 24.4556H257.042V36.2564H255.145V28.354L252.473 33.9772H251.09L248.47 28.398V36.2476H246.573V24.4644H248.435L251.794 31.302Z" fill="white"/>
<path d="M263.509 36.4145C260.906 36.4145 259.14 34.8217 259.14 31.1081V29.6033C259.14 25.8897 260.898 24.2969 263.509 24.2969C266.128 24.2969 267.886 25.8897 267.886 29.6033V31.1081C267.886 34.8217 266.128 36.4145 263.509 36.4145ZM261.107 31.1169C261.107 33.6689 261.951 34.6897 263.509 34.6897C265.066 34.6897 265.928 33.6601 265.928 31.1169V29.6121C265.928 27.0601 265.066 26.0393 263.509 26.0393C261.951 26.0393 261.107 27.0689 261.107 29.6121V31.1169Z" fill="white"/>
<path d="M276.223 28.1249C275.919 26.6905 275.162 26.0393 273.874 26.0393C272.316 26.0393 271.472 27.0689 271.472 29.6121V31.1169C271.472 33.6337 272.316 34.6897 273.874 34.6897C275.214 34.6897 275.919 34.0385 276.223 32.6041H278.103C277.712 35.2529 276.189 36.4145 273.874 36.4145C271.272 36.4145 269.505 34.8217 269.505 31.1081V29.6033C269.505 25.8897 271.263 24.2969 273.874 24.2969C276.189 24.2969 277.729 25.5465 278.121 28.1073H276.223V28.1249Z" fill="white"/>
<path d="M286.475 36.2652L283.16 31.1876H281.872V36.2652H279.913V24.4644H281.872V29.4804H283.107L286.014 24.4644H288.181L284.848 30.2284L288.808 36.2652H286.475Z" fill="white"/>
<path d="M294.055 24.4644C296.797 24.4644 298.198 25.494 298.198 27.5268C298.198 28.7412 297.502 29.718 296.492 30.0964C297.815 30.4748 298.572 31.3988 298.572 32.886C298.572 34.6636 297.458 36.274 294.43 36.274H290.304V24.4644H294.055ZM292.263 29.2868H294.177C295.631 29.2868 296.24 28.618 296.24 27.6412C296.24 26.7172 295.787 26.1716 293.925 26.1716H292.271V29.2868H292.263ZM292.263 34.5492H294.308C295.883 34.5492 296.605 33.898 296.605 32.7716C296.605 31.522 295.796 30.994 294.064 30.994H292.254V34.5492H292.263Z" fill="white"/>
<path d="M302.454 24.4644V28.9436H304.229C307.292 28.9436 308.458 30.7036 308.458 32.6044C308.458 34.5052 307.292 36.2652 304.107 36.2652H300.487V24.4644H302.454ZM302.454 30.6508V34.5492H304.159C305.804 34.5492 306.492 33.766 306.492 32.5956C306.492 31.4516 305.795 30.642 304.159 30.642H302.454V30.6508ZM311.435 36.2652H309.477V24.4644H311.435V36.2652Z" fill="white"/>
<path d="M127.64 0.607422H136.943L148.239 21.9826L159.475 0.607422H168.839V42.7506H159.414V18.9378L150.842 35.7986H145.463L137.065 19.1226V42.7594H127.64V0.607422Z" fill="white"/>
<path d="M204.799 18.3832V24.9832C204.799 30.932 203.328 35.4816 200.387 38.632C197.445 41.7912 193.442 43.3664 188.368 43.3664C183.294 43.3664 179.291 41.7912 176.35 38.632C173.408 35.4728 171.937 30.9232 171.937 24.9832V18.3832C171.937 12.3992 173.399 7.8408 176.315 4.6992C179.239 1.5664 183.26 0 188.368 0C193.477 0 197.497 1.5664 200.422 4.6992C203.346 7.8408 204.799 12.3992 204.799 18.3832ZM181.972 18.3832V24.9832C181.972 31.6184 184.104 34.936 188.377 34.936C192.65 34.936 194.782 31.6184 194.782 24.9832V18.3832C194.782 11.748 192.65 8.4304 188.377 8.4304C184.104 8.4304 181.972 11.748 181.972 18.3832Z" fill="white"/>
<path d="M236.417 6.8992L228.984 12.276C228.175 10.8944 227.209 9.9088 226.086 9.3104C224.955 8.7208 223.449 8.4216 221.561 8.4216C218.376 8.4216 216.792 9.6448 216.792 12.0824C216.792 13.3056 217.357 14.3264 218.48 15.136C219.603 15.9544 221.517 16.7464 224.215 17.5208C228.802 18.8672 232.03 20.5128 233.884 22.4664C235.773 24.464 236.721 27.2272 236.721 30.7736C236.721 34.6808 235.45 37.7608 232.918 39.996C230.385 42.24 226.8 43.3576 222.17 43.3576C218.262 43.3576 214.99 42.8208 212.353 41.7384C209.716 40.656 207.427 38.896 205.495 36.4584L212.988 31.1432C214.999 33.6688 217.784 34.9272 221.326 34.9272C223.101 34.9272 224.433 34.6016 225.338 33.9504C226.243 33.2992 226.695 32.4016 226.695 31.2664C226.695 30.0432 226.147 29.0488 225.059 28.2744C224.172 27.5792 222.1 26.6904 218.837 25.5904C214.607 24.2088 211.535 22.4664 209.629 20.372C207.715 18.2776 206.757 15.5408 206.757 12.1528C206.757 8.404 208.019 5.4472 210.534 3.2648C213.049 1.0912 216.678 0 221.43 0C228.445 0 233.431 2.2968 236.417 6.8992Z" fill="white"/>
<path d="M21.0909 22.009L32.3176 0.642589H41.6731V42.7682H32.2566V18.9554L23.6843 35.8074H18.3147L9.92517 19.1402V42.7682H0.5V0.633789H9.79462L21.0909 22.009Z" fill="white"/>
<path d="M60.4536 0.633789C70.2965 0.633789 76.0317 4.10979 76.0317 11.8098C76.0317 16.1482 74.1606 18.6474 71.2625 20.601C75.0656 22.493 77.3632 25.485 77.3632 30.677C77.3632 37.3914 72.8986 42.7682 61.7851 42.7682H45.9025V0.633789H60.4536ZM55.9281 16.6938H60.1577C64.2045 16.6938 66.0147 15.409 66.0147 12.9714C66.0147 10.4722 64.7441 9.00261 59.2526 9.00261H55.9281V16.6938ZM55.9281 34.3378H60.6973C65.1618 34.3378 67.3375 32.8154 67.3375 29.7002C67.3375 26.277 65.04 25.1242 59.9749 25.1242H55.9281V34.3378Z" fill="white"/>
<path d="M101.575 22.009L112.801 0.642589H122.157L104.16 35.8074H98.7899L90.4004 19.1402V42.7682H80.9844V0.633789H90.2786L101.575 22.009Z" fill="white"/>
<path d="M117.466 42.7857C120.057 42.7857 122.157 40.6621 122.157 38.0425C122.157 35.4229 120.057 33.2993 117.466 33.2993C114.875 33.2993 112.775 35.4229 112.775 38.0425C112.775 40.6621 114.875 42.7857 117.466 42.7857Z" fill="#E40046"/>
</g>
<defs>
<clipPath id="clip0_105_1657">
<rect width="369" height="44" fill="white" transform="translate(0.5)"/>
</clipPath>
</defs>
</svg>
