<svg width="199" height="59" viewBox="0 0 199 59" fill="none" xmlns="http://www.w3.org/2000/svg">
<g clip-path="url(#clip0_1_229)">
<mask id="mask0_1_229" style="mask-type:luminance" maskUnits="userSpaceOnUse" x="0" y="0" width="199" height="59">
<path d="M199 0H0V59H199V0Z" fill="white"/>
</mask>
<g mask="url(#mask0_1_229)">
<path d="M51.6433 8.6814C51.6433 8.6814 56.6385 12.2214 56.4773 14.0757C55.9134 22.1671 53.3352 30.4271 49.1458 37.9285C44.07 47.1157 36.7385 54.6171 28.6818 58.9999H28.1179L26.0231 54.6171C33.4352 50.7399 40.1224 43.9129 44.8758 35.3999C49.6292 26.8871 52.0461 17.3629 51.6433 8.6814Z" fill="white"/>
<path d="M4.83424 8.51294C4.4314 17.2786 6.76784 26.7186 11.5213 35.2316C16.2748 43.7444 22.9617 50.6558 30.3739 54.533L28.2791 59.0002H27.8763C19.7391 54.6172 12.4075 47.1158 7.25124 37.8444C3.14233 30.4272 0.644765 22.2516 0.000230389 14.4129C-0.160903 12.3058 4.83424 8.51294 4.83424 8.51294Z" fill="white"/>
<path d="M29.0853 0C31.2337 0 33.2748 0.0842858 35.2083 0.252858C41.8954 1.01143 47.8574 2.78142 52.6914 5.47858C53.4164 5.9 54.5443 7.83858 55.3501 9.86142C56.0751 11.5471 56.6391 13.3171 56.478 14.0757C55.6723 13.4857 54.5443 12.7271 53.5776 12.0529C52.6914 11.4629 51.8857 10.9571 51.5634 10.7043C51.2411 10.5357 50.9189 10.3671 50.5967 10.1143C46.246 7.67 40.9287 6.06858 34.8861 5.39428C33.06 5.22572 31.1263 5.14142 29.0853 5.14142C19.2561 5.14142 11.0383 7.16428 4.91524 10.9571C4.67355 11.1257 4.10958 11.5471 3.38448 11.9686C3.27705 12.0248 3.19649 12.081 3.14277 12.1371C2.09541 12.8957 0.886907 13.7386 0.000671715 14.4129C-0.079895 13.57 0.484073 11.7157 1.20917 9.86142C2.01484 7.92286 3.06222 6.15286 3.78731 5.73142C10.4744 1.93858 19.095 0 29.0853 0Z" fill="white"/>
<path fill-rule="evenodd" clip-rule="evenodd" d="M34.1604 31.1015C34.3214 31.0171 34.966 30.5957 34.966 31.1857C34.966 31.86 35.3688 32.1971 35.6911 32.45C35.9328 32.7871 36.0134 31.9443 36.3357 32.7871C36.7385 33.7143 37.2219 34.6415 37.7053 34.9786C37.7053 34.9786 37.1413 35.0629 36.8191 34.81C36.8191 34.81 37.0607 35.4843 37.3831 35.5686C37.3831 35.5686 36.8997 35.8215 36.6579 35.4843C36.7385 37.0015 35.2078 38.6029 34.7244 39.0243C34.4826 39.2771 34.8854 39.6143 35.4494 39.4457C35.7717 39.1648 36.0402 39.1929 36.2551 39.53C36.5773 39.4177 36.7653 39.5019 36.8191 39.7829C37.1413 40.0357 37.1413 40.2886 36.8191 40.3729C37.0607 40.0357 36.4162 39.6986 36.2551 40.12C36.5773 40.12 36.3357 40.8786 36.0939 41.0471C36.3357 40.4571 35.8523 40.3729 35.3688 40.71C35.4763 40.8786 35.5031 41.0471 35.4494 41.2157C35.0466 40.71 31.2599 40.2886 31.2599 41.1315C31.0988 40.7943 31.0988 40.5415 31.5017 40.3729C31.5017 40.12 31.7433 40.0357 32.1461 40.0357C32.1461 39.1086 31.3405 39.2771 30.6154 39.1929C30.3738 39.1929 29.8098 39.1086 29.2458 38.94C28.5207 38.7715 27.8761 38.5186 27.8761 38.5186C27.3121 38.6871 27.3927 39.3615 28.4401 39.6143C28.7086 39.3895 28.8698 39.4177 28.9234 39.6986C29.2994 39.7548 29.4606 39.9233 29.4068 40.2043C29.2458 40.0357 29.0846 39.9515 28.9234 40.0357C28.6818 40.3729 28.6818 39.9515 28.5206 40.2886C29.0846 40.2886 29.2458 40.6257 29.0846 41.2157C29.004 40.7943 28.9234 40.6257 28.6012 40.8786C28.3595 40.9629 28.0373 40.8786 27.7151 40.71C27.0705 40.6257 26.6677 40.6257 26.9093 40.8786C27.0167 40.9909 27.0437 41.1033 26.9899 41.2157L26.9093 41.4686C26.8287 41.0471 25.7008 41.0471 25.4592 40.8786L25.298 40.71C25.2443 40.71 25.2174 40.6819 25.2174 40.6257C24.9758 40.5415 24.4924 40.4571 24.3312 40.5415C23.8478 40.7943 23.3644 40.2043 23.1227 40.8786C23.0421 40.3729 23.2033 40.12 23.6866 40.0357C23.7672 39.6143 24.17 39.6143 24.6534 39.7829C25.9425 39.6986 24.2506 39.1929 24.8146 38.0971C24.8952 38.0129 24.9758 37.9286 25.0564 37.76C25.4592 37.17 25.298 36.4957 24.3312 36.58C25.4592 39.1929 21.4307 40.2886 21.0279 37.76C20.8668 37.17 21.0279 36.4957 21.1891 36.4115C21.1891 36.4115 21.1085 36.8329 21.1085 37.3386C21.2697 39.2771 23.9284 39.1929 24.0894 37.5071C24.4118 34.3886 19.0944 36.2429 18.2081 33.7143C17.8859 32.9557 19.0944 32.0286 19.0944 30.5957C19.0944 30.3429 18.772 28.7415 18.2887 28.91C18.2081 28.9943 18.2081 29.0786 18.2081 29.1629C18.4498 29.7529 18.611 30.09 18.5304 31.0171C18.5304 31.0171 18.4498 31.1857 18.3693 31.27C18.4498 31.1857 18.5304 30.5957 18.3693 30.0057C18.2887 29.6686 18.1275 29.3315 18.1275 29.3315C18.047 29.5 18.047 29.5 17.9665 29.5843C17.8053 29.8091 17.6441 29.9495 17.4831 30.0057C16.9191 30.1743 16.5967 30.7643 16.4357 32.3657C15.8717 31.1015 15.7106 30.3429 16.0328 29.4157C16.2745 29.0786 16.1939 28.4043 16.4357 27.9829C16.4357 27.9829 16.4087 27.9829 16.3551 27.9829C15.7106 27.6457 15.1466 27.2243 15.2272 26.3815C15.3078 25.7915 15.7911 25.2857 16.5162 25.4543L16.4357 24.6957L16.5162 24.78C16.9191 25.2015 17.1607 25.7071 16.9191 26.4657C16.7579 26.1286 16.5162 26.0443 16.1939 25.96C16.4357 25.7071 16.1939 25.4543 15.7911 25.8757C15.4688 26.1286 15.4688 26.6343 15.7911 27.0557C15.9522 27.2243 16.3551 27.4771 16.5967 27.4771C16.7579 27.2243 16.9191 26.8871 17.0801 26.8029C17.4025 26.3815 17.5635 25.7915 17.7247 25.2857C18.2887 23.4315 19.9 23.1786 21.4307 24.2743C21.4845 24.3305 21.5381 24.3586 21.5919 24.3586C21.6993 24.4147 21.7799 24.4709 21.8337 24.5271C21.8873 24.5833 21.9411 24.6395 21.9947 24.6957C22.1021 24.7519 22.1827 24.8081 22.2365 24.8643C22.2365 24.8643 22.6393 24.6115 23.1227 24.5271C23.6061 24.3586 24.3312 24.3586 24.5728 24.3586C24.5728 24.2743 24.009 23.8529 24.009 23.3471C24.009 23.3471 22.8005 23.6843 22.2365 22.5886C21.5919 21.4929 19.6584 21.9986 18.611 22.6729C18.611 22.6729 18.2887 21.6615 19.1748 21.4086C19.1748 21.4086 18.772 20.8186 19.7388 20.4815C20.7863 20.06 18.772 19.1329 20.2224 18.5429C21.6725 17.8686 22.6393 16.9415 21.2697 17.1943C20.464 17.3629 20.8668 16.6886 21.3502 16.1829C21.5113 15.93 21.5919 15.5086 21.5113 15.2557C21.4307 15.0029 21.3502 14.6657 21.1891 14.4129C21.1891 14.3567 21.1622 14.3005 21.1085 14.2443C20.8668 13.7386 20.5446 13.4857 20.5446 13.3172C20.5446 13.1486 20.5446 12.98 20.6251 12.8957L19.4166 11.0415C19.0944 10.7043 19.336 10.4515 19.5778 10.4515C19.6584 10.4515 19.7388 10.4515 19.7388 10.4515C19.9 10.7043 20.3028 11.21 21.0279 12.3057C21.2697 12.3057 21.1891 12.39 21.3502 12.39C21.3502 12.39 21.3771 12.39 21.4307 12.39C21.4845 12.4462 21.5113 12.4743 21.5113 12.4743C21.5113 12.4743 21.5381 12.4743 21.5919 12.4743C21.7531 12.7272 21.7531 13.0643 21.8337 13.2329C21.9141 13.3172 21.8337 13.4857 21.8337 13.57C21.9141 13.6543 21.9947 13.8229 22.0753 13.9072C24.009 16.6043 26.5871 20.65 29.1652 24.3586C29.7292 22.42 29.6486 20.3129 29.6486 20.3129C29.3264 21.6615 28.279 21.5771 28.279 21.5771C29.4068 20.4815 29.568 18.29 29.568 18.29C29.2458 20.9871 27.9567 20.5657 27.9567 20.5657C27.9567 20.5657 28.5207 20.7343 28.843 18.4586C28.9234 16.9415 30.0514 15.1715 30.9377 15.0029C30.4543 14.9186 29.1652 15.2557 28.9234 15.7615V15.6771C29.004 15.4243 29.0846 15.1715 29.0846 14.8343C30.2126 14.2443 31.2599 15.0029 32.3879 14.2443C32.3879 14.0757 32.2267 13.9072 32.1461 13.8229C32.0657 13.7386 32.0657 13.6543 32.2267 13.6543L33.0324 13.8229C33.1935 13.8229 33.0324 13.6543 33.0324 13.57C32.8713 13.3172 33.3547 13.4857 33.7575 13.9915C33.9186 14.0757 34.0798 14.2443 34.1604 14.16C34.966 13.9072 35.2883 14.0757 35.53 14.9186V15.0029L35.3688 15.0871C35.6106 15.34 35.6911 15.5929 35.6911 15.8457C35.6911 15.93 35.6911 15.93 35.6911 16.0143C36.0134 16.52 36.3357 17.0257 36.7385 17.4471C36.8997 17.6157 36.9801 17.7 37.1413 17.8686H37.2219C37.3293 17.9809 37.3561 18.2057 37.3025 18.5429C37.4635 18.9643 37.3025 19.2171 36.9801 19.2171C36.8997 19.1329 36.8191 19.0486 36.7385 18.9643C36.6847 19.0205 36.6579 19.0486 36.6579 19.0486C36.7117 18.9924 36.7385 18.9643 36.7385 18.9643C36.7921 18.9643 36.8459 18.9362 36.8997 18.88C37.0607 18.7957 37.3025 18.2057 37.0607 18.0371C36.5773 17.7 35.7717 16.4357 35.2883 16.4357C34.8048 16.3515 34.6438 16.2671 35.0466 15.93C35.2078 15.8177 35.2883 15.7333 35.2883 15.6771C35.2346 15.5648 35.154 15.4524 35.0466 15.34C34.8854 15.2277 34.6168 15.0871 34.2408 14.9186C33.3547 14.4972 32.3879 14.6657 31.8239 15.1715C29.4068 17.3629 31.8239 21.4086 29.3264 24.4429C30.696 26.4657 31.9851 28.2357 33.113 29.8371L33.7575 30.0057L34.1604 31.1015ZM25.9425 40.71C26.1842 40.7943 26.4259 40.7943 26.4259 40.71C26.4259 40.5415 26.4259 40.6257 26.4259 40.5415C26.7481 40.3729 27.9567 40.6257 27.9567 40.6257C28.1179 40.6257 28.1984 40.6257 28.279 40.5415C29.2458 39.8671 25.2174 40.3729 25.7814 38.6871L25.862 38.5186C26.4259 36.8329 29.4874 38.8557 31.0182 38.8557C31.9851 38.8557 32.4685 38.7715 32.4685 40.0357C32.4685 40.12 32.2267 40.12 32.0657 40.12C31.5017 40.2043 31.7433 40.4571 32.2267 40.4571C32.3073 40.4571 32.7907 40.4571 33.1935 40.4571C33.9186 40.3729 34.402 40.6257 34.8854 40.6257C34.966 40.6257 34.8048 40.3729 34.8854 40.3729C35.3688 40.3729 35.53 40.3729 35.53 40.2886C35.6106 40.2886 35.6911 40.2043 35.6911 40.12C35.6911 40.12 35.53 40.0357 35.4494 40.0357C34.966 40.12 33.677 40.12 33.1935 39.8671C33.0324 39.8671 33.0324 39.8671 32.9519 39.7829C32.8713 39.53 32.7907 39.2771 32.8713 38.94C33.1935 38.6871 36.4162 38.7715 36.3357 34.8943C36.3357 34.8943 36.6579 34.7257 36.2551 33.8829C36.0134 32.8715 35.6911 33.8829 35.2883 32.9557C34.966 32.3657 34.6438 32.2815 34.402 31.6915L34.5632 32.3657C34.4826 32.2815 34.3214 32.2815 34.2408 32.2815C33.9186 32.2815 33.9186 32.3657 34.3214 32.8715C34.402 32.9557 34.5632 33.04 34.5632 33.1243C34.7244 33.7986 34.6438 34.4729 34.8048 34.8943C34.8854 35.3157 35.2883 35.4843 35.6106 35.3157C34.5632 37.4229 33.4352 37.5915 31.8239 36.4115C31.2599 35.9057 31.0182 34.9786 29.4068 34.3043C28.4401 33.8829 27.1511 33.8829 26.5871 33.3771C26.7481 33.63 26.8287 33.8829 26.9093 34.0515C26.9093 33.9953 26.9093 33.9671 26.9093 33.9671C27.1511 34.81 26.8287 35.99 25.298 35.7371C24.8952 35.5686 23.7672 35.4 23.5255 35.4C23.2033 35.4 22.9885 35.3719 22.881 35.3157C22.9885 35.3719 23.069 35.4 23.1227 35.4C23.1764 35.4562 23.2301 35.4843 23.2838 35.4843C23.3375 35.5405 23.4181 35.5686 23.5255 35.5686C23.5792 35.6248 23.633 35.6809 23.6866 35.7371C23.8478 35.8215 24.009 36.0743 24.17 36.1586C25.4592 35.99 26.0231 37.0015 25.1368 37.9286C24.4118 38.6029 25.7008 39.3615 25.298 39.7829C25.1368 39.9515 24.2506 39.7829 24.0894 39.9515C24.009 40.0357 24.009 40.2043 24.0894 40.2886C24.3312 40.3729 24.6534 40.2886 24.8952 40.2886C25.2174 40.3729 25.7814 40.6257 25.9425 40.6257C26.0231 40.6257 25.862 40.6257 25.7008 40.6257C25.8082 40.6819 25.8888 40.71 25.9425 40.71ZM26.7481 34.5571C26.7481 34.22 26.4259 33.63 26.2648 33.4615C26.1842 33.3771 25.9425 33.2086 25.9425 33.1243C26.1037 32.7871 27.3927 33.3771 27.6345 33.3771C29.1652 33.8829 28.279 32.7871 28.279 32.7871C29.3264 32.5343 28.4401 31.4386 28.4401 31.4386C29.7292 31.4386 30.2126 32.9557 31.7433 32.45C33.1935 32.0286 32.7907 34.1357 32.7907 35.5686C32.7907 35.7371 32.7101 35.9057 32.7907 35.99C33.2741 37.17 34.4826 36.6643 35.0466 35.6529C34.966 35.6529 34.4826 35.8215 34.402 34.0515C34.2408 32.1971 33.0324 32.6186 33.7575 31.9443C33.8112 31.9443 33.865 31.9443 33.9186 31.9443L32.3879 30.9329L32.4685 30.2586C28.7624 24.8643 25.0564 19.3857 21.3502 13.9915C21.2697 13.9915 21.2697 13.9915 21.2697 13.9915C21.8337 15.7615 22.3977 15.0871 21.5919 16.0143C20.8668 17.0257 21.8337 16.6043 21.8337 16.6043C23.0421 16.2671 22.3977 17.7843 22.3977 17.7843C23.445 17.7843 24.5728 18.9643 24.5728 18.9643C23.9284 18.6271 22.6393 18.0371 21.0279 18.5429C19.4972 18.9643 20.3834 19.8071 20.3834 19.8071C20.3834 19.8071 20.5446 18.88 21.4307 19.3857C22.6393 20.06 24.5728 19.2171 24.5728 19.2171C23.9284 20.3971 22.3171 20.8186 22.3171 20.8186C23.3644 21.5771 25.0564 20.2286 25.0564 20.2286C25.0564 20.2286 24.9758 22.5886 22.8005 21.5771C20.7057 20.65 19.2554 21.9143 19.2554 21.9143C19.2554 21.9143 21.5113 21.0715 22.2365 21.83C22.9615 22.5886 24.4118 22.42 24.4118 22.42C24.4118 23.6 25.298 24.19 25.298 24.19C25.862 24.5271 27.2317 24.6957 27.6345 24.8643C28.1179 24.9486 27.9567 24.9486 28.279 25.0329C28.3595 25.0329 28.5206 25.2015 28.5206 25.2015C28.4132 25.2015 28.279 25.1733 28.1179 25.1171C27.9567 25.2857 27.7955 25.5386 27.7955 26.0443C27.7151 27.2243 27.6345 27.3929 27.3121 27.9829C27.0705 28.4886 27.1511 29.2471 27.1511 29.2471C27.1511 29.2471 27.7151 29.3315 28.3595 29.7529C29.004 30.09 29.4874 30.0057 29.6486 29.8371C29.6486 29.8371 29.1652 30.4271 28.1984 30.0057C27.2317 29.5843 26.8287 29.5 26.8287 29.5C26.8287 29.5 26.7481 28.4886 27.0705 27.8986C27.6345 26.8029 27.2317 26.55 27.3927 25.7915C27.4465 25.4543 27.5539 25.2015 27.7151 25.0329C26.8287 24.8643 26.0231 24.78 25.2174 24.6115C24.4118 26.8871 24.8146 28.7415 24.8146 28.7415L26.3453 28.9943L24.4118 29.2471C24.4118 29.2471 23.6866 26.3815 24.4924 24.5271C24.009 24.6115 23.5255 24.6957 23.1227 24.9486C21.8337 25.5386 21.2697 26.2971 20.8668 28.4886C20.7863 29.2471 21.1891 31.1857 20.464 31.7757C21.0279 31.6915 22.3977 32.3657 23.1227 31.86C26.8287 29.6686 21.9947 29.3315 26.5871 30.2586C28.9234 30.68 31.6627 30.1743 31.6627 30.1743C30.2932 30.7643 26.9093 31.1015 26.9093 31.1015C26.9093 31.1015 26.6677 31.6915 25.9425 32.45C25.298 33.2086 24.4924 33.3771 25.4592 34.3886C25.862 34.81 26.0231 35.0629 26.1037 35.3157C26.6677 35.1471 26.6677 34.7257 26.7481 34.3886C26.7481 34.3886 26.7481 34.4729 26.7481 34.5571ZM36.5773 18.9643C36.6579 19.0486 36.7385 19.1329 36.7385 19.1329C36.5773 19.5543 35.8522 18.9643 35.6911 18.7957C35.6106 18.7115 34.0798 18.2057 34.0798 18.2057C34.7244 21.9143 36.4162 21.9143 36.8997 24.4429C36.9801 25.2857 37.8665 24.4429 38.3498 23.9371C38.511 23.7686 38.7526 23.6843 38.9138 23.7686C39.3166 23.9371 39.9612 25.5386 40.364 25.96C40.5251 26.2129 40.6863 26.4657 40.8474 26.8029C41.0085 27.2243 40.8474 27.6457 41.0085 27.9829C41.4919 28.8257 41.4113 29.5843 41.4113 29.5843C41.4113 29.5843 41.2502 29.7529 40.364 29.0786C39.4778 28.32 40.4446 28.1515 40.2028 27.2243C40.0418 26.2971 38.5915 25.1171 38.5915 25.1171L37.4635 26.2971C37.5441 26.2971 37.7053 26.2971 38.0275 26.2129C38.9138 26.1286 39.1554 27.2243 39.5584 28.4886C39.7194 29.1629 39.9612 29.5843 39.9612 30.09C40.0418 30.5115 40.0418 30.9329 40.2834 31.27C40.6863 32.0286 40.5251 32.8715 40.5251 32.8715C40.4446 32.9557 40.0418 32.7029 39.7194 32.45C39.4778 32.2815 39.236 31.9443 39.236 31.9443C39.236 31.9443 39.7194 30.9329 39.3972 30.5957C39.236 30.4271 39.075 30.1743 38.9944 30.0057C38.9944 29.8371 38.9944 29.6686 39.1554 29.5843C39.1554 29.5281 39.1554 29.4719 39.1554 29.4157C39.1554 29.1629 38.8332 28.4886 38.511 27.8143C38.511 27.8143 38.511 27.7862 38.511 27.73C38.511 27.73 38.4841 27.73 38.4304 27.73C38.1081 27.14 37.2219 27.0557 36.5773 27.0557C35.7717 27.0557 34.4826 27.6457 34.2408 27.0557C37.0607 25.0329 35.6911 23.8529 34.6438 21.4086C34.2408 20.3971 33.838 19.2171 33.5158 18.0371C32.5491 16.7729 33.3547 16.2671 33.3547 16.2671C33.3547 16.2671 32.8713 17.8686 34.1604 17.8686C34.966 17.7843 35.8523 19.0486 36.5773 18.9643ZM37.4635 26.2971C37.3025 26.3815 37.4635 26.3815 37.4635 26.3815V26.2971ZM26.6677 34.5571C26.6677 34.5571 26.6677 34.5291 26.6677 34.4729C26.6677 34.4729 26.6677 34.5009 26.6677 34.5571ZM22.8005 14.9186C22.8005 14.9186 24.2506 13.9072 25.7008 14.8343C27.2317 15.7615 28.5206 15.5929 28.5206 15.5929C28.5206 15.5929 27.1511 16.9415 25.7814 16.0143C24.17 14.8343 23.6866 14.8343 22.8005 14.9186ZM20.2224 31.86C21.1085 30.68 20.464 28.91 20.7057 27.4771C20.7863 26.8029 21.1085 25.96 21.5919 25.37C20.0612 24.9486 19.0944 26.1286 18.5304 28.32C19.5778 29.5 19.5778 31.1857 18.8526 32.5343C18.5304 33.2929 18.2081 33.4615 18.9332 33.8829C19.0138 33.63 19.0944 33.4615 19.2554 33.2086C19.2554 33.04 19.2554 32.9557 19.2554 32.7871C19.4166 32.3657 19.9 32.1971 20.2224 31.86ZM20.2224 31.86C20.3028 31.86 20.3834 31.86 20.3834 31.7757C20.3834 31.7757 20.4103 31.7757 20.464 31.7757C20.3566 31.7757 20.276 31.8038 20.2224 31.86ZM27.1511 11.7157C27.1511 11.7157 26.6677 12.3057 26.7481 13.4015C26.7481 13.4015 26.2648 14.4129 27.3121 15.0871C27.3121 15.0871 26.2648 14.4129 25.3786 14.3286C24.4924 14.16 23.9284 14.2443 23.5255 14.5815C24.009 13.9072 25.4592 13.8229 26.2648 14.16C26.2648 14.16 26.2648 13.9072 26.5065 13.57C26.5065 13.57 26.2648 12.39 27.1511 11.7157ZM27.8761 28.7415C27.8761 28.7415 28.3595 28.1515 28.9234 28.91C29.568 29.6686 29.568 29.7529 29.568 29.7529C29.568 29.7529 29.4874 29.6686 28.7624 28.9943C28.1984 28.4886 27.8761 28.7415 27.8761 28.7415ZM21.6725 37.2543C21.7531 36.4115 22.7199 36.7486 22.8005 36.7486C22.8005 36.7486 22.5587 36.7486 22.3171 36.8329C22.1559 37.0015 22.0753 37.3386 22.3171 37.5071C22.8005 37.76 22.9615 37.17 22.9615 37.17C23.0421 37.2543 23.0421 37.9286 22.3977 38.0129C21.9947 38.0129 21.5919 37.6757 21.6725 37.2543ZM35.2078 28.6571C36.5773 27.9829 38.1081 27.14 38.4304 27.6457C38.4304 27.6457 38.4304 27.6738 38.4304 27.73C38.4304 27.6457 37.8665 27.6457 37.3831 27.8143C35.9328 28.4043 34.6438 29.4157 33.0324 29.6686C33.2741 29.5 34.2408 29.0786 35.2078 28.6571ZM28.6818 10.2829C28.7624 10.7043 28.6012 11.21 28.3595 11.5472C28.3595 11.5472 28.3595 11.5472 27.8761 11.5472C28.4401 10.9572 28.3595 9.94574 27.3927 10.2829C26.2648 10.7886 24.9758 10.5357 24.9758 10.5357C25.298 11.1257 26.6677 10.8729 26.3453 11.21C25.5397 11.8 24.6534 11.21 24.6534 11.21C25.2174 11.3786 25.6203 11.1257 25.6203 11.1257C24.8146 10.9572 24.6534 10.3672 24.6534 10.3672C24.734 10.4515 26.3453 10.62 27.7151 9.77716C28.279 9.35574 28.5206 9.69288 28.6818 10.1143C28.7355 10.1143 28.7892 10.1143 28.843 10.1143C29.0846 10.2829 29.3264 10.62 28.7624 11.4629C28.7624 11.5472 28.6012 11.6315 28.5206 11.6315C28.5206 11.6315 28.5206 11.6315 28.5206 11.5472C28.6818 11.3786 28.9234 10.7886 28.843 10.5357C28.843 10.3672 28.7624 10.2829 28.6818 10.2829ZM28.279 39.9515C28.4401 39.9515 28.4401 39.6986 28.279 39.6986C28.279 39.6424 28.2253 39.6143 28.1179 39.6143H28.1984C28.1179 39.6143 27.7955 39.53 27.7151 39.4457L27.5539 39.3615C27.5539 39.3053 27.5271 39.2771 27.4733 39.2771C27.4733 39.1929 27.1511 38.94 27.1511 38.8557L26.9899 38.6029C26.9361 38.6029 26.9093 38.5748 26.9093 38.5186C26.9093 38.4343 26.7481 38.35 26.6677 38.35L26.5871 38.2657C26.4259 38.0971 26.1842 38.1815 26.1842 38.4343C26.1842 38.5186 26.1842 38.5186 26.1842 38.6871C26.2379 38.7433 26.2648 38.7995 26.2648 38.8557C26.1037 38.7715 26.1037 38.6871 26.1037 38.5186C25.9425 38.6871 25.862 38.7715 25.9425 38.94L26.2648 39.2771C26.3185 39.2209 26.3453 39.1367 26.3453 39.0243C26.9093 40.0357 27.5539 39.6143 28.279 39.9515ZM21.5919 34.9786C22.5587 35.1471 23.5255 34.8943 24.734 35.2315C24.8952 34.9786 25.0564 34.4729 24.2506 33.9671C23.2033 33.2086 22.881 33.7143 23.6061 32.9557C24.2506 32.1971 24.4118 31.27 24.4118 31.27C24.4118 31.27 22.4781 32.45 21.1085 32.8715C20.464 33.04 19.9 33.63 19.4972 34.3043C20.2224 34.81 20.7057 34.81 21.5919 34.9786ZM28.7624 12.6429C28.7624 12.6429 27.9567 12.2215 27.2317 12.6429C27.2317 12.6429 27.3121 14.6657 28.4401 14.4129C28.4401 14.4129 26.9899 15.8457 27.0705 12.5586C27.0705 12.5586 28.0373 11.8843 28.7624 12.6429ZM28.4401 16.4357C28.4401 16.4357 28.6012 18.88 27.3927 18.7115C26.1842 18.5429 25.5397 18.1215 25.5397 18.1215C25.5397 18.1215 26.8287 18.7115 27.6345 17.8686C28.279 17.1943 28.4401 16.4357 28.4401 16.4357ZM18.2081 35.1471C18.2081 35.2315 18.6915 35.5686 18.7721 35.5686C18.6915 35.6529 18.6915 35.7371 18.611 35.9057C18.611 35.99 18.611 36.0743 18.611 36.2429C18.611 36.6643 19.2554 37.17 19.8194 37.76C20.0612 38.1815 20.2224 38.4343 20.1418 38.7715C19.9 38.8557 18.9332 38.8557 18.7721 38.5186C18.6646 38.2377 18.6646 38.0129 18.7721 37.8443C18.6915 37.17 18.2081 36.58 18.047 36.0743C17.9665 35.8215 18.1275 35.4843 18.2081 35.2315C18.2081 35.2315 18.2081 35.2033 18.2081 35.1471Z" fill="white"/>
<path fill-rule="evenodd" clip-rule="evenodd" d="M134.063 44.5873C134.117 44.6997 134.144 44.7839 134.144 44.8401C134.144 45.0929 133.983 45.3459 133.741 45.3459H131.968C131.727 45.3459 131.566 45.1773 131.566 45.0087L130.841 42.9859H127.054L126.409 45.0087C126.329 45.1773 126.168 45.3459 126.007 45.3459H124.234C124.073 45.3459 123.965 45.2897 123.912 45.1773C123.858 45.1211 123.831 45.0649 123.831 45.0087C123.831 45.0087 123.831 44.9806 123.831 44.9245C123.831 44.8683 123.831 44.8401 123.831 44.8401C123.831 44.7839 123.831 44.7559 123.831 44.7559L127.94 33.1245C127.94 33.0683 127.94 33.0401 127.94 33.0401C127.994 32.9839 128.047 32.9277 128.101 32.8715C128.101 32.8715 128.128 32.8715 128.182 32.8715C128.235 32.8715 128.289 32.8715 128.343 32.8715L129.632 32.7873C129.686 32.7873 129.739 32.8153 129.793 32.8715C129.847 32.8715 129.874 32.8715 129.874 32.8715C129.927 32.9277 129.981 32.9839 130.035 33.0401C130.035 33.0401 130.035 33.0683 130.035 33.1245L134.063 44.5873ZM130.115 40.5415L129.068 37.2545L127.94 40.5415H130.115ZM123.992 41.4687C123.885 42.0868 123.697 42.6487 123.428 43.1545C123.16 43.6601 122.837 44.0815 122.462 44.4187C122.086 44.7559 121.656 45.0087 121.173 45.1773C120.689 45.3459 120.179 45.4301 119.642 45.4301C118.997 45.4301 118.406 45.3177 117.869 45.0929C117.332 44.8121 116.849 44.4468 116.419 43.9973C116.097 43.7163 115.855 43.3791 115.694 42.9859C115.533 42.6487 115.425 42.2835 115.372 41.8901C115.264 41.4968 115.211 41.0473 115.211 40.5415C115.211 40.0921 115.211 39.5863 115.211 39.0245C115.211 38.5187 115.211 38.0129 115.211 37.5073C115.211 37.0577 115.264 36.6363 115.372 36.2429C115.425 35.8497 115.533 35.4563 115.694 35.0629C115.855 34.7259 116.097 34.3887 116.419 34.0515C116.527 33.9391 116.634 33.8549 116.741 33.7987C116.849 33.6863 116.956 33.5739 117.064 33.4615C117.171 33.4053 117.305 33.3491 117.466 33.2929C117.574 33.1806 117.708 33.0963 117.869 33.0401C118.406 32.8153 118.997 32.7029 119.642 32.7029C120.77 32.7029 121.71 33.0401 122.462 33.7145C123.267 34.3887 123.777 35.3721 123.992 36.6645C123.992 36.7768 123.965 36.8891 123.912 37.0015C123.804 37.1139 123.697 37.1701 123.589 37.1701H121.817C121.656 37.1701 121.495 37.0859 121.414 36.8329C121.307 36.3273 121.092 35.9339 120.77 35.6529C120.501 35.3721 120.125 35.2315 119.642 35.2315C119.373 35.2315 119.105 35.2597 118.836 35.3159C118.621 35.4283 118.433 35.5687 118.272 35.7373C118.165 35.8497 118.084 35.9901 118.03 36.1587C117.977 36.2711 117.923 36.4397 117.869 36.6645C117.815 36.9453 117.789 37.2545 117.789 37.5915C117.735 37.9849 117.708 38.4906 117.708 39.1087C117.708 39.6706 117.735 40.1483 117.789 40.5415C117.789 40.8787 117.815 41.1877 117.869 41.4687C117.923 41.6373 117.977 41.8059 118.03 41.9745C118.084 42.1429 118.165 42.2835 118.272 42.3959C118.433 42.5645 118.621 42.7049 118.836 42.8173C119.105 42.8735 119.373 42.9015 119.642 42.9015C120.125 42.9015 120.528 42.7611 120.85 42.4801C121.119 42.1991 121.307 41.8059 121.414 41.3001C121.495 41.0473 121.656 40.9629 121.898 40.9629H123.589C123.589 40.9629 123.616 40.9629 123.67 40.9629C123.724 40.9629 123.751 40.9629 123.751 40.9629C123.804 40.9629 123.831 40.9911 123.831 41.0473C123.885 41.0473 123.912 41.0753 123.912 41.1315C123.965 41.1877 123.992 41.3001 123.992 41.4687ZM114.163 33.2087V34.8101C114.163 35.0629 114.002 35.3159 113.76 35.3159H108.765V37.7601H112.955C113.196 37.7601 113.357 37.9287 113.357 38.1815V39.7829C113.357 40.0359 113.196 40.2045 112.955 40.2045H108.765V42.8173H113.76C114.002 42.8173 114.163 42.9859 114.163 43.2387V44.8401C114.163 45.0929 114.002 45.2615 113.76 45.2615H106.67C106.429 45.2615 106.268 45.0929 106.268 44.8401V33.2929C106.268 33.0401 106.429 32.7873 106.67 32.7873H113.76C114.002 32.7873 114.163 33.0401 114.163 33.2087ZM104.173 33.2929V44.8401C104.173 45.0929 104.012 45.2615 103.77 45.2615H102.078C101.836 45.2615 101.675 45.0929 101.675 44.8401V40.2045H98.0499V44.8401C98.0499 45.0929 97.8081 45.2615 97.5665 45.2615H95.9551C95.7134 45.2615 95.4716 45.0929 95.4716 44.8401V33.2929C95.4716 33.0401 95.7134 32.7873 95.9551 32.7873H97.5665C97.8081 32.7873 98.0499 33.0401 98.0499 33.2929V37.7601H101.675V33.2929C101.675 33.0401 101.836 32.7873 102.078 32.7873H103.77C104.012 32.7873 104.173 33.0401 104.173 33.2929ZM93.3769 39.6145C93.6992 40.1201 93.8603 40.7663 93.8603 41.5529C93.8603 42.1711 93.7529 42.7049 93.5381 43.1545C93.3233 43.6601 93.0009 44.0815 92.5713 44.4187C92.1953 44.6997 91.7655 44.9525 91.2822 45.1773C90.7451 45.3459 90.1812 45.4301 89.5902 45.4301C89.0532 45.4301 88.5429 45.3459 88.0595 45.1773C87.5761 45.0087 87.1465 44.7277 86.7705 44.3345C86.3945 43.9973 86.0722 43.6039 85.8036 43.1545C85.5352 42.6487 85.3472 42.0868 85.2396 41.4687C85.2396 41.4125 85.2666 41.3563 85.3202 41.3001C85.3202 41.2439 85.3472 41.1877 85.4008 41.1315C85.4008 41.0753 85.4276 41.0191 85.4814 40.9629C85.5888 40.9629 85.6694 40.9629 85.7231 40.9629H87.4149C87.4687 40.9629 87.4955 40.9629 87.4955 40.9629C87.5493 41.0191 87.6029 41.0473 87.6567 41.0473C87.7105 41.1035 87.7373 41.1315 87.7373 41.1315C87.7909 41.1877 87.8179 41.2439 87.8179 41.3001C87.9253 41.8059 88.1401 42.1991 88.4623 42.4801C88.7309 42.8173 89.1338 42.9859 89.6708 42.9859C90.1542 42.9859 90.5571 42.8453 90.8794 42.5645C91.1479 42.2835 91.2822 41.9183 91.2822 41.4687C91.2822 41.0191 91.1747 40.6821 90.9599 40.4573C90.6914 40.2325 90.2886 40.1201 89.7514 40.1201H88.3818C88.1401 40.1201 87.8983 39.8673 87.8983 39.6145V38.1815C87.8983 37.9287 88.1401 37.7601 88.3818 37.7601H89.832C90.2616 37.7601 90.584 37.6477 90.7988 37.4229C91.0136 37.1983 91.1211 36.8611 91.1211 36.4115C91.1211 36.0183 91.0136 35.7091 90.7988 35.4845C90.5302 35.2597 90.1542 35.1473 89.6708 35.1473C89.1338 35.1473 88.7309 35.2877 88.4623 35.5687C88.1401 35.9059 87.9253 36.3273 87.8179 36.8329C87.7373 37.0015 87.5761 37.1701 87.4149 37.1701H85.7231C85.562 37.1701 85.4546 37.1139 85.4008 37.0015C85.2934 36.8891 85.2396 36.7768 85.2396 36.6645C85.3472 35.9901 85.5352 35.4283 85.8036 34.9787C86.0722 34.4729 86.3945 34.0515 86.7705 33.7145C87.1465 33.3773 87.5761 33.1245 88.0595 32.9559C89.1068 32.6187 90.2348 32.6187 91.2016 32.9559C91.7387 33.1245 92.1685 33.3491 92.4907 33.6301C92.7055 33.7987 92.8935 33.9953 93.0547 34.2201C93.1621 34.3887 93.2695 34.5853 93.3769 34.8101C93.4843 35.0349 93.5649 35.2877 93.6186 35.5687C93.6723 35.7935 93.6992 36.0463 93.6992 36.3273C93.6992 37.0015 93.5381 37.5915 93.2158 38.0973C93.0547 38.3783 92.8399 38.6311 92.5713 38.8559C92.8935 39.0806 93.1621 39.3335 93.3769 39.6145ZM83.9506 33.2929V44.8401C83.9506 45.0929 83.7089 45.2615 83.4672 45.2615H81.8559C81.6141 45.2615 81.3725 45.0929 81.3725 44.8401V38.0129L77.2635 45.0929C77.1561 45.2053 77.0219 45.2615 76.8607 45.2615H75.33C75.0882 45.2615 74.9272 45.0929 74.9272 44.8401V33.2929C74.9272 33.0401 75.0882 32.7873 75.33 32.7873H77.0219C77.2635 32.7873 77.4247 33.0401 77.4247 33.2929V40.0359L81.6141 33.0401C81.6947 32.8715 81.7753 32.7873 81.9365 32.7873H83.4672C83.7089 32.7873 83.9506 33.0401 83.9506 33.2929ZM73.0741 39.6987C73.2889 40.2045 73.3963 40.7383 73.3963 41.3001C73.3963 41.9183 73.2889 42.4521 73.0741 42.9015C72.9129 43.4073 72.6713 43.8568 72.3489 44.2501C71.9729 44.5873 71.5433 44.8401 71.0599 45.0087C70.5766 45.2335 70.0394 45.3459 69.4486 45.3459H65.098C64.9368 45.3459 64.6952 45.0929 64.6952 44.8401V33.2929C64.6952 33.0401 64.9368 32.7873 65.1786 32.7873H72.2685C72.5101 32.7873 72.6713 33.0401 72.6713 33.2929V34.8101C72.6713 35.0629 72.5101 35.3159 72.2685 35.3159H67.1927V37.3387H69.4486C70.0394 37.3387 70.5766 37.4511 71.0599 37.6759C71.5433 37.8445 71.9461 38.1253 72.2685 38.5187C72.6443 38.8559 72.9129 39.2491 73.0741 39.6987ZM70.8182 41.3001C70.872 40.8507 70.7646 40.4853 70.496 40.2045C70.2274 39.9797 69.8514 39.8673 69.368 39.8673H67.1927V42.8173H69.368C69.8514 42.8173 70.2274 42.7049 70.496 42.4801C70.7108 42.1991 70.8182 41.8059 70.8182 41.3001ZM193.682 15.7615C193.36 15.7615 193.038 16.0987 193.038 16.5201V17.5315C193.038 17.6439 193.038 17.7283 193.038 17.7845C193.092 17.8968 193.146 17.9811 193.199 18.0373C193.307 18.0935 193.387 18.1497 193.441 18.2059C193.548 18.2621 193.628 18.2901 193.682 18.2901H196.502C197.147 18.2901 197.631 18.7959 197.631 19.4701V19.5545C197.631 20.2287 197.147 20.7345 196.502 20.7345H193.682C193.36 20.7345 193.038 21.0715 193.038 21.4929V22.5887C193.038 22.7011 193.038 22.7853 193.038 22.8415C193.092 22.9539 193.146 23.0383 193.199 23.0945C193.307 23.1506 193.387 23.2068 193.441 23.2629C193.548 23.2629 193.628 23.2911 193.682 23.3473H197.308C197.953 23.3473 198.435 23.8529 198.435 24.5273V24.6115C198.435 25.2859 197.953 25.7915 197.308 25.7915H191.588C191.024 25.7915 190.46 25.2859 190.46 24.6115V14.4973C190.46 13.823 191.024 13.3173 191.588 13.3173H197.308C197.953 13.3173 198.435 13.823 198.435 14.4973V15.3401C198.435 15.5929 198.275 15.7615 198.033 15.7615H193.682ZM189.413 13.7387V14.5815C189.413 15.2559 188.929 15.7615 188.285 15.7615H187.076C186.673 15.7615 186.352 16.0987 186.352 16.5201V24.6115C186.352 25.2859 185.867 25.7915 185.222 25.7915H184.981C184.338 25.7915 183.853 25.2859 183.853 24.6115V16.5201C183.853 16.0987 183.532 15.7615 183.128 15.7615H181.92C181.275 15.7615 180.792 15.2559 180.792 14.5815V14.4973C180.792 13.823 181.275 13.3173 181.92 13.3173H189.009C189.252 13.3173 189.413 13.4858 189.413 13.7387ZM170.721 25.3701V14.4973C170.721 13.823 171.205 13.3173 171.849 13.3173H172.091C172.735 13.3173 173.219 13.823 173.219 14.4973V17.9529C173.219 18.7115 174.105 18.9645 174.507 18.3745L177.166 13.823C177.408 13.4858 177.731 13.3173 178.133 13.3173H178.616C179.18 13.3173 179.745 13.823 179.745 14.4973V24.6115C179.745 25.2859 179.18 25.7915 178.616 25.7915H178.294C177.731 25.7915 177.166 25.2859 177.166 24.6115V21.0715C177.166 20.3129 176.28 20.0601 175.878 20.7345L173.219 25.2015C172.978 25.5387 172.654 25.7915 172.252 25.7915H171.124C170.882 25.7915 170.721 25.5387 170.721 25.3701ZM154.849 25.3701V14.4973C154.849 13.823 155.333 13.3173 155.978 13.3173H156.219C156.864 13.3173 157.347 13.823 157.347 14.4973V22.5887C157.347 23.0101 157.669 23.2629 158.072 23.2629H159.602C160.006 23.2629 160.328 23.0101 160.328 22.5887V14.4973C160.328 13.823 160.812 13.3173 161.455 13.3173H161.698C162.342 13.3173 162.826 13.823 162.826 14.4973V22.5887C162.826 22.6449 162.853 22.7291 162.906 22.8415C162.96 22.9539 163.013 23.0383 163.067 23.0945C163.121 23.1506 163.201 23.2068 163.308 23.2629C163.362 23.2629 163.443 23.2629 163.551 23.2629H165.001C165.404 23.2629 165.726 23.0101 165.726 22.5887V14.4973C165.726 13.823 166.209 13.3173 166.854 13.3173H167.176C167.821 13.3173 168.305 13.823 168.305 14.4973V23.3473H169.191C169.432 23.3473 169.593 23.5159 169.593 23.7687V27.9829C169.593 28.1515 169.432 28.4045 169.191 28.4045H167.499C167.256 28.4045 167.095 28.1515 167.095 27.9829V26.5501C167.095 26.1287 166.773 25.7915 166.371 25.7915H155.333C155.092 25.7915 154.849 25.5387 154.849 25.3701ZM152.433 25.7915C151.949 25.7915 151.546 25.4545 151.385 25.0329L151.062 23.9373C150.901 23.6845 150.66 23.4315 150.338 23.4315H147.599C147.276 23.4315 147.034 23.6845 146.954 23.9373L146.552 25.0329C146.389 25.4545 145.987 25.7915 145.504 25.7915H144.214C144.134 25.7915 143.973 25.7073 143.893 25.6229C143.785 25.4545 143.758 25.3139 143.812 25.2015L147.76 14.0758C147.921 13.5701 148.324 13.3173 148.807 13.3173H149.209C149.613 13.3173 150.095 13.5701 150.258 14.0758L154.044 25.0329C154.098 25.1453 154.125 25.2577 154.125 25.3701C154.125 25.6229 153.963 25.7915 153.721 25.7915H152.433ZM147.84 21.0715H149.129C149.613 21.0715 149.935 20.5659 149.774 20.0601L149.693 19.7229C149.452 19.0487 148.566 19.0487 148.324 19.7229L147.84 21.0715ZM142.2 24.8645C141.825 25.2015 141.368 25.4545 140.831 25.6229C140.347 25.7915 139.81 25.8759 139.219 25.8759C138.682 25.8759 138.172 25.7915 137.689 25.6229C137.205 25.4545 136.776 25.2015 136.4 24.8645C136.024 24.5273 135.701 24.1059 135.433 23.6001C135.164 23.1506 134.976 22.6168 134.869 21.9987C134.869 21.8301 134.896 21.6897 134.949 21.5773C135.057 21.4649 135.164 21.4087 135.272 21.4087H136.48C136.883 21.4087 137.366 21.8301 137.527 22.2515C137.635 22.5325 137.796 22.7853 138.011 23.0101C138.333 23.2911 138.736 23.4315 139.219 23.4315C139.757 23.4315 140.186 23.2911 140.509 23.0101C140.777 22.7853 140.911 22.4483 140.911 21.9987C140.911 21.4929 140.804 21.1277 140.589 20.9029C140.321 20.6783 139.918 20.5659 139.381 20.5659H138.655C138.011 20.5659 137.527 20.0601 137.527 19.3859C137.527 18.7115 138.011 18.2059 138.655 18.2059H139.461C139.891 18.2059 140.213 18.0935 140.428 17.8687C140.643 17.6439 140.75 17.3068 140.75 16.8573C140.75 16.4639 140.643 16.1549 140.428 15.9301C140.159 15.7053 139.783 15.5929 139.3 15.5929C138.763 15.5929 138.36 15.7335 138.091 16.0145C137.877 16.2391 137.715 16.5201 137.608 16.8573C137.447 17.2787 136.964 17.6159 136.48 17.6159H135.352C135.191 17.6159 135.111 17.5315 135.03 17.4473C134.923 17.3349 134.869 17.2225 134.869 17.1101C134.976 16.4921 135.164 15.9301 135.433 15.4245C135.701 14.9187 136.024 14.4973 136.4 14.1601C136.776 13.823 137.205 13.5701 137.689 13.4015C138.736 13.0644 139.864 13.0644 140.831 13.4015C141.368 13.5701 141.798 13.823 142.12 14.1601C142.227 14.2163 142.308 14.2725 142.361 14.3287C142.468 14.4411 142.549 14.5534 142.603 14.6658C142.711 14.722 142.792 14.8063 142.845 14.9187C142.899 15.0311 142.953 15.1435 143.006 15.2559C143.221 15.7053 143.328 16.2111 143.328 16.7729C143.328 17.4473 143.167 18.0373 142.845 18.5429C142.684 18.8239 142.468 19.0768 142.2 19.3015C142.522 19.5263 142.765 19.7791 142.926 20.0601C143.301 20.6221 143.489 21.2963 143.489 22.0829C143.489 22.6449 143.382 23.1506 143.167 23.6001C142.953 24.1059 142.631 24.5273 142.2 24.8645ZM124.073 13.4858C125.12 13.0644 126.49 13.0644 127.618 13.4858C127.725 13.542 127.833 13.6263 127.94 13.7387C128.101 13.7949 128.235 13.8792 128.343 13.9915C128.45 14.0477 128.585 14.132 128.746 14.2444C128.853 14.3568 128.961 14.4692 129.068 14.5815C129.551 15.0873 129.874 15.7053 130.035 16.4359C130.142 17.1101 130.223 17.8687 130.277 18.7115V19.7229C130.277 20.1725 130.25 20.6221 130.196 21.0715C130.196 21.5211 130.169 21.9425 130.115 22.3359C130.008 22.7291 129.874 23.0945 129.713 23.4315C129.551 23.8249 129.337 24.1901 129.068 24.5273C128.182 25.3701 127.134 25.8759 125.845 25.8759C124.503 25.8759 123.428 25.4263 122.623 24.5273C122.3 24.1901 122.059 23.8249 121.898 23.4315C121.736 23.0945 121.629 22.7011 121.575 22.2515C121.468 21.8583 121.414 21.4368 121.414 20.9873C121.414 20.5939 121.414 20.1725 121.414 19.7229V18.9645C121.414 18.5149 121.414 18.0653 121.414 17.6159C121.468 17.2225 121.522 16.8573 121.575 16.5201C121.683 16.1268 121.817 15.7615 121.978 15.4245C122.139 15.1435 122.354 14.8625 122.623 14.5815C123.052 14.132 123.536 13.7668 124.073 13.4858ZM124.476 16.2673C124.261 16.4921 124.127 16.8573 124.073 17.3629C124.019 17.8687 123.992 18.4868 123.992 19.2173V20.2287C123.939 20.5097 123.939 20.7906 123.992 21.0715C123.992 21.3525 124.019 21.6053 124.073 21.8301C124.073 21.8863 124.073 21.9425 124.073 21.9987C124.073 21.9987 124.073 22.0268 124.073 22.0829C124.127 22.1391 124.153 22.1953 124.153 22.2515C124.153 22.3077 124.18 22.3639 124.234 22.4201C124.288 22.5887 124.368 22.7291 124.476 22.8415C124.852 23.2349 125.308 23.4315 125.845 23.4315C126.383 23.4315 126.812 23.2349 127.134 22.8415C127.296 22.6729 127.403 22.5045 127.457 22.3359C127.51 22.1673 127.564 21.9425 127.618 21.6615C127.671 21.3806 127.698 21.0715 127.698 20.7345C127.698 20.3411 127.698 19.8915 127.698 19.3859C127.698 18.9925 127.698 18.5991 127.698 18.2059C127.698 17.8687 127.671 17.5877 127.618 17.3629C127.564 17.0821 127.51 16.8573 127.457 16.6887C127.403 16.5201 127.296 16.3797 127.134 16.2673C126.812 15.8739 126.383 15.6773 125.845 15.6773C125.577 15.6773 125.308 15.7335 125.04 15.8459C124.825 15.9021 124.637 16.0425 124.476 16.2673ZM119.803 13.7387V24.6115C119.803 25.2859 119.239 25.7915 118.675 25.7915H118.353C117.708 25.7915 117.225 25.2859 117.225 24.6115V16.5201C117.225 16.0987 116.902 15.7615 116.5 15.7615H114.244C113.921 15.7615 113.599 16.0987 113.599 16.5201V24.6115C113.599 25.2015 113.035 25.7915 112.471 25.7915H112.149C111.585 25.7915 111.102 25.2859 111.102 24.6115V14.4973C111.102 13.823 111.585 13.3173 112.149 13.3173H119.319C119.561 13.3173 119.803 13.4858 119.803 13.7387ZM97.6469 25.2859V13.6544C97.6469 13.4015 97.8081 13.233 98.0499 13.233H105.22C105.462 13.233 105.623 13.4015 105.623 13.6544V15.2559C105.623 15.5087 105.462 15.6773 105.22 15.6773H100.145V17.7845H102.4C102.991 17.7845 103.528 17.8687 104.012 18.0373C104.119 18.0935 104.227 18.1497 104.334 18.2059C104.441 18.2621 104.549 18.3183 104.656 18.3745C104.764 18.4868 104.871 18.5711 104.979 18.6273C105.086 18.7397 105.167 18.8239 105.22 18.8801C105.596 19.2173 105.865 19.6387 106.026 20.1445C106.241 20.6501 106.348 21.1839 106.348 21.7459C106.348 22.3077 106.241 22.8415 106.026 23.3473C105.865 23.8529 105.596 24.2745 105.22 24.6115C105.167 24.7239 105.086 24.8083 104.979 24.8645C104.871 24.9768 104.764 25.0611 104.656 25.1173C104.549 25.1735 104.441 25.2297 104.334 25.2859C104.227 25.3421 104.119 25.3983 104.012 25.4545C103.528 25.6229 102.991 25.7073 102.4 25.7073H98.1303C97.8887 25.7073 97.6469 25.5387 97.6469 25.2859ZM100.225 23.2629H102.32C102.803 23.2629 103.179 23.1225 103.448 22.8415C103.716 22.6168 103.851 22.2515 103.851 21.7459C103.851 21.2963 103.716 20.9311 103.448 20.6501C103.179 20.3691 102.803 20.2287 102.32 20.2287H100.225V23.2629ZM86.6093 25.2015L90.7182 13.5701C90.7182 13.5139 90.7182 13.4858 90.7182 13.4858C90.772 13.4296 90.8256 13.3734 90.8794 13.3173C90.8794 13.3173 90.9062 13.3173 90.9599 13.3173C91.0136 13.2611 91.0674 13.2611 91.1211 13.3173H92.4907C92.4907 13.2611 92.5175 13.2611 92.5713 13.3173C92.6249 13.3173 92.6787 13.3173 92.7323 13.3173C92.7323 13.3734 92.7593 13.4296 92.8129 13.4858C92.8129 13.4858 92.8399 13.5139 92.8935 13.5701L96.8413 25.0329C96.895 25.1453 96.9219 25.2577 96.9219 25.3701C96.9219 25.5387 96.7607 25.7915 96.519 25.7915H94.7466C94.5854 25.7915 94.4242 25.6229 94.3436 25.4545L93.6992 23.4315H89.9126L89.1874 25.4545C89.1874 25.6229 89.0263 25.7915 88.7846 25.7915H87.0121C86.9315 25.7915 86.7705 25.7073 86.6899 25.6229C86.6093 25.4545 86.6093 25.2859 86.6093 25.2015ZM90.7182 21.0715H92.8935L91.8461 17.7001L90.7182 21.0715ZM87.3345 15.7615H84.7562V25.3701C84.7562 25.6229 84.5146 25.7915 84.2728 25.7915H82.6615C82.4199 25.7915 82.1781 25.6229 82.1781 25.3701V15.7615H79.6C79.3582 15.7615 79.1166 15.5929 79.1166 15.3401V13.7387C79.1166 13.4858 79.3582 13.3173 79.6 13.3173H87.3345C87.5761 13.3173 87.8179 13.4858 87.8179 13.7387V15.3401C87.8179 15.5929 87.5761 15.7615 87.3345 15.7615ZM64.6952 25.3701V13.7387C64.6952 13.4858 64.8562 13.3173 65.098 13.3173H66.7899C67.0315 13.3173 67.1927 13.4858 67.1927 13.7387V23.3473H70.0932V13.7387C70.0932 13.4858 70.3348 13.3173 70.5766 13.3173H72.2685C72.5101 13.3173 72.6713 13.4858 72.6713 13.7387V23.3473H75.5716V13.7387C75.5716 13.4858 75.7328 13.3173 75.9745 13.3173H77.6665C77.9081 13.3173 78.0693 13.4858 78.0693 13.7387V25.3701C78.0693 25.6229 77.9081 25.7915 77.6665 25.7915H65.098C64.8562 25.7915 64.6952 25.6229 64.6952 25.3701Z" fill="white"/>
</g>
</g>
<defs>
<clipPath id="clip0_1_229">
<rect width="199" height="59" fill="white"/>
</clipPath>
</defs>
</svg>
