<svg width="125" height="66" viewBox="0 0 125 66" fill="none" xmlns="http://www.w3.org/2000/svg">
<g clip-path="url(#clip0_1_239)">
<path d="M7.00456 0.375312C6.40863 0.128155 5.71184 0 4.91419 0C3.97903 0 3.18139 0.146463 2.52127 0.430235C1.86116 0.714008 1.3294 0.997781 0.944331 1.28155L1.82449 2.65464C1.98952 2.53566 2.21872 2.38918 2.51211 2.21526C2.80549 2.04133 3.15389 1.89487 3.55728 1.76671C3.96069 1.63856 4.40994 1.57448 4.91419 1.57448C5.48262 1.57448 5.99606 1.70264 6.43613 1.9681C6.87621 2.23357 7.1054 2.62719 7.1054 3.14895V4.8882C6.83954 4.71429 6.51864 4.54952 6.1244 4.40304C5.64767 4.22912 5.07924 4.14674 4.41912 4.14674C3.52063 4.14674 2.73214 4.28404 2.07203 4.56782C1.41191 4.84244 0.898491 5.23606 0.540927 5.74869C0.183366 6.2613 0 6.88378 0 7.61608C0 8.34841 0.165029 8.9068 0.485918 9.3828C0.806809 9.8588 1.23772 10.2158 1.77864 10.4538C2.31957 10.6918 2.91552 10.8108 3.55728 10.8108C4.28159 10.8108 4.93253 10.6827 5.5193 10.4355C6.10607 10.1883 6.57365 9.83135 6.93123 9.35533C6.9954 9.27295 7.05041 9.17226 7.09625 9.08073V10.582H8.9024V3.14895C8.9024 2.47157 8.73736 1.90402 8.39815 1.43717C8.05891 0.970319 7.59132 0.613316 7.00456 0.366158V0.375312ZM6.71117 8.08294C6.44531 8.47657 6.07857 8.76032 5.62015 8.93425C5.15256 9.11734 4.62081 9.20887 4.01571 9.20887C3.61229 9.20887 3.24556 9.14479 2.91552 9.01665C2.58546 8.88849 2.31957 8.7054 2.12704 8.44909C1.93451 8.20195 1.83366 7.89986 1.83366 7.5337C1.83366 7.11263 1.93451 6.75561 2.12704 6.45354C2.31957 6.15145 2.62214 5.9226 3.01637 5.75783C3.4106 5.59305 3.91486 5.51068 4.51996 5.51068C5.18008 5.51068 5.77601 5.59305 6.2986 5.76698C6.57365 5.85854 6.83954 5.97752 7.11458 6.11484V6.52676C7.11458 7.17669 6.98622 7.68932 6.72035 8.08294H6.71117Z" fill="white"/>
<path d="M12.5607 10.5819H14.3669V1.91309H18.0892V0.22876H12.5607V10.5819Z" fill="white"/>
<path d="M26.8633 0.649931C26.1298 0.219695 25.2681 0 24.2963 0C23.4068 0 22.6092 0.183079 21.8941 0.540083C21.179 0.897088 20.6013 1.40055 20.1429 2.05049C19.6937 2.69127 19.3911 3.45105 19.2444 4.30236C19.2169 4.48544 19.1894 4.65937 19.1803 4.84244C19.1619 5.02552 19.1619 5.20861 19.1619 5.40083C19.1619 6.43523 19.3728 7.35978 19.8037 8.18364C20.2346 8.99834 20.8214 9.63911 21.564 10.106C22.3067 10.5728 23.1502 10.8017 24.076 10.8017C25.0021 10.8017 25.7264 10.6918 26.3315 10.4721C26.9366 10.2524 27.441 9.95036 27.8627 9.54757C28.2844 9.15395 28.6694 8.68711 29.0087 8.16532L27.5417 7.24077C27.3125 7.61608 27.0467 7.94562 26.7258 8.22024C26.4139 8.49486 26.0566 8.71456 25.6532 8.87017C25.2587 9.02581 24.8004 9.10818 24.2871 9.10818C23.6085 9.10818 23.0218 8.96173 22.5267 8.67795C22.0316 8.39417 21.6465 7.9731 21.3807 7.4147C21.1606 6.97531 21.0598 6.43523 21.0139 5.84022H29.1552C29.1738 5.74869 29.1738 5.65714 29.1738 5.5656V5.30014C29.1738 4.20167 28.9721 3.2588 28.5685 2.47157C28.1651 1.68433 27.5875 1.07101 26.8542 0.640778L26.8633 0.649931ZM21.0506 4.32067C21.0964 3.84467 21.2339 3.41442 21.4632 3.04826C21.7565 2.57226 22.1508 2.21526 22.6459 1.95895C23.141 1.70264 23.691 1.57448 24.2963 1.57448C24.9013 1.57448 25.4055 1.69348 25.818 1.92233C26.2306 2.15118 26.5515 2.48073 26.7899 2.89265C27.0284 3.30457 27.1658 3.78059 27.2301 4.32067H21.0506Z" fill="white"/>
<path d="M39.7168 4.27481H33.9593V0.22876H32.1621V10.5819H33.9593V5.96829H39.7168V10.5819H41.5138V0.22876H39.7168V4.27481Z" fill="white"/>
<path d="M43.8152 1.91309H45.9606V10.5819H47.7667V1.91309H49.9029V0.22876H43.8152V1.91309Z" fill="white"/>
<path d="M56.2198 0C55.2113 0 54.3036 0.228849 53.4876 0.695699C52.6717 1.16255 52.03 1.80333 51.5623 2.60887C51.0856 3.42357 50.8564 4.34812 50.8564 5.40083C50.8564 6.45354 51.0948 7.35978 51.5623 8.18364C52.0391 8.99834 52.6808 9.63911 53.4876 10.106C54.3036 10.5728 55.2113 10.8017 56.2198 10.8017C56.9258 10.8017 57.6133 10.6827 58.2827 10.4538C58.9519 10.225 59.4654 9.89543 59.823 9.47433V7.22248C59.6763 7.55202 59.4196 7.86325 59.0529 8.15616C58.6953 8.4491 58.2644 8.67795 57.7784 8.85188C57.2926 9.02581 56.7699 9.10818 56.2106 9.10818C55.5323 9.10818 54.9272 8.94341 54.3954 8.62303C53.8635 8.30264 53.4418 7.86325 53.13 7.30485C52.8184 6.74646 52.6717 6.11484 52.6717 5.39167C52.6717 4.66851 52.8276 4.02774 53.13 3.46934C53.4418 2.90181 53.8635 2.47157 54.3954 2.15118C54.9272 1.83995 55.5323 1.67517 56.2106 1.67517C56.7699 1.67517 57.2926 1.75756 57.7784 1.93148C58.2644 2.10541 58.6953 2.33425 59.0529 2.61803C59.4105 2.90181 59.6671 3.22219 59.823 3.56089V1.32732C59.4654 0.906242 58.9428 0.576698 58.2827 0.34785C57.6133 0.119001 56.9258 0 56.2198 0Z" fill="white"/>
<path d="M61.565 1.91309H63.7104V10.5819H65.5165V1.91309H67.6527V0.22876H61.565V1.91309Z" fill="white"/>
<path d="M75.9501 5.40074C75.8311 5.37329 75.7026 5.35497 75.5833 5.33666C76.106 5.14444 76.5277 4.86982 76.8578 4.49451C77.188 4.11004 77.353 3.62488 77.353 3.03901C77.353 2.36163 77.188 1.82155 76.8578 1.40962C76.5277 0.997692 76.0968 0.69561 75.565 0.512532C75.0334 0.329452 74.4375 0.22876 73.7956 0.22876H69.9634V10.5819H74.4741C75.6568 10.5819 76.5186 10.3073 77.0321 9.75802C77.5453 9.20878 77.8114 8.54969 77.8114 7.76247C77.8114 7.08506 77.6463 6.5633 77.3162 6.18799C76.9863 5.81268 76.5369 5.5472 75.9593 5.40074H75.9501ZM73.7864 1.79409C74.3274 1.79409 74.7583 1.92224 75.0701 2.1694C75.3816 2.41656 75.5467 2.7461 75.5467 3.14886C75.5467 3.34111 75.5101 3.52419 75.4185 3.6981C75.3359 3.87203 75.2168 4.02764 75.0701 4.15581C74.9233 4.2931 74.7308 4.39382 74.5199 4.45788C74.2999 4.52196 74.0616 4.55859 73.7864 4.55859H71.7603V1.80324H73.7864V1.79409ZM75.5101 8.56801C75.1891 8.85179 74.685 8.99824 74.0064 8.99824H71.7512V6.11475H74.0064C74.3549 6.11475 74.6484 6.15136 74.8958 6.21544C75.1433 6.27952 75.345 6.38021 75.5009 6.51753C75.6568 6.65483 75.7759 6.80129 75.8585 6.96606C75.9409 7.13083 75.987 7.32308 75.987 7.53361C75.987 7.9364 75.8219 8.28423 75.5009 8.56801H75.5101Z" fill="white"/>
<path d="M89.7942 2.60887C89.3173 1.79417 88.6848 1.16255 87.878 0.695699C87.0712 0.228849 86.1635 0 85.1367 0C84.1097 0 83.2205 0.228849 82.4045 0.695699C81.5886 1.16255 80.9467 1.80333 80.4792 2.60887C80.0023 3.42357 79.7731 4.34812 79.7731 5.40083C79.7731 6.45354 80.0115 7.35978 80.4792 8.18364C80.9558 8.99834 81.5978 9.63911 82.4045 10.106C83.2205 10.5728 84.1282 10.8017 85.1367 10.8017C86.1452 10.8017 87.0712 10.5728 87.878 10.106C88.6848 9.63911 89.3173 8.99834 89.7942 8.18364C90.2708 7.36894 90.5 6.43523 90.5 5.40083C90.5 4.36644 90.2617 3.42357 89.7942 2.60887ZM88.2173 7.31401C87.9055 7.87241 87.4838 8.3118 86.9519 8.63218C86.4201 8.95257 85.815 9.11734 85.1367 9.11734C84.4581 9.11734 83.853 8.95257 83.3212 8.63218C82.7896 8.3118 82.3679 7.87241 82.0561 7.31401C81.7443 6.75561 81.5978 6.124 81.5978 5.40083C81.5978 4.67766 81.7534 4.03689 82.0561 3.4785C82.3679 2.91097 82.7805 2.48073 83.3212 2.16033C83.853 1.8491 84.4581 1.68433 85.1367 1.68433C85.815 1.68433 86.4201 1.83995 86.9519 2.16033C87.4838 2.47157 87.9055 2.91097 88.2173 3.4785C88.5289 4.03689 88.6756 4.68682 88.6756 5.40083C88.6756 6.11484 88.5197 6.75561 88.2173 7.31401Z" fill="white"/>
<path d="M8.7922 25.4573H6.53682L2.70447 29.0914V25.4573H0.898315V35.8195H2.70447V30.5651L6.99522 35.8195H9.25062L4.28141 29.7322L8.7922 25.4573Z" fill="white"/>
<path d="M19.2442 25.8873C18.4741 25.4572 17.6123 25.2375 16.6588 25.2375C15.8061 25.2375 15.0451 25.4572 14.3942 25.8873C13.8808 26.2262 13.459 26.693 13.1198 27.2605V25.4572H11.3137V40.7718H13.1198V34.0069C13.459 34.5835 13.8808 35.0414 14.3942 35.3892C15.0451 35.8286 15.8061 36.0392 16.6588 36.0392C17.6031 36.0392 18.4649 35.8195 19.2442 35.3892C20.0143 34.959 20.6378 34.3273 21.1054 33.5218C21.573 32.707 21.8022 31.7551 21.8022 30.6384C21.8022 29.5214 21.573 28.5513 21.1054 27.7455C20.6378 26.9401 20.0143 26.3267 19.2442 25.8873ZM19.4917 32.6613C19.1709 33.2197 18.74 33.6408 18.2082 33.9247C17.6764 34.2083 17.0805 34.3547 16.4387 34.3547C15.9161 34.3547 15.3935 34.2083 14.8801 33.9247C14.3667 33.6408 13.945 33.2197 13.6149 32.6613C13.2848 32.1029 13.1198 31.4347 13.1198 30.6384C13.1198 29.8418 13.2848 29.1644 13.6149 28.6152C13.945 28.0568 14.3667 27.6357 14.8801 27.3521C15.3935 27.0682 15.907 26.9218 16.4387 26.9218C17.0805 26.9218 17.6764 27.0682 18.2082 27.3521C18.74 27.6357 19.1709 28.0568 19.4917 28.6152C19.8127 29.1736 19.9777 29.8418 19.9777 30.6384C19.9777 31.4347 19.8127 32.1121 19.4917 32.6613Z" fill="white"/>
<path d="M31.5936 25.8873C30.8601 25.4572 29.9984 25.2375 29.0265 25.2375C28.1371 25.2375 27.3395 25.4205 26.6243 25.7774C25.9093 26.1346 25.3317 26.6379 24.8731 27.2879C24.424 27.9287 24.1215 28.6794 23.9748 29.5399C23.9473 29.7228 23.9196 29.8968 23.9105 30.08C23.9013 30.2629 23.8922 30.4461 23.8922 30.6475C23.8922 31.6818 24.103 32.6065 24.5341 33.4302C24.965 34.2448 25.5517 34.8857 26.2944 35.3524C27.0368 35.8195 27.8805 36.0483 28.8065 36.0483C29.7324 36.0483 30.4567 35.9385 31.0618 35.7188C31.6669 35.4991 32.1712 35.1969 32.5929 34.7941C33.0146 34.4006 33.3997 33.9338 33.739 33.412L32.272 32.4873C32.0428 32.8627 31.777 33.1923 31.456 33.4668C31.1444 33.7415 30.7868 33.9612 30.3835 34.1167C29.9892 34.2725 29.5307 34.3547 29.0174 34.3547C28.3388 34.3547 27.752 34.2083 27.2571 33.9247C26.7619 33.6408 26.3768 33.2197 26.111 32.6613C25.891 32.2219 25.79 31.6818 25.7443 31.0869H33.8857C33.9041 30.9953 33.9041 30.9037 33.9041 30.8122V30.5468C33.9041 29.4483 33.7024 28.5053 33.299 27.7181C32.8956 26.9309 32.318 26.3175 31.5845 25.8873H31.5936ZM25.7809 29.5582C25.8267 29.082 25.9643 28.652 26.1934 28.2857C26.4869 27.8097 26.8812 27.4528 27.3761 27.1963C27.8713 26.9401 28.4215 26.812 29.0265 26.812C29.6316 26.812 30.1357 26.9309 30.5483 27.1598C30.9611 27.3886 31.2818 27.7181 31.5201 28.1301C31.7495 28.5421 31.896 29.018 31.9604 29.5582H25.7809Z" fill="white"/>
<path d="M42.8798 25.6037C42.2839 25.3566 41.587 25.2283 40.7894 25.2283C39.8544 25.2283 39.0566 25.3749 38.3965 25.6585C37.7365 25.9424 37.2047 26.2263 36.8196 26.5099L37.6996 27.8831C37.8647 27.7641 38.0939 27.6175 38.3874 27.4437C38.6809 27.2697 39.0291 27.1233 39.4325 26.9952C39.8359 26.8669 40.2853 26.8029 40.7894 26.8029C41.3578 26.8029 41.8714 26.931 42.3114 27.1964C42.7514 27.462 42.9808 27.8555 42.9808 28.3773V30.1166C42.7148 29.9426 42.394 29.7779 41.9998 29.6315C41.5229 29.4575 40.9545 29.3751 40.2944 29.3751C39.3958 29.3751 38.6074 29.5123 37.9474 29.7962C37.2871 30.0709 36.7738 30.4644 36.4162 30.9771C36.0586 31.4896 35.8752 32.1121 35.8752 32.8445C35.8752 33.5767 36.0403 34.1351 36.3613 34.6112C36.682 35.0872 37.1129 35.4441 37.6539 35.6823C38.1948 35.9203 38.7908 36.0393 39.4325 36.0393C40.1568 36.0393 40.8077 35.9111 41.3945 35.6638C41.9812 35.4167 42.449 35.0598 42.8066 34.5838C42.8707 34.5014 42.9256 34.4007 42.9716 34.3091V35.8104H44.7777V28.3773C44.7777 27.7 44.6127 27.1325 44.2734 26.6657C43.9341 26.1986 43.4666 25.8417 42.8798 25.5946V25.6037ZM42.5866 33.3113C42.3205 33.705 41.9538 33.9887 41.4954 34.1627C41.0279 34.3456 40.4961 34.4372 39.891 34.4372C39.4877 34.4372 39.1209 34.3733 38.7908 34.2449C38.4606 34.1168 38.1948 33.9339 38.0023 33.6865C37.8098 33.4394 37.709 33.1373 37.709 32.7712C37.709 32.3501 37.8098 31.9932 38.0023 31.691C38.1948 31.3889 38.4975 31.16 38.8917 30.9954C39.286 30.8305 39.7901 30.7483 40.3952 30.7483C41.0554 30.7483 41.6513 30.8305 42.1738 31.0045C42.449 31.0961 42.7148 31.2151 42.9899 31.3523V31.7643C42.9899 32.4143 42.8615 32.9267 42.5957 33.3205L42.5866 33.3113Z" fill="white"/>
<path d="M46.7488 27.1507H48.8942V35.8195H50.7003V27.1507H52.8365V25.4573H46.7488V27.1507Z" fill="white"/>
<path d="M57.054 25.4574H55.2477V36.6068L62.1332 29.1006V35.8196H63.9301V24.6699L57.054 32.1672V25.4574Z" fill="white"/>
<path d="M73.0067 30.6383C72.8874 30.6107 72.7592 30.5924 72.6399 30.5741C73.1626 30.3818 73.5843 30.1073 73.9144 29.7319C74.2443 29.3475 74.4094 28.8625 74.4094 28.2764C74.4094 27.5991 74.2443 27.059 73.9144 26.647C73.5843 26.2352 73.1534 25.9331 72.6216 25.7499C72.0898 25.567 71.4938 25.4663 70.8521 25.4663H67.0197V35.8194H71.5305C72.7132 35.8194 73.5751 35.5447 74.0884 34.9954C74.6111 34.4462 74.8677 33.7871 74.8677 32.9999C74.8677 32.3225 74.7029 31.8007 74.3727 31.4255C74.0426 31.05 73.5934 30.7847 73.0158 30.6383H73.0067ZM70.843 27.0316C71.384 27.0316 71.8148 27.1597 72.1264 27.4068C72.4382 27.6541 72.6033 27.9837 72.6033 28.3863C72.6033 28.5786 72.5666 28.7617 72.4748 28.9355C72.3924 29.1096 72.2731 29.2651 72.1264 29.3932C71.9799 29.5307 71.7873 29.6314 71.5765 29.6953C71.3563 29.7595 71.1179 29.796 70.843 29.796H68.8166V27.0224H70.843V27.0316ZM72.5666 33.8056C72.2457 34.0892 71.7413 34.2356 71.063 34.2356H68.8075V31.3522H71.063C71.4114 31.3522 71.7047 31.389 71.9524 31.4529C72.1999 31.5171 72.4016 31.6178 72.5575 31.755C72.7132 31.8923 72.8324 32.0387 72.9149 32.2036C72.9975 32.3682 73.0433 32.5605 73.0433 32.7619C73.0433 33.1648 72.8782 33.5126 72.5575 33.7962L72.5666 33.8056Z" fill="white"/>
<path d="M85.274 29.5125H79.5256V25.4573H77.7195V35.8195H79.5256V31.1968H85.274V35.8195H87.0803V25.4573H85.274V29.5125Z" fill="white"/>
<path d="M102.125 25.4573H100.319V35.8104H102.125V25.4573Z" fill="white"/>
<path d="M97.9352 30.1531C97.2019 29.6315 96.3033 29.375 95.2399 29.375H92.7552V25.4573H90.9492V35.8104H95.2308C95.9549 35.8104 96.5968 35.7005 97.1744 35.4717C97.7427 35.2429 98.2012 34.8948 98.5314 34.4098C98.8612 33.9338 99.0263 33.3204 99.0263 32.5882C99.0263 31.4804 98.6596 30.6658 97.9352 30.144V30.1531ZM97.0002 33.4853C96.8535 33.7324 96.6243 33.9247 96.3308 34.0437C96.0375 34.1718 95.6708 34.2357 95.2399 34.2357H92.7552V30.9497H95.2399C95.8999 30.9497 96.3951 31.0961 96.725 31.3799C97.0552 31.6636 97.2202 32.0664 97.2202 32.5974C97.2202 32.9452 97.1467 33.238 96.9911 33.4853H97.0002Z" fill="white"/>
<path d="M110.019 30.4826L113.558 25.4573H111.522L109.047 29.0638L106.562 25.4573H104.536L108.075 30.4826L104.307 35.8195H106.342L109.047 31.9015L111.752 35.8195H113.778L110.019 30.4826Z" fill="white"/>
<path d="M2.93383 50.6945H1.12769V61.8348L8.0039 54.3378V61.0476H9.81004V49.8979L2.93383 57.4044V50.6945Z" fill="white"/>
<path d="M21.353 54.7404H15.6045V50.6946H13.7984V61.0477H15.6045V56.4341H21.353V61.0477H23.1591V50.6946H21.353V54.7404Z" fill="white"/>
<path d="M32.098 49.8979L27.5137 59.354H25.671V63.0705H27.5872V61.0476H36.7189V63.0705H38.525V59.354H36.682L32.098 49.8979ZM32.098 53.7977L34.6742 59.3631H29.5218L32.098 53.7977Z" fill="white"/>
<path d="M44.3931 57.8255L41.4959 50.6946H39.3505L43.3203 59.5831L40.4783 66H42.5044L49.2706 50.6946H47.2443L44.3931 57.8255Z" fill="white"/>
<path d="M55.4771 50.4658C54.4686 50.4658 53.5609 50.6946 52.7449 51.1614C51.929 51.6282 51.2873 52.269 50.8196 53.0745C50.3429 53.8893 50.1135 54.8138 50.1135 55.8666C50.1135 56.9192 50.3521 57.8256 50.8196 58.6493C51.2964 59.4639 51.9382 60.1047 52.7449 60.5715C53.5609 61.0386 54.4686 61.2674 55.4771 61.2674C56.1831 61.2674 56.8706 61.1484 57.54 60.9196C58.2092 60.6907 58.7227 60.3612 59.0801 59.9401V57.6881C58.9336 58.0176 58.6767 58.3289 58.3102 58.6219C57.9526 58.9147 57.5215 59.1437 57.0357 59.3175C56.5497 59.4916 56.0272 59.5738 55.4679 59.5738C54.7893 59.5738 54.1843 59.4091 53.6527 59.0887C53.1209 58.7683 52.6991 58.3289 52.3873 57.7705C52.0758 57.2122 51.929 56.5805 51.929 55.8574C51.929 55.1342 52.0849 54.4934 52.3873 53.935C52.6991 53.3766 53.1209 52.9372 53.6527 52.6168C54.1843 52.3055 54.7893 52.1409 55.4679 52.1409C56.0272 52.1409 56.5497 52.2233 57.0357 52.3971C57.5215 52.5711 57.9526 52.8 58.3102 53.0836C58.6676 53.3675 58.9244 53.6879 59.0801 54.0266V51.7748C58.7227 51.3537 58.2001 51.0241 57.54 50.7953C56.8706 50.5665 56.1831 50.4473 55.4771 50.4473V50.4658Z" fill="white"/>
<path d="M60.8223 52.3788H62.9585V61.0477H64.7646V52.3788H66.91V50.6946H60.8223V52.3788Z" fill="white"/>
<path d="M77.0229 51.1155C76.2436 50.6855 75.3908 50.4658 74.4373 50.4658C73.5847 50.4658 72.8237 50.6855 72.1729 51.1155C71.6594 51.4542 71.2377 51.9212 70.8984 52.4888V50.6855H69.0923V66H70.8984V59.2351C71.2377 59.8118 71.6594 60.2697 72.1729 60.6175C72.8237 61.0569 73.5847 61.2674 74.4373 61.2674C75.3817 61.2674 76.2436 61.0477 77.0229 60.6175C77.7931 60.1872 78.4165 59.5555 78.884 58.7501C79.3517 57.9352 79.5808 56.9834 79.5808 55.8666C79.5808 54.7497 79.3517 53.7795 78.884 52.9738C78.4165 52.1683 77.7931 51.5549 77.0229 51.1155ZM77.2704 57.8896C76.9494 58.4479 76.5186 58.8691 75.9867 59.1527C75.4551 59.4366 74.859 59.583 74.2173 59.583C73.6948 59.583 73.1722 59.4366 72.6587 59.1527C72.1454 58.8691 71.7235 58.4479 71.3936 57.8896C71.0634 57.3312 70.8984 56.663 70.8984 55.8666C70.8984 55.0701 71.0634 54.3927 71.3936 53.8435C71.7235 53.2851 72.1454 52.864 72.6587 52.5803C73.1722 52.2965 73.6855 52.1501 74.2173 52.1501C74.859 52.1501 75.4551 52.2965 75.9867 52.5803C76.5186 52.864 76.9494 53.2851 77.2704 53.8435C77.5914 54.4018 77.7562 55.0701 77.7562 55.8666C77.7562 56.663 77.5914 57.3403 77.2704 57.8896Z" fill="white"/>
<path d="M84.4764 50.6945H82.6703V61.8348L89.5465 54.3378V61.0476H91.3526V49.8979L84.4764 57.4044V50.6945Z" fill="white"/>
<path d="M97.2661 57.4044V50.6945H95.46V61.8348L102.336 54.3378V61.0476H104.142V49.8979L97.2661 57.4044Z" fill="white"/>
<path d="M97.8803 48.0857C98.4121 48.3969 99.0724 48.5433 99.8517 48.5433C100.631 48.5433 101.309 48.3878 101.832 48.0857C102.354 47.7744 102.749 47.3809 103.015 46.8956C103.28 46.4105 103.409 45.907 103.409 45.3943H101.805C101.805 45.5866 101.749 45.8154 101.649 46.081C101.548 46.3464 101.346 46.5752 101.062 46.7766C100.777 46.9781 100.374 47.0788 99.8423 47.0788C99.3107 47.0788 98.9073 46.9781 98.623 46.7766C98.3388 46.5752 98.1463 46.3372 98.0362 46.081C97.9263 45.8154 97.8803 45.5866 97.8803 45.3943H96.2759C96.2759 45.907 96.4043 46.4014 96.6701 46.8956C96.9361 47.3809 97.3304 47.7835 97.862 48.0857H97.8803Z" fill="white"/>
<path d="M118.802 61.8348C122.104 61.8348 124.78 59.1626 124.78 55.8665C124.78 52.5702 122.104 49.8982 118.802 49.8982C115.501 49.8982 112.825 52.5702 112.825 55.8665C112.825 59.1626 115.501 61.8348 118.802 61.8348Z" fill="#FF4261"/>
</g>
<defs>
<clipPath id="clip0_1_239">
<rect width="125" height="66" fill="white"/>
</clipPath>
</defs>
</svg>
