<svg width="164" height="57" viewBox="0 0 164 57" fill="none" xmlns="http://www.w3.org/2000/svg">
<g clip-path="url(#clip0_105_1682)">
<path fill-rule="evenodd" clip-rule="evenodd" d="M85.8167 13.3166H88.0511L87.1872 10.3881H86.6807L85.8167 13.3166ZM88.5113 14.8544H85.3804L84.7146 17.1344H83.0219L85.6337 8.69835H88.2918L90.9174 17.1344H89.1771L88.5113 14.8544ZM93.8238 10.2703V17.1344H92.0785V8.69835H98.117V10.2703H93.8238ZM105.78 15.5612V17.1344H99.51V8.69835H105.653V10.2703H101.243V12.0424H104.675V13.5776H101.243V15.5612H105.78ZM114.604 8.69835V17.1344H112.857V13.6004H109.151V17.1344H107.405V8.69835H109.151V11.9841H112.857V8.69835H114.604ZM122.499 10.2475H119.891V17.1344H118.141V10.2475H115.533V8.69835H122.499V10.2475ZM130.627 14.5453C130.371 16.2084 129.106 17.3687 127.167 17.3687C124.635 17.3687 123.196 15.5878 123.196 13.0329C123.196 10.4793 124.647 8.69835 127.167 8.69835C129.013 8.69835 130.256 9.75349 130.545 11.2874H128.735C128.537 10.6199 127.991 10.2564 127.167 10.2564C125.68 10.2564 124.973 11.4749 124.973 13.0329C124.973 14.5795 125.68 15.8107 127.167 15.8107C128.061 15.8107 128.664 15.342 128.827 14.544L130.627 14.5453ZM138.29 10.2475H135.682V17.1344H133.932V10.2475H131.324V8.69835H138.29V10.2475ZM144.612 14.5934C144.612 13.8841 144.175 13.518 143.277 13.518H141.209V15.6334H143.253C144.128 15.6334 144.612 15.3015 144.612 14.5947V14.5934ZM144.375 11.0974C144.375 10.473 143.973 10.1652 143.181 10.1652H141.209V12.0462H143.193C143.986 12.0436 144.375 11.7371 144.375 11.0987V11.0974ZM146.419 14.6872C146.419 16.0932 145.509 17.1344 143.514 17.1344H139.451V8.69835H143.406C145.273 8.69835 146.182 9.72689 146.182 10.9315C146.182 11.7004 145.84 12.3616 145.297 12.6326V12.8695C145.899 13.1178 146.419 13.8486 146.419 14.6872ZM153.922 13.0342C153.922 11.4876 153.208 10.2564 151.644 10.2564C150.09 10.2564 149.365 11.4876 149.365 13.0329C149.365 14.5795 150.09 15.8107 151.644 15.8107C153.208 15.8107 153.922 14.5795 153.922 13.0329V13.0342ZM155.707 13.0342C155.707 15.494 154.282 17.3687 151.644 17.3687C149.003 17.3687 147.58 15.494 147.58 13.0329C147.58 10.573 149.003 8.69835 151.644 8.69835C154.282 8.69835 155.707 10.573 155.707 13.0329V13.0342ZM85.3252 24.1631V30.0582H85.5547L88.6642 24.1631H90.9174V32.5991H89.2974V26.5748H89.0667L85.8882 32.5991H83.7178V24.1631H85.3252ZM100.206 24.1631V32.5991H98.4593V29.0651H94.7529V32.5991H93.0063V24.1631H94.7529V27.4488H98.4593V24.1631H100.206ZM109.262 24.1631V32.5991H107.517V29.0651H103.811V32.5991H102.064V24.1631H103.811V27.4488H107.517V24.1631H109.262ZM116.997 28.4976C116.997 26.9523 116.285 25.7211 114.72 25.7211C113.166 25.7211 112.442 26.951 112.442 28.4976C112.442 30.0442 113.167 31.2742 114.72 31.2742C116.285 31.2742 116.997 30.0455 116.997 28.4976ZM118.784 28.4976C118.784 30.9588 117.359 32.8334 114.72 32.8334C112.08 32.8334 110.655 30.9588 110.655 28.4976C110.655 26.0378 112.08 24.1631 114.72 24.1631C117.359 24.1631 118.784 26.0378 118.784 28.4976ZM125.569 30.0582C125.569 29.3488 125.132 28.9828 124.233 28.9828H122.167V31.0981H124.211C125.086 31.0981 125.569 30.765 125.569 30.0582ZM125.332 26.5622C125.332 25.9377 124.93 25.6299 124.138 25.6299H122.167V27.5096H124.151C124.944 27.5071 125.332 27.2006 125.332 26.5622ZM127.375 30.1519C127.375 31.5579 126.465 32.5991 124.47 32.5991H120.408V24.1631H124.364C126.231 24.1631 127.139 25.1916 127.139 26.3962C127.139 27.1651 126.797 27.8263 126.255 28.0974V28.3342C126.855 28.5825 127.375 29.3134 127.375 30.1519ZM130.869 28.7814H133.103L132.239 25.8528H131.733L130.869 28.7814ZM133.562 30.3191H130.432L129.765 32.5991H128.073L130.686 24.1631H133.344L135.968 32.5991H134.229L133.562 30.3191ZM143.583 32.632H137.129V24.1631H138.849V31.0538H142.359V24.1631H144.079V31.0538H145.257V34.7081H143.583V32.632ZM148.257 24.1631V30.0582H148.488L151.595 24.1631H153.849V32.5991H152.23V26.5748H152.001L148.821 32.5991H146.651V24.1631H148.257ZM161.717 22.0528C161.624 23.1612 160.839 23.8502 159.532 23.8502C158.226 23.8502 157.439 23.1612 157.349 22.0528H158.619C158.665 22.4493 158.965 22.7774 159.532 22.7774C160.087 22.7774 160.385 22.4632 160.444 22.0528H161.717ZM157.546 24.2695V30.0898H157.776L160.886 24.2695H163.138V32.5978H161.519V26.6483H161.287L158.11 32.5978H155.939V24.2695H157.546ZM83.7178 39.866H86.4462L87.8054 43.2328H88.0373L89.3965 39.866H92.0785V48.302H90.4497V41.7216H90.2152L88.6943 45.4773H87.1019L85.581 41.7216H85.3453V48.3007H83.7178V39.866ZM99.8134 43.9662C99.8134 42.4208 99.1012 41.1896 97.5365 41.1896C95.9817 41.1896 95.2582 42.4196 95.2582 43.9662C95.2582 45.5128 95.9829 46.7427 97.5365 46.7427C99.1012 46.7427 99.8134 45.514 99.8134 43.9662ZM101.6 43.9662C101.6 46.4273 100.173 48.3007 97.5365 48.3007C94.8959 48.3007 93.4715 46.426 93.4715 43.9662C93.4715 41.5063 94.8959 39.6316 97.5365 39.6316C100.173 39.6316 101.599 41.5063 101.599 43.9662H101.6ZM110.192 45.4786C109.937 47.1417 108.671 48.3007 106.731 48.3007C104.201 48.3007 102.761 46.521 102.761 43.9662C102.761 41.4126 104.212 39.6316 106.732 39.6316C108.578 39.6316 109.82 40.6855 110.111 42.2207H108.299C108.101 41.5532 107.556 41.1896 106.732 41.1896C105.245 41.1896 104.538 42.4082 104.538 43.9662C104.538 45.5128 105.245 46.7427 106.732 46.7427C107.626 46.7427 108.229 46.274 108.392 45.4786H110.192ZM111.817 39.866H113.571V43.1618H115.509L117.1 39.866H118.908L116.982 43.9662L119.017 48.3007H117.206L115.525 44.7553H113.572V48.302H111.817V39.866ZM125.338 45.761C125.338 45.0517 124.9 44.6844 124.003 44.6844H121.935V46.801H123.979C124.854 46.801 125.338 46.4691 125.338 45.761ZM125.1 42.265C125.1 41.6393 124.699 41.3328 123.907 41.3328H121.935V43.2112H123.919C124.712 43.2087 125.1 42.9022 125.1 42.265ZM127.144 45.8548C127.144 47.2608 126.233 48.3007 124.238 48.3007H120.177V39.8647H124.132C125.999 39.8647 126.908 40.8945 126.908 42.0991C126.908 42.8667 126.565 43.5279 126.023 43.8002V44.0358C126.624 44.2854 127.144 45.0162 127.144 45.8548ZM136.077 48.3007H137.826V39.8647H136.077V48.3007ZM133.351 45.5128C133.351 44.7211 132.929 44.2727 131.765 44.2727H130.286V46.7554H131.765C132.929 46.7554 133.351 46.3158 133.351 45.5128ZM128.537 48.3007V39.8647H130.286V42.7248H132.034C133.996 42.7248 135.146 43.7762 135.146 45.5014C135.146 47.2494 133.995 48.3007 132.034 48.3007H128.537ZM14.4704 49.7004C14.1068 50.1564 13.5501 50.3096 13.2216 50.0449C12.9332 49.8106 12.9244 49.3254 13.1752 48.9024C12.9677 48.951 12.7849 49.0744 12.6611 49.2494C12.3501 49.7029 12.5307 50.378 13.0686 50.7568C13.6077 51.1393 14.2974 51.0772 14.6096 50.6263C14.8265 50.3122 14.8014 49.8891 14.5845 49.5332C14.5519 49.5889 14.5143 49.6472 14.4704 49.7004ZM32.8994 17.5397C32.2512 16.9127 32.443 15.6739 32.443 15.6739C32.1697 15.9057 31.8211 17.5232 32.3991 18.3428C33.0687 19.2928 33.668 19.4245 34.1984 20.4594C34.2636 20.3124 34.1809 19.9426 34.0429 19.6652C33.8348 19.2434 33.7546 18.8938 34.2435 18.7494C35.6328 18.3428 36.923 20.3644 37.6816 20.3302C38.7423 20.2846 38.9793 19.3232 39.0257 19.2776C39.0709 19.2307 38.4678 19.693 37.7844 19.6107C36.7036 19.479 36.2021 18.2528 34.9871 18.002C34.2097 17.8424 33.5514 18.1692 32.8994 17.5397ZM32.1622 40.0623C31.8011 40.5956 32.0769 41.3492 33.0323 41.6304C33.8937 41.8838 34.4642 42.1485 34.8855 42.5779C35.5049 43.2024 35.7946 43.2809 35.9425 43.2771L9.48636 6.22329L9.13528 6.48042L31.1942 37.3795C31.4475 37.7342 32.4806 39.5886 32.1622 40.0623ZM32.0593 41.7508C31.0525 41.7761 29.899 42.1384 28.7367 41.0516C27.2295 39.6456 25.6597 40.5449 25.6597 40.5449C25.6597 40.5449 26.6515 41.543 26.0986 41.9547C25.2008 42.626 25.8616 43.4114 25.7826 43.7204C25.7011 44.0257 24.7971 44.089 23.2824 43.3911C22.6061 43.0733 21.851 42.9674 21.1145 43.0871C20.7221 43.153 20.8537 43.4405 20.9402 43.5228C20.9402 43.5228 21.5784 44.1118 21.8255 44.2752C22.0261 44.4032 22.5326 44.8288 22.722 44.6907C22.9063 44.5577 22.5038 43.804 22.5038 43.804C22.5038 43.804 25.4892 44.811 26.5336 44.811C27.7461 44.811 26.6101 42.7717 27.5643 42.6754C28.0458 42.6248 28.6476 43.3848 29.6369 43.5279C30.329 43.6292 30.9936 43.3328 31.6732 43.1606C32.3954 42.9794 32.6687 43.8838 32.769 44.6806C32.7866 44.811 32.8129 45.1404 32.9521 45.3823C33.1903 44.2334 33.5088 41.7166 32.0593 41.7508ZM39.6138 44.1093C39.2201 43.039 38.469 43.5013 38.133 43.3822C37.7957 43.2644 37.3606 42.8414 37.2202 41.7039C37.0798 40.5664 36.1231 41.1808 36.1231 41.1808C36.1231 41.1808 37.2302 43.424 37.6753 44.6185C38.123 45.8117 38.4991 44.887 39.0433 45.5419C39.5912 46.1968 39.5285 49.561 39.2176 50.644C38.8612 51.8807 38.1308 52.9738 37.1287 53.7702C37.8985 53.6802 39.3354 52.1539 39.7379 51.1532C40.2018 50.0044 39.936 48.9442 39.936 48.9442L40.583 48.8859L40.188 47.8434L40.8137 47.7472C40.8175 47.7472 40.005 45.1758 39.6138 44.1093ZM13.8899 46.2373C13.0777 46.0214 12.2311 45.9719 11.3997 46.0916C10.527 46.2234 9.82364 46.4716 9.09265 46.4336C8.36667 46.4172 7.68583 46.1296 7.24197 45.5976C7.04136 45.3646 6.89842 45.091 6.7931 44.7996C7.14417 44.0675 7.82626 43.324 9.04249 42.6412C13.293 40.2536 11.8862 37.5619 11.6217 34.4408C11.4875 32.8575 11.806 31.4135 12.6122 30.6814C13.7494 29.6452 15.6615 29.7732 15.6615 29.7732C15.4446 29.4907 12.883 28.5648 10.927 29.1373C8.8331 29.7529 8.44441 31.2843 8.0833 32.3736C7.77235 33.3186 7.36485 34.4294 5.51292 35.2148C2.39962 36.5346 2.60901 39.0097 2.60901 39.0097C2.60901 39.0097 1.48055 36.565 4.50608 34.4991C8.34912 31.8771 6.86958 29.8606 8.15477 28.6585C9.15785 27.7212 10.359 27.8706 12.1922 28.376C11.8636 27.9834 6.99246 25.9187 6.42823 30.3014C5.94926 34.0279 2.42846 33.5086 1.81533 37.0147C1.38651 39.5012 3.7149 41.5848 3.7149 41.5848C3.7149 41.5848 1.85294 37.819 5.51417 36.2965C8.04694 35.2452 9.48886 34.0317 9.86502 32.8334C9.8437 33.2172 9.84746 33.6238 9.85749 34.0697C9.89762 35.7556 10.6913 37.0717 10.4468 39.4429C10.3126 40.7476 7.9529 42.0497 6.63636 43.3898C6.6815 42.7894 6.84199 42.2055 7.13916 41.7242C7.47143 41.2112 8.01685 40.6602 8.25508 40.0522C8.45174 39.6091 8.54047 39.1249 8.51386 38.64C8.48725 38.1552 8.34606 37.6839 8.10211 37.2655C8.04193 37.2908 7.98676 37.3136 7.93159 37.3314C8.19866 37.9634 8.34661 38.9223 7.83128 39.852C7.57675 40.3866 7.12286 40.764 6.64013 41.3885C6.17049 42.0463 5.89842 42.8269 5.85647 43.6368C5.84393 43.9054 5.87026 44.1815 5.9154 44.4602C5.37625 45.8839 5.99063 47.7231 6.48214 48.5743C7.07019 49.5876 7.62314 50.3286 7.33476 51.5041C7.04637 52.6821 8.05823 52.2742 8.77417 52.2856L9.45 52.2894C9.92144 52.2882 10.1145 51.9424 9.82615 51.475C9.32461 50.6681 8.52967 49.4736 7.89523 48.9619C7.32974 48.5046 6.4044 47.3026 6.49092 45.9092C7.32598 46.9124 8.26636 47.2278 9.04249 47.3C9.95404 47.3811 10.8154 47.034 11.5163 46.9226C12.2386 46.8019 12.9773 46.8256 13.6905 46.9922C14.3456 47.1501 14.9547 47.4617 15.4685 47.9017C15.9537 48.3197 16.2208 48.877 16.3612 49.4154C16.6245 50.4743 15.9035 51.4674 15.3218 51.988C15.3569 52.0285 15.4033 52.0665 15.4421 52.102C16.4602 51.4826 17.0094 50.4021 16.8101 49.1126C16.6245 47.8434 15.4885 46.6287 13.8899 46.2373ZM13.0611 26.4051C14.3099 27.7376 15.6528 27.2018 16.2521 27.274C16.8514 27.3437 17.5436 28.8979 17.1787 30.404C16.8151 31.9113 16.6696 31.6504 16.4201 32.5953C16.1067 33.7859 17.5674 34.6384 17.2289 35.7366C17.1348 36.0406 16.9254 36.4789 17.1787 36.8196C17.5724 37.3554 18.2119 36.6499 19.0181 36.7702C19.5241 36.8389 20.0385 36.7369 20.4813 36.4802C20.386 36.0153 18.5667 36.3003 18.1592 35.5492C17.9799 35.2186 17.5034 31.7948 18.5592 30.2646C19.5284 28.8612 18.6281 28.4229 17.9649 27.2892C18.9735 26.7484 19.9897 26.2218 21.013 25.7097C21.7151 26.5242 22.2091 27.2272 22.6354 28.2101C22.8611 28.6978 23.0154 29.2234 22.9978 29.7504C23.0103 30.2862 22.8135 30.8144 22.4787 31.2906C22.9226 31.221 23.3276 30.4204 23.4504 29.8023C23.5671 29.1829 23.478 28.5458 23.3125 27.9568C22.6944 26.0466 21.2562 24.6812 21.2562 24.6812C21.2562 24.6812 19.3127 25.3538 17.5097 26.343C16.9405 25.2638 16.3687 25.4564 15.6578 25.5172C14.9531 25.5805 14.5281 24.8281 14.5281 24.8281C15.0747 25.0054 15.8346 25.0346 16.854 24.6292C19.1385 23.7172 18.2708 21.8096 18.2708 21.8096C18.2708 21.8096 18.3184 23.1941 16.953 23.3904C16.1042 23.5108 13.8748 22.9534 13.8748 22.9534C13.8748 22.9534 15.6603 22.7432 16.0252 21.7045C16.5192 20.282 17.9373 20.8419 17.9373 20.8419C17.9373 20.8419 17.1812 19.9426 16.0151 20.6456C15.3042 21.0788 14.1243 21.2168 12.6761 20.4758C11.2317 19.7374 10.7076 20.9635 10.4142 20.9939C10.1233 21.0268 9.89511 20.5442 10.0581 20.0401C10.2211 19.5347 11.8825 19.0597 14.3839 18.9634C16.0339 18.9001 16.8439 19.2269 17.2025 19.4587C17.2063 19.3219 16.7612 18.7038 15.4007 18.3668C14.0403 18.0274 14.1293 17.465 14.1933 16.4972C14.256 15.5282 12.863 15.9146 12.5244 15.793C12.1859 15.6714 12.4993 14.9101 12.4993 14.9101C12.0141 15.052 11.6417 15.4497 11.6593 16.0425C11.6693 16.439 12.0455 16.724 12.4191 16.9102C12.794 17.0976 12.8554 17.4371 12.1809 17.8336C11.638 18.1528 10.8568 18.5682 9.8111 19.0217C7.48522 20.0287 10.3904 21.764 9.36849 22.296C8.34285 22.828 8.09333 23.5222 8.03566 23.9022C7.91027 24.7635 8.47952 25.4044 8.47952 25.4044C10.4794 24.3075 11.811 25.0751 13.0611 26.4051ZM24.8974 23.3271C24.8974 22.4632 25.1181 22.0478 25.3538 22.0376C26.0735 22.0085 26.2277 23.0383 26.2377 23.3182C26.2678 24.139 25.6685 24.533 25.6685 24.533C26.1826 24.5773 26.5888 23.8578 26.6553 23.4006C26.7531 22.7229 26.634 22.4886 26.397 22.0402C26.397 22.0402 27.9028 23.512 27.7424 25.146C27.5605 26.9979 25.4942 27.9694 25.4942 27.9694C26.1061 28.1911 27.8765 28.0112 29.01 26.552C29.6357 25.7477 29.909 24.5228 29.1504 22.5912C28.4633 20.8381 27.153 19.3536 28.5461 15.9931C29.9052 12.7175 33.4988 12.2894 35.6604 13.8461C35.7835 13.9318 35.8772 14.0539 35.9287 14.1957C36.0691 14.5833 35.0598 15.09 35.5024 15.323C35.8058 15.4864 36.2046 15.5282 36.5481 15.7917C36.8641 16.0324 36.9268 16.2388 37.0873 16.3883C37.2076 16.5023 37.2616 16.5251 37.3782 16.5251C36.4002 15.3686 36.2372 14.05 36.0792 12.6567C35.3118 12.4578 34.0943 11.8283 32.8907 11.6864C32.1358 11.5965 30.3102 11.4762 28.4796 12.3856C26.4158 13.4078 24.2341 15.4003 24.2341 20.016C24.2328 22.0022 24.8974 23.4398 24.8974 23.3271ZM1.93946 34.0735C3.00146 33.7822 3.00146 32.9842 3.01526 32.8208C3.18578 33.0488 3.24471 33.2983 3.24847 33.6226C3.71866 33.0044 3.60582 31.9341 2.45479 31.2944C2.45479 31.2944 2.51999 32.7004 1.62976 33.197C0.70191 33.7125 0.556464 34.0418 0.505056 34.551C0.477311 34.799 0.533909 35.0492 0.665548 35.2604C0.785918 35.463 0.990295 35.6036 1.18213 35.6518C0.901272 35.2705 0.846102 34.3724 1.9382 34.0735H1.93946ZM24.1752 14.4174C21.5697 14.5668 20.6594 13.6244 18.8789 12.758C17.0934 11.8878 15.5587 12.5237 15.2904 12.9328C16.1192 12.9848 17.0621 13.3179 18.8501 14.4516C22.4574 16.7404 24.1752 14.4174 24.1752 14.4174ZM23.0078 8.83389C22.6292 8.93522 21.7126 9.08595 22.1402 11.2216C22.5702 13.3584 23.7125 12.8404 24.0184 12.5668C24.0184 12.5668 22.4662 12.4034 22.421 10.5528C22.3771 8.69582 24.4962 9.03782 24.4962 9.03782C24.3695 8.89342 23.6072 8.67175 23.0078 8.83389ZM46.2215 35.995C45.7087 34.152 44.0737 30.3926 42.9553 28.6775C41.8306 26.9624 41.2563 28.1924 40.8087 28.58C40.3598 28.9676 39.0458 31.202 38.469 28.3228C37.8922 25.4399 34.947 22.9446 34.947 22.9446C35.5551 25.1144 35.3921 26.7028 35.2353 28.0948C35.0761 29.4856 35.4259 29.972 35.4259 30.8118C35.4259 31.6542 32.9308 32.2052 32.7991 32.8524C32.6725 33.501 36.5155 36.1584 40.1742 33.4946C41.2751 32.6928 41.9597 35.8012 42.3095 36.6423C42.6644 37.4859 41.9585 37.7443 42.791 38.7158C43.6248 39.6874 42.9829 40.5056 42.9829 41.1111C42.9829 41.6786 44.6342 43.1048 44.9376 42.7932C45.4692 42.2574 44.2643 39.0692 43.7841 37.9685C43.3038 36.8665 42.5352 33.3046 41.9936 32.3331C41.6801 31.7783 40.0727 32.1722 40.0727 32.1722L39.9598 31.7416C39.9598 31.7416 40.183 31.4528 40.3899 31.2324C42.0575 29.4831 41.9284 30.1962 43.6587 32.3344C45.3865 34.4687 43.3038 35.3135 44.8085 36.4143C46.3143 37.5163 46.7331 37.8393 46.2215 35.995ZM18.7987 7.34302C18.7987 7.34302 19.1184 7.45322 19.7328 7.46715C20.3472 7.47982 20.6506 6.90475 20.6506 6.90475C19.156 6.75402 18.7197 6.22075 18.7197 6.22075C18.7197 6.22075 20.1441 6.14729 20.865 6.05102C21.586 5.95349 22.9 5.59755 22.9 5.59755C22.9 5.59755 22.8498 6.78822 22.8411 7.47982C22.8348 8.17015 23.7137 8.01815 24.0071 7.92442C24.377 7.80662 24.4335 6.42975 24.4962 5.25049C24.5413 4.35875 23.888 4.35115 23.5144 4.50949C22.9627 4.74129 21.9182 5.28469 20.7873 5.63302C19.6576 5.98135 17.8871 5.72802 17.8871 5.72802L17.7906 6.09915L19.2789 7.02382L18.7987 7.34302ZM21.2474 12.9974L21.6512 12.8226C21.6512 12.8226 21.3427 11.9106 21.3202 11.1025C21.3026 10.2918 21.6311 8.50075 21.6311 8.50075H21.2487C21.2487 8.50075 21.0757 9.81682 20.85 10.9695C20.6268 12.1222 20.0287 11.8967 19.7365 11.8739C19.4431 11.8524 17.1185 11.5142 17.1185 11.5142V11.86L18.4413 12.0525C19.6174 12.2235 21.2487 12.9962 21.2487 12.9962L21.2474 12.9974ZM22.6969 18.0704C21.7377 18.6911 20.1629 18.3846 20.1629 18.3846C20.3735 18.6835 21.517 19.0394 22.0925 19.0306C22.5916 19.0192 23.0329 18.8203 23.4254 18.3846C24.2805 17.4396 23.9319 15.8652 23.7238 15.6676C23.7263 15.6676 23.6322 17.4662 22.6969 18.0704ZM20.4788 46.0992C18.2758 43.8775 19.0795 44.1017 20.4788 42.1194C21.5145 40.6513 26.5688 39.3555 29.1153 38.7855L29.0652 38.5499C27.7737 38.6082 25.8403 38.6766 23.8981 38.674C20.5704 38.6715 19.2275 37.3922 18.3648 37.553C15.0559 38.1788 17.4082 42.0117 13.5275 41.4683C9.64559 40.9274 9.77474 44.9922 9.77474 44.9922C10.8756 42.7312 12.0141 43.0491 12.8905 43.0111C13.9062 42.9668 14.8967 43.7242 16.3211 42.5133C16.6345 42.2498 18.0514 39.9306 17.8483 41.0896C17.7291 41.766 17.1486 42.5399 16.6859 43.0706C16.3549 43.4506 16.1631 43.7407 16.8364 44.1232L17.7981 44.6831C19.3704 45.5951 19.1096 46.6325 18.0865 46.5806C17.3567 46.54 16.4954 46.179 15.7731 46.103C15.4797 46.0739 15.1475 46.1955 15.6101 46.4197C15.8546 46.5362 16.1292 46.706 16.3712 46.9479C17.5235 48.1132 16.1455 47.6534 19.4457 47.4736C20.1478 47.433 20.6468 47.3672 21.0017 47.2937C22.3145 47.0036 20.7685 46.3893 20.4788 46.0992ZM37.4521 48.0372C37.1863 47.6192 36.9719 47.034 36.7249 46.5109C36.1983 45.3975 36.7149 45.6116 36.3901 44.9706C36.0265 44.2613 35.8435 44.9567 34.9269 43.5393C34.7476 43.2568 34.3827 43.381 34.3388 44.0586C34.2924 44.7363 35.4171 45.376 35.9287 47.0176C36.4453 48.6642 36.8691 48.8542 36.4503 49.8625C36.0366 50.8733 33.9953 50.8125 33.9953 50.8125C35.5877 52.487 38.8301 50.202 37.4521 48.0372ZM54.616 55.7677L53.9515 55.5245L73.4864 1.23389L74.1472 1.47709L54.616 55.7677Z" fill="white"/>
</g>
<defs>
<clipPath id="clip0_105_1682">
<rect width="163" height="57" fill="white" transform="translate(0.5)"/>
</clipPath>
</defs>
</svg>
