<svg width="240" height="44" viewBox="0 0 240 44" fill="none" xmlns="http://www.w3.org/2000/svg">
<g clip-path="url(#clip0_105_1628)">
<path d="M41.9964 6.80664C40.516 6.80664 39.0357 7.00112 37.6509 7.39007V13.8563C38.988 13.2243 40.4205 12.884 41.9964 12.884C46.6761 12.884 50.5918 16.0442 51.8811 20.3713H37.6509V26.4486H57.9456C58.1366 25.4276 58.2321 24.4066 58.2321 23.3856C58.2321 14.1967 50.9738 6.80664 41.9964 6.80664Z" fill="#C00D0D"/>
<path d="M41.9964 33.8383C40.4683 33.8383 38.988 33.498 37.6509 32.866V39.3322C39.0357 39.7212 40.4683 39.9157 41.9964 39.9157C48.825 39.9157 54.6985 35.5886 57.0861 29.5112H50.3053C48.443 32.1367 45.3868 33.8383 41.9964 33.8383Z" fill="#C00D0D"/>
<path d="M16.115 15.0234L8.33137 6.85547H0.5L16.115 23.3372L25.7132 13.1273V23.3372V24.2123C25.7609 25.4278 25.9519 26.5947 26.2862 27.7129C27.1935 31.0675 29.1036 33.9847 31.6822 36.1239V35.7836V35.735V23.3858V23.2886V10.5505V6.85547H23.8509L16.115 15.0234Z" fill="#C00D0D"/>
<path d="M70.3611 21.5383V7.1958H73.6082L78.3834 13.1759L82.9199 7.1958H86.0716V21.5383H82.4901V12.787L78.3357 18.135H78.2402L73.9424 12.787V21.5383H70.3611Z" fill="white"/>
<path d="M91.8018 19.7392C90.3692 18.3293 89.7007 16.5303 89.7007 14.3426C89.7007 12.1547 90.417 10.3558 91.8018 8.94587C93.2343 7.53593 95.049 6.80664 97.341 6.80664C99.6334 6.80664 101.495 7.53593 102.88 8.94587C104.313 10.3558 104.982 12.1547 104.982 14.3426C104.982 16.5303 104.265 18.3293 102.88 19.7392C101.448 21.1492 99.6334 21.8784 97.341 21.8784C95.049 21.8784 93.2343 21.1492 91.8018 19.7392ZM93.5209 14.3426C93.5209 15.558 93.9029 16.5303 94.6192 17.3083C95.3355 18.0862 96.2427 18.4751 97.341 18.4751C98.4871 18.4751 99.3943 18.0862 100.11 17.3569C100.827 16.579 101.209 15.6066 101.209 14.3912C101.209 13.2243 100.827 12.2033 100.11 11.4741C99.3943 10.6961 98.4393 10.3072 97.341 10.3072C96.2427 10.3072 95.3355 10.6961 94.6192 11.4255C93.9029 12.1547 93.5209 13.1271 93.5209 14.3426Z" fill="white"/>
<path d="M119.308 16.7248L120.979 19.3989C120.406 20.2254 119.594 20.8088 118.639 21.2464C117.637 21.6839 116.585 21.8784 115.392 21.8784C113.099 21.8784 111.238 21.1978 109.853 19.7878C108.468 18.4266 107.751 16.579 107.751 14.3426C107.751 12.2033 108.42 10.4531 109.805 8.99449C111.189 7.53593 112.909 6.80664 115.058 6.80664C117.54 6.80664 119.45 7.43869 120.74 8.75139L119.069 11.6685C118.114 10.7447 116.968 10.2586 115.583 10.2586C114.532 10.2586 113.625 10.6475 112.86 11.3768C112.097 12.1547 111.667 13.1271 111.667 14.3426C111.667 15.558 112.049 16.579 112.86 17.3083C113.673 18.0862 114.628 18.4266 115.726 18.4266C117.063 18.4751 118.257 17.8917 119.308 16.7248Z" fill="white"/>
<path d="M124.369 21.5383V7.1958H127.951V21.5383H124.369ZM137.692 7.1958L132.296 14.0025L138.36 21.5383H133.681L128.093 14.2941L133.156 7.1958H137.692Z" fill="white"/>
<path d="M141.321 19.7392C139.889 18.3293 139.22 16.5303 139.22 14.3426C139.22 12.1547 139.936 10.3558 141.321 8.94587C142.754 7.53593 144.569 6.80664 146.86 6.80664C149.153 6.80664 151.015 7.53593 152.4 8.94587C153.833 10.3558 154.5 12.1547 154.5 14.3426C154.5 16.5303 153.784 18.3293 152.4 19.7392C150.968 21.1492 149.153 21.8784 146.86 21.8784C144.616 21.8784 142.754 21.1492 141.321 19.7392ZM143.088 14.3426C143.088 15.558 143.47 16.5303 144.186 17.3083C144.903 18.0862 145.81 18.4751 146.909 18.4751C148.054 18.4751 148.961 18.0862 149.678 17.3569C150.394 16.579 150.776 15.6066 150.776 14.3912C150.776 13.2243 150.394 12.2033 149.678 11.4741C148.961 10.6961 148.006 10.3072 146.909 10.3072C145.81 10.3072 144.903 10.6961 144.186 11.4255C143.47 12.1547 143.088 13.1271 143.088 14.3426Z" fill="white"/>
<path d="M158.178 21.5375V7.19497C158.417 7.19497 158.894 7.19497 159.563 7.14634C160.231 7.09773 160.947 7.09773 161.663 7.04911C162.379 7.04911 163.048 7.00049 163.717 7.00049C167.967 7.00049 170.116 8.26458 170.116 10.7441C170.116 11.5706 169.877 12.2999 169.352 12.8834C168.827 13.4668 168.206 13.8071 167.489 13.953V14.0016C169.495 14.4878 170.498 15.606 170.498 17.3076C170.498 20.1761 168.253 21.6347 163.812 21.6347C163.192 21.6347 162.189 21.5861 160.852 21.5375C159.467 21.5375 158.559 21.5375 158.178 21.5375ZM164.051 9.96627C163.048 9.96627 162.284 9.96627 161.807 10.0149V13.175H164.147C164.767 13.175 165.293 13.0292 165.674 12.7375C166.104 12.4458 166.296 12.0569 166.296 11.522C166.296 10.501 165.532 9.96627 164.051 9.96627ZM164.051 15.4115H161.807V18.6204C163.239 18.7176 164.003 18.7662 164.194 18.7662C165.006 18.7662 165.627 18.6204 166.057 18.3286C166.487 18.0369 166.726 17.648 166.726 17.1131C166.677 15.995 165.818 15.4115 164.051 15.4115Z" fill="white"/>
<path d="M185.062 16.7248L186.734 19.3989C186.16 20.2254 185.349 20.8088 184.394 21.2464C183.391 21.6839 182.34 21.8784 181.146 21.8784C178.855 21.8784 176.992 21.1978 175.607 19.7878C174.222 18.4266 173.506 16.579 173.506 14.3426C173.506 12.2033 174.175 10.4531 175.56 8.99449C176.945 7.53593 178.663 6.80664 180.812 6.80664C183.295 6.80664 185.205 7.43869 186.495 8.75139L184.824 11.6685C183.869 10.7447 182.722 10.2586 181.337 10.2586C180.287 10.2586 179.38 10.6475 178.616 11.3768C177.851 12.1547 177.422 13.1271 177.422 14.3426C177.422 15.558 177.803 16.579 178.616 17.3083C179.427 18.0862 180.382 18.4266 181.481 18.4266C182.77 18.4751 184.011 17.8917 185.062 16.7248Z" fill="white"/>
<path d="M190.076 21.5383V7.1958H193.658V21.5383H190.076ZM203.447 7.1958L198.05 14.0025L204.115 21.5383H199.435L193.849 14.2941L198.91 7.1958H203.447Z" fill="white"/>
<path d="M210.275 21.5383H206.694V7.1958H210.275V16.2875L216.865 7.1958H220.447V21.5383H216.865V12.4466L210.275 21.5383Z" fill="white"/>
<path d="M228.517 21.5381H224.936V7.19556H228.517V16.2872L235.107 7.19556H238.689V21.5381H235.107V12.4464L228.517 21.5381ZM227.037 0H230.331C230.331 0.680661 230.475 1.21547 230.714 1.65304C230.952 2.09061 231.382 2.3337 231.955 2.3337C232.432 2.3337 232.815 2.09061 233.101 1.65304C233.34 1.21547 233.484 0.680661 233.484 0H236.779C236.779 1.45856 236.349 2.62541 235.536 3.54917C234.725 4.47292 233.531 4.95911 232.004 4.95911C230.331 4.95911 229.09 4.52154 228.278 3.59778C227.419 2.67403 227.037 1.50718 227.037 0Z" fill="white"/>
<path d="M72.7486 35.2484V34.3246H77.7149C77.6194 33.255 77.2374 32.3799 76.5211 31.7965C75.8048 31.2131 74.9453 30.9214 73.8947 30.9214C72.6531 30.9214 71.6026 31.3103 70.8386 32.1369L70.3611 31.3103C70.7908 30.8728 71.3161 30.5324 71.9369 30.2894C72.6054 30.0462 73.2261 29.9004 73.8947 29.9004C75.3751 29.9004 76.5689 30.3379 77.5239 31.2617C78.4789 32.1855 78.9087 33.4009 78.9087 34.9081C78.9087 36.318 78.4789 37.5335 77.5716 38.4572C76.6644 39.4296 75.5661 39.9159 74.229 39.9159C72.5576 39.9159 71.3161 39.5269 70.5043 38.749L71.0296 37.9225C71.7459 38.5545 72.7964 38.8949 74.1335 38.8949C75.1363 38.8949 75.9958 38.5545 76.7121 37.9225C77.3806 37.2418 77.7626 36.4153 77.8581 35.297H72.7486V35.2484Z" fill="white"/>
<path d="M81.5354 39.7212V30.0947H82.6337V39.7212H81.5354ZM89.2712 30.0947L84.5916 34.7136L89.6532 39.7212H88.173L83.2545 34.7621L87.8387 30.0947H89.2712Z" fill="white"/>
<path d="M98.6305 37.5335L99.1556 38.36C98.7738 38.8462 98.2485 39.2351 97.6277 39.5269C97.007 39.8186 96.2907 39.9159 95.6221 39.9159C94.1418 39.9159 92.948 39.4782 91.993 38.5545C91.0379 37.6307 90.6082 36.4153 90.6082 34.9081C90.6082 33.4981 91.0379 32.2826 91.9452 31.3589C92.8525 30.3865 93.9508 29.9004 95.2878 29.9004C96.9115 29.9004 98.153 30.2894 98.9648 31.1159L98.4395 31.991C97.6755 31.3103 96.6727 30.9214 95.4311 30.9214C94.4283 30.9214 93.521 31.3103 92.8047 32.0396C92.0885 32.8175 91.7064 33.7412 91.7064 34.8595C91.7064 36.075 92.0885 36.9987 92.8047 37.728C93.5687 38.4572 94.476 38.7976 95.6221 38.7976C96.9115 38.8462 97.8665 38.4086 98.6305 37.5335Z" fill="white"/>
<path d="M108.706 39.7212V31.1157H102.689V39.7212H101.591V30.0947H109.804V39.7212H108.706Z" fill="white"/>
<path d="M113.817 38.5059C112.909 37.5821 112.432 36.3666 112.432 34.9081C112.432 33.4495 112.909 32.2341 113.817 31.3103C114.724 30.3865 115.918 29.9004 117.398 29.9004C118.878 29.9004 120.024 30.3865 120.979 31.3103C121.887 32.2341 122.364 33.4495 122.364 34.9081C122.364 36.3666 121.887 37.5821 120.979 38.5059C120.072 39.4296 118.878 39.9159 117.398 39.9159C115.966 39.9159 114.772 39.4296 113.817 38.5059ZM114.676 32.0396C113.959 32.7689 113.578 33.7413 113.578 34.9081C113.578 36.075 113.912 36.9987 114.628 37.7766C115.344 38.5059 116.252 38.8949 117.35 38.8949C118.448 38.8949 119.403 38.5059 120.072 37.7766C120.788 37.0474 121.122 36.075 121.122 34.9081C121.122 33.7413 120.788 32.8175 120.072 32.0396C119.356 31.3103 118.448 30.9214 117.35 30.9214C116.299 30.97 115.392 31.3103 114.676 32.0396Z" fill="white"/>
<path d="M125.038 43.9996V30.0946H126.136V31.3587C126.518 30.9212 126.996 30.5808 127.616 30.2891C128.237 29.9973 128.906 29.8516 129.574 29.8516C130.911 29.8516 132.01 30.2891 132.773 31.2128C133.586 32.088 133.967 33.3035 133.967 34.7134C133.967 36.2206 133.537 37.4361 132.631 38.4084C131.723 39.3808 130.577 39.8669 129.097 39.8669C127.807 39.8669 126.804 39.5753 126.088 39.0404V43.9509H125.038V43.9996ZM129.336 30.9697C128.715 30.9697 128.093 31.1156 127.521 31.4073C126.948 31.6991 126.471 32.0393 126.183 32.477V38.0194C127.043 38.6029 128.046 38.8946 129.145 38.8946C130.291 38.8946 131.198 38.5057 131.866 37.7764C132.582 36.9984 132.917 36.0261 132.917 34.8592C132.917 33.6924 132.582 32.7687 131.962 32.0393C131.293 31.3101 130.433 30.9697 129.336 30.9697Z" fill="white"/>
<path d="M134.922 31.213V30.0947H143.566V31.213H139.794V39.7212H138.695V31.213H134.922Z" fill="white"/>
<path d="M152.734 39.7212V35.3456H146.574V39.7212H145.476V30.0947H146.574V34.3246H152.734V30.0947H153.833V39.7212H152.734Z" fill="white"/>
<path d="M157.127 39.7212V30.0947H158.225V33.3522H159.849C162.332 33.3522 163.574 34.4218 163.574 36.5125C163.574 37.4362 163.287 38.2141 162.667 38.8461C162.046 39.4296 161.091 39.7698 159.706 39.7698H157.127V39.7212ZM159.706 34.3732H158.273V38.7002H159.706C160.709 38.7002 161.425 38.5058 161.854 38.1655C162.284 37.8251 162.476 37.2417 162.476 36.5611C162.476 35.1025 161.521 34.3732 159.706 34.3732ZM165.771 39.7212V30.0947H166.868V39.7212H165.771Z" fill="white"/>
<path d="M171.309 39.7216H170.211V30.0952H171.309V38.1173L177.612 30.0952H178.711V39.7216H177.612V31.6995L171.309 39.7216ZM171.643 25.0874H172.646C172.646 25.6222 172.837 26.0598 173.172 26.4488C173.553 26.789 173.983 26.9835 174.604 26.9835C175.13 26.9835 175.607 26.789 175.941 26.4488C176.276 26.1084 176.466 25.6222 176.466 25.0874H177.47C177.47 25.8653 177.183 26.546 176.657 27.0322C176.132 27.5669 175.416 27.81 174.604 27.81C173.697 27.81 172.981 27.5669 172.456 27.0322C171.93 26.546 171.643 25.8653 171.643 25.0874Z" fill="white"/>
<path d="M186.973 39.7212V30.0947H188.071V38.7002H194.04V30.0947H195.138V38.7002H196.714V42.2008H195.664V39.7698H186.973V39.7212Z" fill="white"/>
<path d="M206.216 37.6794L206.551 38.5545C205.691 39.4782 204.545 39.9159 203.065 39.9159C201.585 39.9159 200.343 39.4782 199.436 38.5545C198.529 37.6307 198.051 36.4153 198.051 34.9081C198.051 33.4495 198.481 32.2341 199.34 31.3103C200.2 30.3865 201.346 29.9004 202.874 29.9004C204.115 29.9004 205.118 30.2894 205.93 31.1159C206.742 31.8937 207.171 32.9634 207.171 34.276C207.171 34.6164 207.172 34.9081 207.124 35.1512H199.34C199.388 36.318 199.77 37.2418 200.439 37.8739C201.155 38.5545 202.062 38.8462 203.208 38.8462C204.45 38.8462 205.453 38.4572 206.216 37.6794ZM202.73 30.97C201.728 30.97 200.869 31.2617 200.248 31.8937C199.626 32.4771 199.293 33.3036 199.197 34.276H206.025C206.025 33.255 205.691 32.4771 205.118 31.8937C204.545 31.2617 203.734 30.97 202.73 30.97Z" fill="white"/>
<path d="M217.008 39.7212V35.3456H210.848V39.7212H209.75V30.0947H210.848V34.3246H217.008V30.0947H218.107V39.7212H217.008Z" fill="white"/>
<path d="M220.017 31.213V30.0947H228.66V31.213H224.887V39.7212H223.788V31.213H220.017Z" fill="white"/>
<path d="M230.57 43.9996V30.0946H231.669V31.3587C232.05 30.9212 232.528 30.5808 233.149 30.2891C233.77 29.9973 234.438 29.8516 235.106 29.8516C236.444 29.8516 237.542 30.2891 238.306 31.2128C239.118 32.088 239.5 33.3035 239.5 34.7134C239.5 36.2206 239.07 37.4361 238.163 38.4084C237.255 39.3808 236.109 39.8669 234.629 39.8669C233.34 39.8669 232.337 39.5753 231.621 39.0404V43.9509H230.57V43.9996ZM234.82 30.9697C234.199 30.9697 233.579 31.1156 233.005 31.4073C232.432 31.6991 231.955 32.0393 231.669 32.477V38.0194C232.528 38.6029 233.531 38.8946 234.629 38.8946C235.775 38.8946 236.682 38.5057 237.351 37.7764C238.067 36.9984 238.401 36.0261 238.401 34.8592C238.401 33.6924 238.067 32.7687 237.446 32.0393C236.825 31.3101 235.966 30.9697 234.82 30.9697Z" fill="white"/>
</g>
<defs>
<clipPath id="clip0_105_1628">
<rect width="239" height="44" fill="white" transform="translate(0.5)"/>
</clipPath>
</defs>
</svg>
