<svg width="168" height="48" viewBox="0 0 168 48" fill="none" xmlns="http://www.w3.org/2000/svg">
<g clip-path="url(#clip0_105_1418)">
<mask id="mask0_105_1418" style="mask-type:luminance" maskUnits="userSpaceOnUse" x="0" y="0" width="168" height="48">
<path d="M168 0H0V48H168V0Z" fill="white"/>
</mask>
<g mask="url(#mask0_105_1418)">
<path d="M43.5983 7.06287C43.5983 7.06287 47.8154 9.94287 47.6793 11.4514C47.2032 18.0343 45.0267 24.7543 41.4899 30.8571C37.2048 38.3315 31.0154 44.4343 24.2138 48H23.7376L21.9692 44.4343C28.2267 41.28 33.8721 35.7258 37.885 28.8C41.898 21.8743 43.9384 14.1258 43.5983 7.06287Z" fill="white"/>
<path d="M4.08102 6.92578C3.74093 14.0572 5.71341 21.7372 9.72637 28.663C13.7394 35.5886 19.3846 41.2115 25.6421 44.3658L23.8737 48.0001H23.5336C16.664 44.4343 10.4745 38.3315 6.12151 30.7886C2.65268 24.7543 0.544177 18.103 4.78921e-05 11.7258C-0.135984 10.0115 4.08102 6.92578 4.08102 6.92578Z" fill="white"/>
<path d="M24.5544 0C26.3681 0 28.0912 0.0685715 29.7235 0.205715C35.3689 0.822857 40.4021 2.26285 44.4831 4.45715C45.0952 4.8 46.0474 6.37715 46.7276 8.02285C47.3397 9.39428 47.8158 10.8343 47.6799 11.4514C46.9997 10.9714 46.0474 10.3543 45.2313 9.80572C44.4831 9.32572 43.8029 8.91428 43.5309 8.70857C43.2587 8.57143 42.9867 8.43428 42.7147 8.22857C39.0418 6.24 34.5528 4.93715 29.4515 4.38857C27.9099 4.25143 26.2774 4.18285 24.5544 4.18285C16.2564 4.18285 9.31871 5.82857 4.14948 8.91428C3.94544 9.05143 3.46932 9.39428 2.85718 9.73715C2.76649 9.78286 2.69848 9.82858 2.65313 9.87428C1.76892 10.4914 0.748677 11.1771 0.000498374 11.7257C-0.0675178 11.04 0.408596 9.53143 1.02074 8.02285C1.7009 6.44572 2.58512 5.00572 3.19726 4.66285C8.84261 1.57715 16.1203 0 24.5544 0Z" fill="white"/>
<path fill-rule="evenodd" clip-rule="evenodd" d="M28.839 25.3029C28.9749 25.2343 29.5191 24.8915 29.5191 25.3715C29.5191 25.92 29.8591 26.1943 30.1313 26.4C30.3352 26.6743 30.4033 25.9886 30.6754 26.6743C31.0155 27.4286 31.4235 28.1829 31.8316 28.4571C31.8316 28.4571 31.3555 28.5258 31.0835 28.32C31.0835 28.32 31.2875 28.8686 31.5596 28.9371C31.5596 28.9371 31.1515 29.1429 30.9474 28.8686C31.0155 30.1029 29.7232 31.4058 29.3151 31.7486C29.111 31.9543 29.451 32.2286 29.9272 32.0915C30.1993 31.8629 30.4259 31.8858 30.6074 32.16C30.8794 32.0687 31.0381 32.1372 31.0835 32.3658C31.3555 32.5715 31.3555 32.7771 31.0835 32.8458C31.2875 32.5715 30.7433 32.2971 30.6074 32.64C30.8794 32.64 30.6754 33.2571 30.4713 33.3943C30.6754 32.9143 30.2673 32.8458 29.8591 33.12C29.9499 33.2571 29.9725 33.3943 29.9272 33.5315C29.5871 33.12 26.3903 32.7771 26.3903 33.4629C26.2543 33.1886 26.2543 32.9829 26.5944 32.8458C26.5944 32.64 26.7984 32.5715 27.1385 32.5715C27.1385 31.8171 26.4584 31.9543 25.8462 31.8858C25.6422 31.8858 25.1661 31.8171 24.69 31.68C24.0778 31.5429 23.5336 31.3371 23.5336 31.3371C23.0575 31.4743 23.1255 32.0229 24.0097 32.2286C24.2365 32.0457 24.3725 32.0687 24.4178 32.2971C24.7352 32.3429 24.8713 32.48 24.8259 32.7086C24.69 32.5715 24.5539 32.5029 24.4178 32.5715C24.2138 32.8458 24.2138 32.5029 24.0778 32.7771C24.5539 32.7771 24.69 33.0515 24.5539 33.5315C24.4859 33.1886 24.4178 33.0515 24.1458 33.2571C23.9417 33.3258 23.6697 33.2571 23.3977 33.12C22.8535 33.0515 22.5135 33.0515 22.7175 33.2571C22.8081 33.3486 22.8309 33.44 22.7855 33.5315L22.7175 33.7371C22.6494 33.3943 21.6972 33.3943 21.4932 33.2571L21.3571 33.12C21.3118 33.12 21.2891 33.0972 21.2891 33.0515C21.0851 32.9829 20.677 32.9143 20.541 32.9829C20.1329 33.1886 19.7248 32.7086 19.5207 33.2571C19.4526 32.8458 19.5887 32.64 19.9968 32.5715C20.0648 32.2286 20.4049 32.2286 20.813 32.3658C21.9013 32.2971 20.4729 31.8858 20.949 30.9943C21.0171 30.9258 21.0851 30.8571 21.1531 30.72C21.4932 30.24 21.3571 29.6915 20.541 29.76C21.4932 31.8858 18.0923 32.7771 17.7523 30.72C17.6162 30.24 17.7523 29.6915 17.8883 29.6229C17.8883 29.6229 17.8203 29.9658 17.8203 30.3771C17.9564 31.9543 20.2009 31.8858 20.3369 30.5143C20.609 27.9771 16.1199 29.4858 15.3717 27.4286C15.0997 26.8115 16.1199 26.0571 16.1199 24.8915C16.1199 24.6858 15.8478 23.3829 15.4397 23.52C15.3717 23.5886 15.3717 23.6571 15.3717 23.7258C15.5758 24.2058 15.7118 24.48 15.6438 25.2343C15.6438 25.2343 15.5758 25.3715 15.5077 25.44C15.5758 25.3715 15.6438 24.8915 15.5077 24.4115C15.4397 24.1371 15.3036 23.8629 15.3036 23.8629C15.2357 24 15.2357 24 15.1677 24.0686C15.0316 24.2515 14.8956 24.3657 14.7596 24.4115C14.2835 24.5486 14.0114 25.0286 13.8754 26.3315C13.3993 25.3029 13.2632 24.6858 13.5352 23.9315C13.7393 23.6571 13.6713 23.1086 13.8754 22.7658C13.8754 22.7658 13.8526 22.7658 13.8074 22.7658C13.2632 22.4915 12.7871 22.1486 12.8551 21.4629C12.9232 20.9829 13.3313 20.5715 13.9433 20.7086L13.8754 20.0915L13.9433 20.16C14.2835 20.5029 14.4875 20.9143 14.2835 21.5315C14.1474 21.2571 13.9433 21.1886 13.6713 21.12C13.8754 20.9143 13.6713 20.7086 13.3313 21.0515C13.0591 21.2571 13.0591 21.6686 13.3313 22.0115C13.4672 22.1486 13.8074 22.3543 14.0114 22.3543C14.1474 22.1486 14.2835 21.8743 14.4194 21.8058C14.6916 21.4629 14.8275 20.9829 14.9636 20.5715C15.4397 19.0629 16.8 18.8571 18.0923 19.7486C18.1377 19.7943 18.183 19.8171 18.2284 19.8171C18.3191 19.8629 18.3871 19.9086 18.4325 19.9543C18.4778 20 18.5232 20.0457 18.5684 20.0915C18.6591 20.1372 18.7272 20.1829 18.7725 20.2286C18.7725 20.2286 19.1126 20.0229 19.5207 19.9543C19.9288 19.8171 20.541 19.8171 20.7449 19.8171C20.7449 19.7486 20.2689 19.4058 20.2689 18.9943C20.2689 18.9943 19.2487 19.2686 18.7725 18.3771C18.2284 17.4858 16.5961 17.8971 15.7118 18.4458C15.7118 18.4458 15.4397 17.6229 16.1878 17.4171C16.1878 17.4171 15.8478 16.9371 16.664 16.6629C17.5483 16.32 15.8478 15.5658 17.0722 15.0858C18.2964 14.5371 19.1126 13.7829 17.9564 13.9886C17.2762 14.1258 17.6162 13.5771 18.0243 13.1658C18.1604 12.96 18.2284 12.6171 18.1604 12.4115C18.0923 12.2058 18.0243 11.9315 17.8883 11.7257C17.8883 11.68 17.8656 11.6343 17.8203 11.5886C17.6162 11.1772 17.3442 10.9715 17.3442 10.8343C17.3442 10.6972 17.3442 10.56 17.4122 10.4915L16.392 8.98289C16.1199 8.70861 16.3239 8.50289 16.528 8.50289C16.5961 8.50289 16.664 8.50289 16.664 8.50289C16.8 8.70861 17.1401 9.12003 17.7523 10.0115C17.9564 10.0115 17.8883 10.08 18.0243 10.08C18.0243 10.08 18.047 10.08 18.0923 10.08C18.1377 10.1257 18.1604 10.1486 18.1604 10.1486C18.1604 10.1486 18.183 10.1486 18.2284 10.1486C18.3645 10.3543 18.3645 10.6286 18.4325 10.7657C18.5004 10.8343 18.4325 10.9715 18.4325 11.04C18.5004 11.1086 18.5684 11.2457 18.6365 11.3143C20.2689 13.5086 22.4454 16.8 24.6219 19.8171C25.098 18.24 25.03 16.5258 25.03 16.5258C24.758 17.6229 23.8738 17.5543 23.8738 17.5543C24.8259 16.6629 24.962 14.88 24.962 14.88C24.69 17.0743 23.6017 16.7315 23.6017 16.7315C23.6017 16.7315 24.0778 16.8686 24.3499 15.0171C24.4178 13.7829 25.3701 12.3429 26.1183 12.2058C25.7102 12.1371 24.6219 12.4115 24.4178 12.8229V12.7543C24.4859 12.5486 24.5539 12.3429 24.5539 12.0686C25.5061 11.5886 26.3903 12.2058 27.3426 11.5886C27.3426 11.4515 27.2065 11.3143 27.1385 11.2457C27.0706 11.1772 27.0706 11.1086 27.2065 11.1086L27.8867 11.2457C28.0227 11.2457 27.8867 11.1086 27.8867 11.04C27.7507 10.8343 28.1587 10.9715 28.4988 11.3829C28.6349 11.4515 28.7709 11.5886 28.839 11.52C29.5191 11.3143 29.7912 11.4515 29.9952 12.1371V12.2058L29.8591 12.2743C30.0632 12.48 30.1313 12.6858 30.1313 12.8915C30.1313 12.96 30.1313 12.96 30.1313 13.0286C30.4033 13.44 30.6754 13.8515 31.0155 14.1943C31.1515 14.3315 31.2194 14.4 31.3555 14.5371H31.4235C31.5142 14.6286 31.5369 14.8115 31.4916 15.0858C31.6275 15.4286 31.4916 15.6343 31.2194 15.6343C31.1515 15.5658 31.0835 15.4971 31.0155 15.4286C30.9701 15.4743 30.9474 15.4971 30.9474 15.4971C30.9928 15.4514 31.0155 15.4286 31.0155 15.4286C31.0607 15.4286 31.1061 15.4057 31.1515 15.36C31.2875 15.2915 31.4916 14.8115 31.2875 14.6743C30.8794 14.4 30.1993 13.3715 29.7912 13.3715C29.383 13.3029 29.2471 13.2343 29.5871 12.96C29.7232 12.8687 29.7912 12.8 29.7912 12.7543C29.7458 12.6629 29.6778 12.5714 29.5871 12.48C29.451 12.3887 29.2243 12.2743 28.9069 12.1371C28.1587 11.7943 27.3426 11.9315 26.8665 12.3429C24.8259 14.1258 26.8665 17.4171 24.758 19.8858C25.9142 21.5315 27.0025 22.9715 27.9548 24.2743L28.4988 24.4115L28.839 25.3029ZM21.9013 33.12C22.1053 33.1886 22.3094 33.1886 22.3094 33.12C22.3094 32.9829 22.3094 33.0515 22.3094 32.9829C22.5814 32.8458 23.6017 33.0515 23.6017 33.0515C23.7377 33.0515 23.8058 33.0515 23.8738 32.9829C24.69 32.4343 21.2891 32.8458 21.7652 31.4743L21.8332 31.3371C22.3094 29.9658 24.8939 31.6115 26.1862 31.6115C27.0025 31.6115 27.4106 31.5429 27.4106 32.5715C27.4106 32.64 27.2065 32.64 27.0706 32.64C26.5944 32.7086 26.7984 32.9143 27.2065 32.9143C27.2745 32.9143 27.6826 32.9143 28.0227 32.9143C28.6349 32.8458 29.0429 33.0515 29.451 33.0515C29.5191 33.0515 29.383 32.8458 29.451 32.8458C29.8591 32.8458 29.9952 32.8458 29.9952 32.7771C30.0632 32.7771 30.1313 32.7086 30.1313 32.64C30.1313 32.64 29.9952 32.5715 29.9272 32.5715C29.5191 32.64 28.4309 32.64 28.0227 32.4343C27.8867 32.4343 27.8867 32.4343 27.8187 32.3658C27.7507 32.16 27.6826 31.9543 27.7507 31.68C28.0227 31.4743 30.7433 31.5429 30.6754 28.3886C30.6754 28.3886 30.9474 28.2515 30.6074 27.5658C30.4033 26.7429 30.1313 27.5658 29.7912 26.8115C29.5191 26.3315 29.247 26.2629 29.0429 25.7829L29.179 26.3315C29.111 26.2629 28.9749 26.2629 28.9069 26.2629C28.6349 26.2629 28.6349 26.3315 28.9749 26.7429C29.0429 26.8115 29.179 26.88 29.179 26.9486C29.3151 27.4971 29.247 28.0458 29.383 28.3886C29.451 28.7315 29.7912 28.8686 30.0632 28.7315C29.179 30.4458 28.2268 30.5829 26.8665 29.6229C26.3903 29.2115 26.1862 28.4571 24.8259 27.9086C24.0097 27.5658 22.9216 27.5658 22.4454 27.1543C22.5814 27.36 22.6494 27.5658 22.7175 27.7029C22.7175 27.6572 22.7175 27.6343 22.7175 27.6343C22.9216 28.32 22.6494 29.28 21.3571 29.0743C21.0171 28.9371 20.0648 28.8 19.8607 28.8C19.5887 28.8 19.4074 28.7772 19.3167 28.7315C19.4074 28.7772 19.4754 28.8 19.5207 28.8C19.5661 28.8457 19.6114 28.8686 19.6568 28.8686C19.702 28.9143 19.7701 28.9371 19.8607 28.9371C19.9061 28.9829 19.9515 29.0286 19.9968 29.0743C20.1329 29.1429 20.2689 29.3486 20.4049 29.4171C21.4932 29.28 21.9693 30.1029 21.2211 30.8571C20.609 31.4058 21.6972 32.0229 21.3571 32.3658C21.2211 32.5029 20.4729 32.3658 20.3369 32.5029C20.2689 32.5715 20.2689 32.7086 20.3369 32.7771C20.541 32.8458 20.813 32.7771 21.0171 32.7771C21.2891 32.8458 21.7652 33.0515 21.9013 33.0515C21.9693 33.0515 21.8332 33.0515 21.6972 33.0515C21.7878 33.0972 21.8559 33.12 21.9013 33.12ZM22.5814 28.1143C22.5814 27.84 22.3094 27.36 22.1733 27.2229C22.1053 27.1543 21.9013 27.0171 21.9013 26.9486C22.0373 26.6743 23.1255 27.1543 23.3296 27.1543C24.6219 27.5658 23.8738 26.6743 23.8738 26.6743C24.758 26.4686 24.0097 25.5771 24.0097 25.5771C25.098 25.5771 25.5061 26.8115 26.7984 26.4C28.0227 26.0571 27.6826 27.7715 27.6826 28.9371C27.6826 29.0743 27.6146 29.2115 27.6826 29.28C28.0907 30.24 29.111 29.8286 29.5871 29.0058C29.5191 29.0058 29.111 29.1429 29.0429 27.7029C28.9069 26.1943 27.8867 26.5371 28.4988 25.9886C28.5442 25.9886 28.5896 25.9886 28.6349 25.9886L27.3426 25.1658L27.4106 24.6171C24.2819 20.2286 21.1531 15.7715 18.0243 11.3829C17.9564 11.3829 17.9564 11.3829 17.9564 11.3829C18.4325 12.8229 18.9086 12.2743 18.2284 13.0286C17.6162 13.8515 18.4325 13.5086 18.4325 13.5086C19.4526 13.2343 18.9086 14.4686 18.9086 14.4686C19.7928 14.4686 20.7449 15.4286 20.7449 15.4286C20.2009 15.1543 19.1126 14.6743 17.7523 15.0858C16.46 15.4286 17.2081 16.1143 17.2081 16.1143C17.2081 16.1143 17.3442 15.36 18.0923 15.7715C19.1126 16.32 20.7449 15.6343 20.7449 15.6343C20.2009 16.5943 18.8406 16.9371 18.8406 16.9371C19.7248 17.5543 21.1531 16.4571 21.1531 16.4571C21.1531 16.4571 21.0851 18.3771 19.2487 17.5543C17.4803 16.8 16.2559 17.8286 16.2559 17.8286C16.2559 17.8286 18.1604 17.1429 18.7725 17.76C19.3846 18.3771 20.609 18.24 20.609 18.24C20.609 19.2 21.3571 19.68 21.3571 19.68C21.8332 19.9543 22.9896 20.0915 23.3296 20.2286C23.7377 20.2971 23.6017 20.2971 23.8738 20.3658C23.9417 20.3658 24.0778 20.5029 24.0778 20.5029C23.9871 20.5029 23.8738 20.48 23.7377 20.4343C23.6017 20.5715 23.4656 20.7771 23.4656 21.1886C23.3977 22.1486 23.3296 22.2858 23.0575 22.7658C22.8535 23.1771 22.9216 23.7943 22.9216 23.7943C22.9216 23.7943 23.3977 23.8629 23.9417 24.2058C24.4859 24.48 24.8939 24.4115 25.03 24.2743C25.03 24.2743 24.6219 24.7543 23.8058 24.4115C22.9896 24.0686 22.6494 24 22.6494 24C22.6494 24 22.5814 23.1771 22.8535 22.6971C23.3296 21.8058 22.9896 21.6 23.1255 20.9829C23.1709 20.7086 23.2616 20.5029 23.3977 20.3658C22.6494 20.2286 21.9693 20.16 21.2891 20.0229C20.609 21.8743 20.949 23.3829 20.949 23.3829L22.2413 23.5886L20.609 23.7943C20.609 23.7943 19.9968 21.4629 20.677 19.9543C20.2689 20.0229 19.8607 20.0915 19.5207 20.2971C18.4325 20.7771 17.9564 21.3943 17.6162 23.1771C17.5483 23.7943 17.8883 25.3715 17.2762 25.8515C17.7523 25.7829 18.9086 26.3315 19.5207 25.92C22.6494 24.1371 18.5684 23.8629 22.4454 24.6171C24.4178 24.96 26.7304 24.5486 26.7304 24.5486C25.5742 25.0286 22.7175 25.3029 22.7175 25.3029C22.7175 25.3029 22.5135 25.7829 21.9013 26.4C21.3571 27.0171 20.677 27.1543 21.4932 27.9771C21.8332 28.32 21.9693 28.5258 22.0373 28.7315C22.5135 28.5943 22.5135 28.2515 22.5814 27.9771C22.5814 27.9771 22.5814 28.0458 22.5814 28.1143ZM30.8794 15.4286C30.9474 15.4971 31.0155 15.5658 31.0155 15.5658C30.8794 15.9086 30.2672 15.4286 30.1313 15.2915C30.0632 15.2229 28.7709 14.8115 28.7709 14.8115C29.3151 17.8286 30.7433 17.8286 31.1515 19.8858C31.2194 20.5715 31.9677 19.8858 32.3758 19.4743C32.5119 19.3371 32.7158 19.2686 32.8519 19.3371C33.192 19.4743 33.7361 20.7771 34.0762 21.12C34.2122 21.3258 34.3483 21.5315 34.4842 21.8058C34.6203 22.1486 34.4842 22.4915 34.6203 22.7658C35.0284 23.4515 34.9604 24.0686 34.9604 24.0686C34.9604 24.0686 34.8243 24.2058 34.0762 23.6571C33.328 23.04 34.1442 22.9029 33.9401 22.1486C33.8041 21.3943 32.5798 20.4343 32.5798 20.4343L31.6275 21.3943C31.6956 21.3943 31.8316 21.3943 32.1036 21.3258C32.8519 21.2571 33.0559 22.1486 33.3961 23.1771C33.532 23.7258 33.7361 24.0686 33.7361 24.48C33.8041 24.8229 33.8041 25.1658 34.0081 25.44C34.3483 26.0571 34.2122 26.7429 34.2122 26.7429C34.1442 26.8115 33.8041 26.6058 33.532 26.4C33.328 26.2629 33.1239 25.9886 33.1239 25.9886C33.1239 25.9886 33.532 25.1658 33.26 24.8915C33.1239 24.7543 32.988 24.5486 32.9199 24.4115C32.9199 24.2743 32.9199 24.1371 33.0559 24.0686C33.0559 24.0229 33.0559 23.9772 33.0559 23.9315C33.0559 23.7258 32.7839 23.1771 32.5119 22.6286C32.5119 22.6286 32.5119 22.6057 32.5119 22.56C32.5119 22.56 32.4891 22.56 32.4438 22.56C32.1717 22.08 31.4235 22.0115 30.8794 22.0115C30.1993 22.0115 29.111 22.4915 28.9069 22.0115C31.2875 20.3658 30.1313 19.4058 29.2471 17.4171C28.9069 16.5943 28.5668 15.6343 28.2948 14.6743C27.4786 13.6458 28.1587 13.2343 28.1587 13.2343C28.1587 13.2343 27.7507 14.5371 28.839 14.5371C29.5191 14.4686 30.2673 15.4971 30.8794 15.4286ZM31.6275 21.3943C31.4916 21.4629 31.6275 21.4629 31.6275 21.4629V21.3943ZM22.5135 28.1143C22.5135 28.1143 22.5135 28.0915 22.5135 28.0458C22.5135 28.0458 22.5135 28.0686 22.5135 28.1143ZM19.2487 12.1371C19.2487 12.1371 20.4729 11.3143 21.6972 12.0686C22.9896 12.8229 24.0778 12.6858 24.0778 12.6858C24.0778 12.6858 22.9216 13.7829 21.7652 13.0286C20.4049 12.0686 19.9968 12.0686 19.2487 12.1371ZM17.0722 25.92C17.8203 24.96 17.2762 23.52 17.4803 22.3543C17.5483 21.8058 17.8203 21.12 18.2284 20.64C16.9361 20.2971 16.1199 21.2571 15.6438 23.04C16.528 24 16.528 25.3715 15.9158 26.4686C15.6438 27.0858 15.3717 27.2229 15.9839 27.5658C16.0519 27.36 16.1199 27.2229 16.2559 27.0171C16.2559 26.88 16.2559 26.8115 16.2559 26.6743C16.392 26.3315 16.8 26.1943 17.0722 25.92ZM17.0722 25.92C17.1401 25.92 17.2081 25.92 17.2081 25.8515C17.2081 25.8515 17.2309 25.8515 17.2762 25.8515C17.1855 25.8515 17.1174 25.8743 17.0722 25.92ZM22.9216 9.53146C22.9216 9.53146 22.5135 10.0115 22.5814 10.9029C22.5814 10.9029 22.1733 11.7257 23.0575 12.2743C23.0575 12.2743 22.1733 11.7257 21.4252 11.6572C20.677 11.52 20.2009 11.5886 19.8607 11.8629C20.2689 11.3143 21.4932 11.2457 22.1733 11.52C22.1733 11.52 22.1733 11.3143 22.3774 11.04C22.3774 11.04 22.1733 10.08 22.9216 9.53146ZM23.5336 23.3829C23.5336 23.3829 23.9417 22.9029 24.4178 23.52C24.962 24.1371 24.962 24.2058 24.962 24.2058C24.962 24.2058 24.8939 24.1371 24.2819 23.5886C23.8058 23.1771 23.5336 23.3829 23.5336 23.3829ZM18.2964 30.3086C18.3645 29.6229 19.1806 29.8971 19.2487 29.8971C19.2487 29.8971 19.0446 29.8971 18.8406 29.9658C18.7045 30.1029 18.6365 30.3771 18.8406 30.5143C19.2487 30.72 19.3846 30.24 19.3846 30.24C19.4526 30.3086 19.4527 30.8571 18.9086 30.9258C18.5684 30.9258 18.2284 30.6515 18.2964 30.3086ZM29.7232 23.3143C30.8794 22.7658 32.1717 22.08 32.4438 22.4915C32.4438 22.4915 32.4438 22.5143 32.4438 22.56C32.4438 22.4915 31.9677 22.4915 31.5596 22.6286C30.3352 23.1086 29.247 23.9315 27.8867 24.1371C28.0907 24 28.9069 23.6571 29.7232 23.3143ZM24.2138 8.36574C24.2819 8.70861 24.1458 9.12003 23.9417 9.39431C23.9417 9.39431 23.9417 9.39431 23.5336 9.39431C24.0097 8.91431 23.9417 8.09146 23.1255 8.36574C22.1733 8.77717 21.0851 8.57146 21.0851 8.57146C21.3571 9.05146 22.5135 8.84574 22.2413 9.12003C21.5612 9.60003 20.813 9.12003 20.813 9.12003C21.2891 9.25717 21.6293 9.05146 21.6293 9.05146C20.949 8.91431 20.813 8.43431 20.813 8.43431C20.881 8.50289 22.2413 8.64003 23.3977 7.95431C23.8738 7.61146 24.0778 7.88574 24.2138 8.22861C24.2591 8.22861 24.3045 8.22861 24.3499 8.22861C24.5539 8.36574 24.758 8.64003 24.2819 9.32574C24.2819 9.39431 24.1458 9.46289 24.0778 9.46289C24.0778 9.46289 24.0778 9.46289 24.0778 9.39431C24.2138 9.25717 24.4178 8.77717 24.3499 8.57146C24.3499 8.43431 24.2819 8.36574 24.2138 8.36574ZM23.8738 32.5029C24.0097 32.5029 24.0097 32.2971 23.8738 32.2971C23.8738 32.2514 23.8284 32.2286 23.7377 32.2286H23.8058C23.7377 32.2286 23.4656 32.16 23.3977 32.0915L23.2616 32.0229C23.2616 31.9772 23.239 31.9543 23.1936 31.9543C23.1936 31.8858 22.9216 31.68 22.9216 31.6115L22.7855 31.4058C22.7401 31.4058 22.7175 31.3829 22.7175 31.3371C22.7175 31.2686 22.5814 31.2 22.5135 31.2L22.4454 31.1315C22.3094 30.9943 22.1053 31.0629 22.1053 31.2686C22.1053 31.3371 22.1053 31.3371 22.1053 31.4743C22.1507 31.52 22.1733 31.5657 22.1733 31.6115C22.0373 31.5429 22.0373 31.4743 22.0373 31.3371C21.9013 31.4743 21.8332 31.5429 21.9013 31.68L22.1733 31.9543C22.2187 31.9086 22.2413 31.8401 22.2413 31.7486C22.7174 32.5715 23.2616 32.2286 23.8738 32.5029ZM18.2284 28.4571C19.0446 28.5943 19.8607 28.3886 20.881 28.6629C21.0171 28.4571 21.1531 28.0458 20.4729 27.6343C19.5887 27.0171 19.3167 27.4286 19.9288 26.8115C20.4729 26.1943 20.609 25.44 20.609 25.44C20.609 25.44 18.9765 26.4 17.8203 26.7429C17.2762 26.88 16.8 27.36 16.46 27.9086C17.0722 28.32 17.4803 28.32 18.2284 28.4571ZM24.2819 10.2857C24.2819 10.2857 23.6017 9.94289 22.9896 10.2857C22.9896 10.2857 23.0575 11.9315 24.0097 11.7257C24.0097 11.7257 22.7855 12.8915 22.8535 10.2172C22.8535 10.2172 23.6697 9.66861 24.2819 10.2857ZM24.0097 13.3715C24.0097 13.3715 24.1458 15.36 23.1255 15.2229C22.1053 15.0858 21.5612 14.7429 21.5612 14.7429C21.5612 14.7429 22.6494 15.2229 23.3296 14.5371C23.8738 13.9886 24.0097 13.3715 24.0097 13.3715ZM15.3717 28.5943C15.3717 28.6629 15.7798 28.9371 15.8478 28.9371C15.7798 29.0058 15.7798 29.0743 15.7118 29.2115C15.7118 29.28 15.7118 29.3486 15.7118 29.4858C15.7118 29.8286 16.2559 30.24 16.732 30.72C16.9361 31.0629 17.0722 31.2686 17.0041 31.5429C16.8 31.6115 15.9839 31.6115 15.8478 31.3371C15.7571 31.1087 15.7571 30.9258 15.8478 30.7886C15.7798 30.24 15.3717 29.76 15.2357 29.3486C15.1677 29.1429 15.3036 28.8686 15.3717 28.6629C15.3717 28.6629 15.3717 28.64 15.3717 28.5943Z" fill="white"/>
<path fill-rule="evenodd" clip-rule="evenodd" d="M113.179 36.2743C113.224 36.3657 113.247 36.4343 113.247 36.48C113.247 36.6857 113.111 36.8915 112.907 36.8915H111.411C111.207 36.8915 111.07 36.7543 111.07 36.6171L110.458 34.9715H107.262L106.717 36.6171C106.649 36.7543 106.513 36.8915 106.377 36.8915H104.881C104.745 36.8915 104.654 36.8457 104.609 36.7543C104.564 36.7086 104.541 36.6629 104.541 36.6171C104.541 36.6171 104.541 36.5943 104.541 36.5486C104.541 36.5029 104.541 36.48 104.541 36.48C104.541 36.4343 104.541 36.4115 104.541 36.4115L108.01 26.9486C108.01 26.9029 108.01 26.88 108.01 26.88C108.055 26.8343 108.1 26.7885 108.146 26.7428C108.146 26.7428 108.168 26.7428 108.214 26.7428C108.259 26.7428 108.305 26.7428 108.35 26.7428L109.438 26.6743C109.483 26.6743 109.529 26.6971 109.574 26.7428C109.619 26.7428 109.642 26.7428 109.642 26.7428C109.687 26.7885 109.733 26.8343 109.778 26.88C109.778 26.88 109.778 26.9029 109.778 26.9486L113.179 36.2743ZM109.846 32.9828L108.962 30.3086L108.01 32.9828H109.846ZM104.677 33.7371C104.586 34.2401 104.428 34.6971 104.201 35.1086C103.974 35.52 103.702 35.8628 103.385 36.1371C103.067 36.4115 102.705 36.6171 102.296 36.7543C101.888 36.8915 101.458 36.96 101.004 36.96C100.46 36.96 99.9611 36.8685 99.5077 36.6857C99.0543 36.4572 98.6462 36.1601 98.2835 35.7943C98.0114 35.5657 97.8074 35.2914 97.6713 34.9715C97.5352 34.6971 97.4446 34.4 97.3992 34.08C97.3085 33.7601 97.2632 33.3943 97.2632 32.9828C97.2632 32.6172 97.2632 32.2057 97.2632 31.7486C97.2632 31.3371 97.2632 30.9257 97.2632 30.5143C97.2632 30.1485 97.3085 29.8057 97.3992 29.4857C97.4446 29.1657 97.5352 28.8457 97.6713 28.5257C97.8074 28.2515 98.0114 27.9771 98.2835 27.7028C98.3742 27.6114 98.4648 27.5429 98.5555 27.4971C98.6462 27.4057 98.7369 27.3143 98.8275 27.2228C98.9182 27.1771 99.0316 27.1314 99.1677 27.0857C99.2584 26.9943 99.3717 26.9257 99.5077 26.88C99.9611 26.6971 100.46 26.6057 101.004 26.6057C101.956 26.6057 102.75 26.88 103.385 27.4286C104.065 27.9771 104.496 28.7772 104.677 29.8286C104.677 29.9201 104.654 30.0114 104.609 30.1028C104.518 30.1943 104.428 30.24 104.337 30.24H102.84C102.705 30.24 102.568 30.1715 102.5 29.9657C102.41 29.5543 102.228 29.2343 101.956 29.0057C101.73 28.7772 101.412 28.6628 101.004 28.6628C100.777 28.6628 100.551 28.6857 100.324 28.7315C100.143 28.8229 99.9839 28.9371 99.8478 29.0743C99.7571 29.1657 99.6891 29.28 99.6437 29.4171C99.5984 29.5086 99.553 29.6457 99.5077 29.8286C99.4624 30.0571 99.4397 30.3086 99.4397 30.5828C99.3943 30.9029 99.3717 31.3143 99.3717 31.8171C99.3717 32.2743 99.3943 32.6629 99.4397 32.9828C99.4397 33.2571 99.4624 33.5085 99.5077 33.7371C99.553 33.8743 99.5984 34.0115 99.6437 34.1486C99.6891 34.2857 99.7571 34.4 99.8478 34.4915C99.9839 34.6286 100.143 34.7429 100.324 34.8343C100.551 34.88 100.777 34.9028 101.004 34.9028C101.412 34.9028 101.752 34.7886 102.024 34.56C102.251 34.3314 102.41 34.0115 102.5 33.6C102.568 33.3943 102.705 33.3257 102.908 33.3257H104.337C104.337 33.3257 104.359 33.3257 104.405 33.3257C104.45 33.3257 104.473 33.3257 104.473 33.3257C104.518 33.3257 104.541 33.3486 104.541 33.3943C104.586 33.3943 104.609 33.4171 104.609 33.4628C104.654 33.5085 104.677 33.6 104.677 33.7371ZM96.379 27.0171V28.32C96.379 28.5257 96.2429 28.7315 96.0388 28.7315H91.8219V30.72H95.3587C95.5627 30.72 95.6988 30.8571 95.6988 31.0628V32.3657C95.6988 32.5715 95.5627 32.7086 95.3587 32.7086H91.8219V34.8343H96.0388C96.2429 34.8343 96.379 34.9715 96.379 35.1771V36.48C96.379 36.6857 96.2429 36.8228 96.0388 36.8228H90.0535C89.8494 36.8228 89.7133 36.6857 89.7133 36.48V27.0857C89.7133 26.88 89.8494 26.6743 90.0535 26.6743H96.0388C96.2429 26.6743 96.379 26.88 96.379 27.0171ZM87.9449 27.0857V36.48C87.9449 36.6857 87.809 36.8228 87.6049 36.8228H86.1765C85.9725 36.8228 85.8365 36.6857 85.8365 36.48V32.7086H82.7758V36.48C82.7758 36.6857 82.5717 36.8228 82.3677 36.8228H81.0074C80.8033 36.8228 80.5992 36.6857 80.5992 36.48V27.0857C80.5992 26.88 80.8033 26.6743 81.0074 26.6743H82.3677C82.5717 26.6743 82.7758 26.88 82.7758 27.0857V30.72H85.8365V27.0857C85.8365 26.88 85.9725 26.6743 86.1765 26.6743H87.6049C87.809 26.6743 87.9449 26.88 87.9449 27.0857ZM78.8308 32.2286C79.1029 32.64 79.2388 33.1657 79.2388 33.8057C79.2388 34.3086 79.1482 34.7429 78.9668 35.1086C78.7855 35.52 78.5133 35.8628 78.1507 36.1371C77.8332 36.3657 77.4704 36.5714 77.0623 36.7543C76.609 36.8915 76.1329 36.96 75.634 36.96C75.1806 36.96 74.7498 36.8915 74.3417 36.7543C73.9336 36.6171 73.5709 36.3885 73.2535 36.0686C72.9361 35.7943 72.664 35.4743 72.4372 35.1086C72.2106 34.6971 72.0519 34.2401 71.9611 33.7371C71.9611 33.6914 71.9839 33.6457 72.0291 33.6C72.0291 33.5543 72.0519 33.5085 72.0972 33.4628C72.0972 33.4171 72.1198 33.3714 72.1652 33.3257C72.2559 33.3257 72.3239 33.3257 72.3693 33.3257H73.7975C73.8429 33.3257 73.8656 33.3257 73.8656 33.3257C73.911 33.3714 73.9563 33.3943 74.0016 33.3943C74.047 33.44 74.0697 33.4628 74.0697 33.4628C74.115 33.5085 74.1377 33.5543 74.1377 33.6C74.2284 34.0115 74.4097 34.3314 74.6817 34.56C74.9085 34.8343 75.2487 34.9715 75.702 34.9715C76.1101 34.9715 76.4503 34.8571 76.7223 34.6286C76.949 34.4 77.0623 34.1029 77.0623 33.7371C77.0623 33.3714 76.9717 33.0972 76.7903 32.9143C76.5636 32.7314 76.2235 32.64 75.7701 32.64H74.6138C74.4097 32.64 74.2056 32.4343 74.2056 32.2286V31.0628C74.2056 30.8571 74.4097 30.72 74.6138 30.72H75.8381C76.2008 30.72 76.4729 30.6285 76.6543 30.4457C76.8356 30.2629 76.9264 29.9886 76.9264 29.6228C76.9264 29.3029 76.8356 29.0514 76.6543 28.8686C76.4275 28.6857 76.1101 28.5943 75.702 28.5943C75.2487 28.5943 74.9085 28.7085 74.6817 28.9371C74.4097 29.2115 74.2284 29.5543 74.1377 29.9657C74.0697 30.1028 73.9336 30.24 73.7975 30.24H72.3693C72.2332 30.24 72.1426 30.1943 72.0972 30.1028C72.0065 30.0114 71.9611 29.9201 71.9611 29.8286C72.0519 29.28 72.2106 28.8229 72.4372 28.4571C72.664 28.0457 72.9361 27.7028 73.2535 27.4286C73.5709 27.1543 73.9336 26.9486 74.3417 26.8115C75.2259 26.5371 76.1781 26.5371 76.9943 26.8115C77.4478 26.9486 77.8106 27.1314 78.0826 27.36C78.264 27.4971 78.4227 27.6571 78.5587 27.84C78.6494 27.9771 78.7401 28.1371 78.8308 28.32C78.9214 28.5029 78.9895 28.7085 79.0349 28.9371C79.0801 29.12 79.1029 29.3257 79.1029 29.5543C79.1029 30.1028 78.9668 30.5828 78.6948 30.9943C78.5587 31.2229 78.3774 31.4286 78.1507 31.6115C78.4227 31.7943 78.6494 32 78.8308 32.2286ZM70.8729 27.0857V36.48C70.8729 36.6857 70.6688 36.8228 70.4648 36.8228H69.1045C68.9004 36.8228 68.6964 36.6857 68.6964 36.48V30.9257L65.2275 36.6857C65.1368 36.7771 65.0235 36.8228 64.8875 36.8228H63.5952C63.3911 36.8228 63.2551 36.6857 63.2551 36.48V27.0857C63.2551 26.88 63.3911 26.6743 63.5952 26.6743H65.0235C65.2275 26.6743 65.3636 26.88 65.3636 27.0857V32.5715L68.9004 26.88C68.9684 26.7428 69.0365 26.6743 69.1725 26.6743H70.4648C70.6688 26.6743 70.8729 26.88 70.8729 27.0857ZM61.6907 32.2971C61.872 32.7086 61.9627 33.1429 61.9627 33.6C61.9627 34.1029 61.872 34.5372 61.6907 34.9028C61.5546 35.3143 61.3506 35.6801 61.0785 36C60.7611 36.2743 60.3984 36.48 59.9903 36.6171C59.5822 36.8 59.1288 36.8915 58.63 36.8915H54.9571C54.821 36.8915 54.6171 36.6857 54.6171 36.48V27.0857C54.6171 26.88 54.8211 26.6743 55.0252 26.6743H61.0106C61.2146 26.6743 61.3507 26.88 61.3507 27.0857V28.32C61.3507 28.5257 61.2146 28.7315 61.0106 28.7315H56.7255V30.3771H58.63C59.1288 30.3771 59.5822 30.4686 59.9903 30.6515C60.3984 30.7886 60.7385 31.0171 61.0106 31.3371C61.3279 31.6115 61.5546 31.9314 61.6907 32.2971ZM59.7862 33.6C59.8316 33.2343 59.741 32.9371 59.5142 32.7086C59.2875 32.5257 58.9701 32.4343 58.562 32.4343H56.7255V34.8343H58.562C58.9701 34.8343 59.2875 34.7429 59.5142 34.56C59.6956 34.3314 59.7862 34.0115 59.7862 33.6ZM163.511 12.8228C163.239 12.8228 162.967 13.0971 162.967 13.44V14.2628C162.967 14.3543 162.967 14.4229 162.967 14.4686C163.012 14.5601 163.058 14.6286 163.103 14.6743C163.194 14.72 163.261 14.7657 163.307 14.8115C163.397 14.8572 163.465 14.88 163.511 14.88H165.891C166.436 14.88 166.844 15.2915 166.844 15.84V15.9086C166.844 16.4571 166.436 16.8686 165.891 16.8686H163.511C163.239 16.8686 162.967 17.1428 162.967 17.4857V18.3771C162.967 18.4686 162.967 18.5371 162.967 18.5828C163.012 18.6743 163.058 18.7429 163.103 18.7886C163.194 18.8343 163.261 18.8801 163.307 18.9257C163.397 18.9257 163.465 18.9486 163.511 18.9943H166.571C167.116 18.9943 167.523 19.4057 167.523 19.9543V20.0228C167.523 20.5715 167.116 20.9828 166.571 20.9828H161.742C161.267 20.9828 160.79 20.5715 160.79 20.0228V11.7943C160.79 11.2457 161.267 10.8343 161.742 10.8343H166.571C167.116 10.8343 167.523 11.2457 167.523 11.7943V12.48C167.523 12.6857 167.388 12.8228 167.184 12.8228H163.511ZM159.906 11.1771V11.8629C159.906 12.4115 159.498 12.8228 158.954 12.8228H157.933C157.594 12.8228 157.322 13.0971 157.322 13.44V20.0228C157.322 20.5715 156.913 20.9828 156.369 20.9828H156.165C155.622 20.9828 155.213 20.5715 155.213 20.0228V13.44C155.213 13.0971 154.941 12.8228 154.601 12.8228H153.581C153.036 12.8228 152.629 12.4115 152.629 11.8629V11.7943C152.629 11.2457 153.036 10.8343 153.581 10.8343H159.565C159.77 10.8343 159.906 10.9714 159.906 11.1771ZM144.126 20.64V11.7943C144.126 11.2457 144.535 10.8343 145.078 10.8343H145.283C145.826 10.8343 146.235 11.2457 146.235 11.7943V14.6057C146.235 15.2228 146.983 15.4286 147.323 14.9486L149.568 11.2457C149.771 10.9714 150.044 10.8343 150.384 10.8343H150.791C151.268 10.8343 151.745 11.2457 151.745 11.7943V20.0228C151.745 20.5715 151.268 20.9828 150.791 20.9828H150.52C150.044 20.9828 149.568 20.5715 149.568 20.0228V17.1428C149.568 16.5257 148.819 16.32 148.48 16.8686L146.235 20.5028C146.031 20.7771 145.758 20.9828 145.419 20.9828H144.467C144.262 20.9828 144.126 20.7771 144.126 20.64ZM130.727 20.64V11.7943C130.727 11.2457 131.135 10.8343 131.68 10.8343H131.884C132.428 10.8343 132.836 11.2457 132.836 11.7943V18.3771C132.836 18.72 133.107 18.9257 133.448 18.9257H134.74C135.08 18.9257 135.352 18.72 135.352 18.3771V11.7943C135.352 11.2457 135.761 10.8343 136.304 10.8343H136.509C137.052 10.8343 137.461 11.2457 137.461 11.7943V18.3771C137.461 18.4229 137.484 18.4914 137.529 18.5828C137.574 18.6743 137.619 18.7429 137.665 18.7886C137.71 18.8343 137.778 18.8801 137.868 18.9257C137.914 18.9257 137.982 18.9257 138.073 18.9257H139.297C139.638 18.9257 139.909 18.72 139.909 18.3771V11.7943C139.909 11.2457 140.317 10.8343 140.861 10.8343H141.133C141.678 10.8343 142.086 11.2457 142.086 11.7943V18.9943H142.835C143.038 18.9943 143.174 19.1315 143.174 19.3371V22.7657C143.174 22.9028 143.038 23.1086 142.835 23.1086H141.406C141.201 23.1086 141.065 22.9028 141.065 22.7657V21.6C141.065 21.2571 140.794 20.9828 140.454 20.9828H131.135C130.932 20.9828 130.727 20.7771 130.727 20.64ZM128.687 20.9828C128.278 20.9828 127.939 20.7086 127.803 20.3657L127.53 19.4743C127.394 19.2686 127.19 19.0628 126.919 19.0628H124.606C124.333 19.0628 124.129 19.2686 124.061 19.4743L123.722 20.3657C123.585 20.7086 123.245 20.9828 122.838 20.9828H121.749C121.681 20.9828 121.545 20.9143 121.477 20.8457C121.387 20.7086 121.364 20.5943 121.409 20.5028L124.742 11.4514C124.878 11.04 125.218 10.8343 125.626 10.8343H125.965C126.306 10.8343 126.714 11.04 126.851 11.4514L130.048 20.3657C130.093 20.4571 130.115 20.5485 130.115 20.64C130.115 20.8457 129.978 20.9828 129.775 20.9828H128.687ZM124.81 17.1428H125.898C126.306 17.1428 126.578 16.7315 126.442 16.32L126.374 16.0457C126.17 15.4971 125.422 15.4971 125.218 16.0457L124.81 17.1428ZM120.049 20.2286C119.732 20.5028 119.346 20.7086 118.892 20.8457C118.484 20.9828 118.031 21.0515 117.532 21.0515C117.079 21.0515 116.648 20.9828 116.24 20.8457C115.832 20.7086 115.469 20.5028 115.151 20.2286C114.834 19.9543 114.562 19.6115 114.335 19.2C114.108 18.8343 113.95 18.4001 113.859 17.8971C113.859 17.76 113.882 17.6457 113.927 17.5543C114.018 17.4629 114.108 17.4171 114.199 17.4171H115.219C115.559 17.4171 115.968 17.76 116.104 18.1028C116.194 18.3314 116.33 18.5371 116.512 18.72C116.784 18.9486 117.124 19.0628 117.532 19.0628C117.985 19.0628 118.348 18.9486 118.62 18.72C118.847 18.5371 118.96 18.2629 118.96 17.8971C118.96 17.4857 118.87 17.1885 118.688 17.0057C118.462 16.8229 118.121 16.7315 117.668 16.7315H117.056C116.512 16.7315 116.104 16.32 116.104 15.7715C116.104 15.2228 116.512 14.8115 117.056 14.8115H117.736C118.099 14.8115 118.371 14.72 118.552 14.5371C118.734 14.3543 118.824 14.0801 118.824 13.7143C118.824 13.3943 118.734 13.1429 118.552 12.96C118.326 12.7771 118.008 12.6857 117.6 12.6857C117.147 12.6857 116.806 12.8 116.58 13.0286C116.398 13.2114 116.262 13.44 116.172 13.7143C116.036 14.0571 115.628 14.3315 115.219 14.3315H114.267C114.131 14.3315 114.063 14.2628 113.995 14.1943C113.905 14.1029 113.859 14.0114 113.859 13.92C113.95 13.4172 114.108 12.96 114.335 12.5486C114.562 12.1371 114.834 11.7943 115.151 11.52C115.469 11.2457 115.832 11.04 116.24 10.9029C117.124 10.6286 118.076 10.6286 118.892 10.9029C119.346 11.04 119.709 11.2457 119.981 11.52C120.071 11.5657 120.139 11.6114 120.184 11.6571C120.275 11.7486 120.343 11.84 120.388 11.9314C120.48 11.9771 120.548 12.0457 120.593 12.1371C120.638 12.2286 120.684 12.32 120.729 12.4115C120.91 12.7771 121.001 13.1886 121.001 13.6457C121.001 14.1943 120.865 14.6743 120.593 15.0857C120.457 15.3143 120.275 15.5201 120.049 15.7028C120.32 15.8857 120.525 16.0914 120.661 16.32C120.978 16.7772 121.136 17.3257 121.136 17.9657C121.136 18.4229 121.046 18.8343 120.865 19.2C120.684 19.6115 120.412 19.9543 120.049 20.2286ZM104.745 10.9714C105.629 10.6286 106.785 10.6286 107.738 10.9714C107.828 11.0171 107.919 11.0857 108.01 11.1771C108.146 11.2229 108.259 11.2914 108.35 11.3829C108.44 11.4286 108.554 11.4971 108.69 11.5886C108.781 11.68 108.871 11.7714 108.962 11.8629C109.37 12.2743 109.642 12.7771 109.778 13.3715C109.869 13.92 109.937 14.5371 109.982 15.2228V16.0457C109.982 16.4114 109.959 16.7772 109.914 17.1428C109.914 17.5086 109.892 17.8514 109.846 18.1715C109.756 18.4914 109.642 18.7886 109.506 19.0628C109.37 19.3829 109.189 19.68 108.962 19.9543C108.214 20.64 107.33 21.0515 106.241 21.0515C105.108 21.0515 104.201 20.6857 103.521 19.9543C103.249 19.68 103.045 19.3829 102.908 19.0628C102.773 18.7886 102.682 18.4686 102.636 18.1028C102.546 17.7829 102.5 17.4401 102.5 17.0743C102.5 16.7543 102.5 16.4114 102.5 16.0457V15.4286C102.5 15.0629 102.5 14.6971 102.5 14.3315C102.546 14.0114 102.591 13.7143 102.636 13.44C102.727 13.1201 102.84 12.8228 102.977 12.5486C103.113 12.32 103.294 12.0914 103.521 11.8629C103.883 11.4971 104.292 11.2 104.745 10.9714ZM105.085 13.2343C104.904 13.4172 104.79 13.7143 104.745 14.1257C104.7 14.5371 104.677 15.0401 104.677 15.6343V16.4571C104.632 16.6857 104.632 16.9143 104.677 17.1428C104.677 17.3714 104.7 17.5771 104.745 17.76C104.745 17.8057 104.745 17.8514 104.745 17.8971C104.745 17.8971 104.745 17.9201 104.745 17.9657C104.79 18.0114 104.813 18.0571 104.813 18.1028C104.813 18.1485 104.836 18.1943 104.881 18.24C104.926 18.3771 104.994 18.4914 105.085 18.5828C105.402 18.9029 105.788 19.0628 106.241 19.0628C106.695 19.0628 107.057 18.9029 107.33 18.5828C107.466 18.4457 107.556 18.3086 107.602 18.1715C107.647 18.0343 107.692 17.8514 107.738 17.6228C107.783 17.3943 107.806 17.1428 107.806 16.8686C107.806 16.5486 107.806 16.1828 107.806 15.7715C107.806 15.4514 107.806 15.1314 107.806 14.8115C107.806 14.5371 107.783 14.3085 107.738 14.1257C107.692 13.8972 107.647 13.7143 107.602 13.5771C107.556 13.44 107.466 13.3257 107.33 13.2343C107.057 12.9143 106.695 12.7543 106.241 12.7543C106.015 12.7543 105.788 12.8 105.561 12.8915C105.38 12.9372 105.221 13.0514 105.085 13.2343ZM101.14 11.1771V20.0228C101.14 20.5715 100.664 20.9828 100.188 20.9828H99.9158C99.3717 20.9828 98.9636 20.5715 98.9636 20.0228V13.44C98.9636 13.0971 98.6916 12.8228 98.3514 12.8228H96.447C96.1749 12.8228 95.9029 13.0971 95.9029 13.44V20.0228C95.9029 20.5028 95.4268 20.9828 94.9506 20.9828H94.6785C94.2024 20.9828 93.7943 20.5715 93.7943 20.0228V11.7943C93.7943 11.2457 94.2024 10.8343 94.6785 10.8343H100.732C100.936 10.8343 101.14 10.9714 101.14 11.1771ZM82.4356 20.5715V11.1086C82.4356 10.9029 82.5717 10.7657 82.7758 10.7657H88.8291C89.0332 10.7657 89.1693 10.9029 89.1693 11.1086V12.4115C89.1693 12.6171 89.0332 12.7543 88.8291 12.7543H84.5442V14.4686H86.4487C86.9474 14.4686 87.4008 14.5371 87.809 14.6743C87.8997 14.72 87.9903 14.7657 88.081 14.8115C88.1717 14.8572 88.2623 14.9029 88.353 14.9486C88.4437 15.0401 88.5345 15.1086 88.6252 15.1543C88.7158 15.2457 88.7839 15.3143 88.8291 15.36C89.1466 15.6343 89.3733 15.9771 89.5094 16.3886C89.6907 16.8 89.7814 17.2343 89.7814 17.6915C89.7814 18.1485 89.6907 18.5828 89.5094 18.9943C89.3733 19.4057 89.1466 19.7486 88.8291 20.0228C88.7839 20.1143 88.7158 20.1829 88.6252 20.2286C88.5345 20.3201 88.4437 20.3886 88.353 20.4343C88.2623 20.48 88.1717 20.5257 88.081 20.5715C87.9903 20.6172 87.8997 20.6629 87.809 20.7086C87.4008 20.8457 86.9474 20.9143 86.4487 20.9143H82.8437C82.6397 20.9143 82.4356 20.7771 82.4356 20.5715ZM84.6122 18.9257H86.3806C86.7887 18.9257 87.1061 18.8114 87.3329 18.5828C87.5595 18.4001 87.6729 18.1028 87.6729 17.6915C87.6729 17.3257 87.5595 17.0286 87.3329 16.8C87.1061 16.5714 86.7887 16.4571 86.3806 16.4571H84.6122V18.9257ZM73.1174 20.5028L76.5862 11.04C76.5862 10.9943 76.5862 10.9714 76.5862 10.9714C76.6316 10.9257 76.6769 10.88 76.7223 10.8343C76.7223 10.8343 76.7449 10.8343 76.7903 10.8343C76.8356 10.7886 76.881 10.7886 76.9264 10.8343H78.0826C78.0826 10.7886 78.1053 10.7886 78.1507 10.8343C78.1959 10.8343 78.2413 10.8343 78.2866 10.8343C78.2866 10.88 78.3094 10.9257 78.3546 10.9714C78.3546 10.9714 78.3774 10.9943 78.4227 11.04L81.7555 20.3657C81.8008 20.4571 81.8235 20.5485 81.8235 20.64C81.8235 20.7771 81.6875 20.9828 81.4834 20.9828H79.9871C79.851 20.9828 79.715 20.8457 79.6469 20.7086L79.1029 19.0628H75.9061L75.2939 20.7086C75.2939 20.8457 75.1579 20.9828 74.9539 20.9828H73.4575C73.3895 20.9828 73.2535 20.9143 73.1855 20.8457C73.1174 20.7086 73.1174 20.5715 73.1174 20.5028ZM76.5862 17.1428H78.4227L77.5385 14.4L76.5862 17.1428ZM73.7296 12.8228H71.553V20.64C71.553 20.8457 71.349 20.9828 71.1449 20.9828H69.7846C69.5806 20.9828 69.3765 20.8457 69.3765 20.64V12.8228H67.2C66.9959 12.8228 66.7919 12.6857 66.7919 12.48V11.1771C66.7919 10.9714 66.9959 10.8343 67.2 10.8343H73.7296C73.9336 10.8343 74.1377 10.9714 74.1377 11.1771V12.48C74.1377 12.6857 73.9336 12.8228 73.7296 12.8228ZM54.6171 20.64V11.1771C54.6171 10.9714 54.753 10.8343 54.9571 10.8343H56.3855C56.5895 10.8343 56.7255 10.9714 56.7255 11.1771V18.9943H59.1742V11.1771C59.1742 10.9714 59.3781 10.8343 59.5822 10.8343H61.0106C61.2146 10.8343 61.3507 10.9714 61.3507 11.1771V18.9943H63.7992V11.1771C63.7992 10.9714 63.9352 10.8343 64.1393 10.8343H65.5677C65.7717 10.8343 65.9077 10.9714 65.9077 11.1771V20.64C65.9077 20.8457 65.7717 20.9828 65.5677 20.9828H54.9571C54.753 20.9828 54.6171 20.8457 54.6171 20.64Z" fill="white"/>
</g>
</g>
<defs>
<clipPath id="clip0_105_1418">
<rect width="168" height="48" fill="white"/>
</clipPath>
</defs>
</svg>
