<svg width="105" height="86" viewBox="0 0 105 86" fill="none" xmlns="http://www.w3.org/2000/svg">
<path d="M25.3237 4.33205C25.3237 3.43563 24.889 2.99704 23.9925 2.99704H21.4841V9.78366H23.9925C24.889 9.78366 25.3237 9.34507 25.3237 8.44865V4.33205ZM16.1364 8.42556C16.1364 9.32198 16.5711 9.76057 17.4675 9.76057H19.976V2.9778H17.4675C16.5711 2.9778 16.1364 3.41639 16.1364 4.31281V8.42556ZM21.2417 0C21.3956 0 21.4803 0.0884877 21.4803 0.242379V1.57739H23.9887C25.8662 1.57739 26.8241 2.49689 26.8241 4.3359V8.42941C26.8241 10.2684 25.8854 11.1879 23.9887 11.1879H21.4803V12.5229C21.4803 12.6768 21.3918 12.7653 21.2417 12.7653H20.2145C20.0606 12.7653 19.976 12.6768 19.976 12.5229V11.1879H17.4675C15.5901 11.1879 14.6321 10.2684 14.6321 8.42941V4.33205C14.6321 2.49304 15.5708 1.57354 17.4675 1.57354H19.976V0.242379C19.976 0.0884877 20.0645 0 20.2145 0H21.2417ZM34.4033 6.27878C34.4033 5.92867 34.2956 5.64397 34.0763 5.44776C33.857 5.25155 33.5761 5.13998 33.226 5.13998H31.2601C30.91 5.13998 30.6253 5.2477 30.4098 5.44776C30.1905 5.66706 30.0828 5.92867 30.0828 6.27878V9.649C30.0828 9.99911 30.1905 10.2838 30.4098 10.48C30.6291 10.6993 30.91 10.7878 31.2601 10.7878H33.226C33.5761 10.7878 33.8608 10.6801 34.0763 10.48C34.2956 10.2838 34.4033 9.99911 34.4033 9.649V6.27878ZM35.7575 9.649C35.7575 10.4146 35.5383 11.0071 35.1227 11.4226C34.7072 11.8381 34.0763 12.0343 33.2453 12.0343H31.2793C30.4483 12.0343 29.8173 11.8381 29.4018 11.4226C28.9863 11.0071 28.767 10.4146 28.767 9.649V6.25569C28.767 5.49008 28.9863 4.8976 29.4018 4.48209C29.8173 4.06658 30.4483 3.87037 31.2793 3.87037H33.2453C34.0763 3.87037 34.7072 4.06658 35.1227 4.48209C35.5383 4.8976 35.7575 5.49008 35.7575 6.25569V9.649ZM39.0316 8.5102V11.7496C39.0316 11.9035 38.9431 11.992 38.7931 11.992H37.9197C37.7658 11.992 37.6812 11.9035 37.6812 11.7496V4.09352C37.6812 3.93962 37.7697 3.85114 37.9197 3.85114H38.7931C38.9469 3.85114 39.0316 3.93962 39.0316 4.09352V7.30985H43.0482V4.09352C43.0482 3.93962 43.1366 3.85114 43.2867 3.85114H44.16C44.3139 3.85114 44.3986 3.93962 44.3986 4.09352V11.7304C44.3986 11.8843 44.3101 11.9728 44.16 11.9728H43.2867C43.1328 11.9728 43.0482 11.8843 43.0482 11.7304V8.51405H39.0316V8.5102ZM51.7777 5.11689H49.1807L48.0881 10.7185H51.7777V5.12074V5.11689ZM53.1088 10.7185H53.8937C54.0476 10.7185 54.1322 10.807 54.1322 10.9609V13.4771C54.1322 13.6309 54.0437 13.7194 53.8937 13.7194H53.0203C52.8664 13.7194 52.7818 13.6309 52.7818 13.4771V11.9882H47.1301V13.4771C47.1301 13.6309 47.0416 13.7194 46.8916 13.7194H46.0183C45.8644 13.7194 45.7797 13.6309 45.7797 13.4771V10.9378C45.7797 10.784 45.8682 10.6955 46.0183 10.6955H46.7185L48.0496 4.08582C48.0727 3.93193 48.2035 3.84344 48.4421 3.84344H52.8741C53.028 3.84344 53.1127 3.93193 53.1127 4.08582V10.7224L53.1088 10.7185ZM23.5347 16.9165C23.6886 16.9165 23.7732 17.005 23.7732 17.1589V27.7082C23.7732 27.8621 23.6848 27.9506 23.5347 27.9506H22.5075C22.3536 27.9506 22.269 27.8621 22.269 27.7082V18.3439H16.4634V27.7082C16.4634 27.8621 16.3749 27.9506 16.2249 27.9506H15.1976C15.0437 27.9506 14.9591 27.8621 14.9591 27.7082V17.1589C14.9591 17.005 15.0476 16.9165 15.1976 16.9165H23.5347ZM31.4986 22.2566C31.4986 21.9065 31.3909 21.6218 31.1716 21.4256C30.9523 21.2293 30.6714 21.1178 30.3213 21.1178H28.3554C28.0053 21.1178 27.7206 21.2255 27.5051 21.4256C27.2858 21.6448 27.1781 21.9065 27.1781 22.2566V25.6268C27.1781 25.9769 27.2858 26.2616 27.5051 26.4578C27.7244 26.6771 28.0053 26.7656 28.3554 26.7656H30.3213C30.6714 26.7656 30.9561 26.6579 31.1716 26.4578C31.3909 26.2616 31.4986 25.9769 31.4986 25.6268V22.2566ZM32.8528 25.6268C32.8528 26.3924 32.6335 26.9849 32.218 27.4004C31.8025 27.8159 31.1716 28.0121 30.3406 28.0121H28.3746C27.5436 28.0121 26.9126 27.8159 26.4971 27.4004C26.0816 26.9849 25.8623 26.3924 25.8623 25.6268V22.2335C25.8623 21.4679 26.0816 20.8754 26.4971 20.4599C26.9126 20.0444 27.5436 19.8482 28.3746 19.8482H30.3406C31.1716 19.8482 31.8025 20.0444 32.218 20.4599C32.6335 20.8754 32.8528 21.4679 32.8528 22.2335V25.6268ZM40.0973 21.0985H37.5004L36.4077 26.7002H40.0973V21.0985ZM41.4515 26.7002H42.2364C42.3903 26.7002 42.4749 26.7887 42.4749 26.9426V29.4587C42.4749 29.6126 42.3864 29.7011 42.2364 29.7011H41.363C41.2092 29.7011 41.1245 29.6126 41.1245 29.4587V27.9698H35.4728V29.4587C35.4728 29.6126 35.3844 29.7011 35.2343 29.7011H34.361C34.2071 29.7011 34.1224 29.6126 34.1224 29.4587V26.9195C34.1224 26.7656 34.2109 26.6771 34.361 26.6771H35.0612L36.3923 20.0675C36.4154 19.9136 36.5462 19.8251 36.7848 19.8251H41.1938C41.3477 19.8251 41.4323 19.9136 41.4323 20.0675V26.6963H41.4554L41.4515 26.7002ZM49.5039 21.0985H46.907L45.8144 26.7002H49.5039V21.0985ZM50.8582 26.7002H51.643C51.7969 26.7002 51.8815 26.7887 51.8815 26.9426V29.4587C51.8815 29.6126 51.7931 29.7011 51.643 29.7011H50.7697C50.6158 29.7011 50.5311 29.6126 50.5311 29.4587V27.9698H44.8795V29.4587C44.8795 29.6126 44.791 29.7011 44.6409 29.7011H43.7676C43.6137 29.7011 43.5291 29.6126 43.5291 29.4587V26.9195C43.5291 26.7656 43.6176 26.6771 43.7676 26.6771H44.4678L45.799 20.0675C45.8221 19.9136 45.9529 19.8251 46.1914 19.8251H50.6004C50.7543 19.8251 50.8389 19.9136 50.8389 20.0675V26.6963H50.862L50.8582 26.7002ZM58.9567 23.1568V22.2142C58.9567 21.8872 58.849 21.6218 58.6297 21.4256C58.4104 21.2293 58.1295 21.1178 57.7794 21.1178H55.902C55.5518 21.1178 55.2672 21.2255 55.0517 21.4256C54.8324 21.6218 54.7247 21.8834 54.7247 22.2142V23.1568H58.9605H58.9567ZM54.7208 24.4034V25.5845C54.7208 25.9346 54.8286 26.2193 55.0479 26.4386C55.2672 26.6579 55.548 26.7656 55.8981 26.7656H57.7756C58.1257 26.7656 58.4104 26.6579 58.6258 26.4386C58.8413 26.2193 58.9529 25.9346 58.9529 25.5845V25.496C58.9529 25.3421 59.0413 25.2536 59.1914 25.2536H60.0647C60.2186 25.2536 60.3033 25.3421 60.3033 25.496V25.5845C60.3033 26.3732 60.084 26.9849 59.6685 27.4004C59.2529 27.8159 58.622 28.0352 57.791 28.0352H55.9135C55.0825 28.0352 54.4515 27.839 54.036 27.4235C53.6205 27.008 53.4012 26.4155 53.4012 25.6499V22.2566C53.4012 21.491 53.6205 20.8985 54.036 20.483C54.4515 20.0675 55.0825 19.8713 55.9135 19.8713H57.791C58.622 19.8713 59.2529 20.0675 59.6685 20.483C60.084 20.8985 60.3033 21.4679 60.3033 22.2335V24.2033C60.3033 24.3572 60.2148 24.4226 60.0647 24.4226H54.717V24.3995L54.7208 24.4034ZM66.5513 26.7002C66.9014 26.7002 67.1861 26.5925 67.4015 26.3732C67.6208 26.1539 67.7285 25.8692 67.7285 25.5191V22.2566C67.7285 21.9065 67.6208 21.6218 67.4015 21.4025C67.1822 21.1832 66.9014 21.0755 66.5513 21.0755H65.2201C64.7392 21.0755 64.3468 21.2293 64.0428 21.5333C63.7389 21.8372 63.5619 22.2335 63.5619 22.6913V26.6963H66.5513V26.7002ZM63.5619 27.9467V30.7052C63.5619 30.8591 63.4734 30.9476 63.3234 30.9476H62.45C62.2962 30.9476 62.2115 30.8591 62.2115 30.7052V20.0713C62.2115 19.9174 62.3 19.8289 62.45 19.8289H63.3234C63.4773 19.8289 63.5619 19.9174 63.5619 20.0905V20.7253H63.6504C63.7389 20.5484 63.8466 20.3983 64.0197 20.2675C64.1505 20.1598 64.3237 20.0482 64.543 19.9597C64.7623 19.8713 65.0431 19.8058 65.374 19.8058H66.5513C67.3823 19.8058 68.0132 20.0251 68.4287 20.4406C68.8442 20.8562 69.0635 21.4486 69.0635 22.2335V25.5152C69.0635 26.3039 68.8442 26.8926 68.4287 27.3081C68.0132 27.7236 67.3823 27.9429 66.5513 27.9429H63.5619V27.9467ZM77.8777 24.3341H76.3926V27.7274C76.3926 27.8813 76.3041 27.9698 76.1541 27.9698H75.2807C75.1269 27.9698 75.0422 27.8813 75.0422 27.7274V24.3341H73.5572L71.7451 27.7274C71.7028 27.8159 71.6566 27.8813 71.6143 27.9044C71.572 27.9467 71.4835 27.9698 71.3527 27.9698H70.4139C70.3254 27.9698 70.2831 27.9467 70.2408 27.9044C70.2177 27.8621 70.2177 27.8159 70.2639 27.7274L72.4684 23.6993L70.5024 20.0867C70.4601 19.9982 70.4601 19.9328 70.4793 19.9097C70.5024 19.8674 70.5678 19.8443 70.6525 19.8443H71.5912C71.6989 19.8443 71.7874 19.8674 71.8528 19.9097C71.8951 19.952 71.9605 20.0174 71.9836 20.0867L73.5533 23.0837H75.0384V20.0636C75.0384 19.9097 75.1269 19.8212 75.2769 19.8212H76.1502C76.3041 19.8212 76.3888 19.9097 76.3888 20.0636V23.0607H77.8738L79.4435 20.0636C79.4858 19.9751 79.532 19.9097 79.5743 19.8866C79.6166 19.8443 79.7051 19.8212 79.8359 19.8212H80.7747C80.9478 19.8212 81.0132 19.9097 80.9286 20.0636L78.9626 23.6762L81.1671 27.7043C81.2325 27.8582 81.1902 27.9467 81.0132 27.9467H80.0745C79.9668 27.9467 79.8783 27.9236 79.8129 27.8813C79.7705 27.839 79.7051 27.7928 79.682 27.7043L77.87 24.3341H77.8777ZM86.0609 24.3341H84.0949V27.7274C84.0949 27.8813 84.0064 27.9698 83.8564 27.9698H82.983C82.8291 27.9698 82.7445 27.8813 82.7445 27.7274V20.0675C82.7445 19.9136 82.833 19.8251 82.983 19.8251H83.8564C84.0103 19.8251 84.0949 19.9136 84.0949 20.0675V23.0645H86.0609L87.6305 20.0675C87.6729 19.979 87.719 19.9136 87.7614 19.8905C87.8037 19.8482 87.8922 19.8251 88.023 19.8251H88.9617C89.1348 19.8251 89.2002 19.9136 89.1156 20.0675L87.1496 23.6801L89.3541 27.7082C89.4195 27.8621 89.3772 27.9506 89.2002 27.9506H88.2615C88.1538 27.9506 88.0653 27.9275 87.9999 27.8852C87.9576 27.8428 87.8922 27.7967 87.8691 27.7082L86.057 24.338L86.0609 24.3341ZM97.5643 19.8251C97.7181 19.8251 97.8028 19.9136 97.8028 20.0675V27.7043C97.8028 27.8582 97.7143 27.9467 97.5643 27.9467H96.6909C96.537 27.9467 96.4524 27.8582 96.4524 27.7043V21.9488H96.3639L92.5897 27.7043C92.5474 27.7928 92.482 27.8582 92.4358 27.8813C92.3935 27.9236 92.2819 27.9467 92.1319 27.9467H91.1931C91.0392 27.9467 90.9546 27.8582 90.9546 27.7043V20.0675C90.9546 19.9136 91.0431 19.8251 91.1931 19.8251H92.0665C92.2204 19.8251 92.305 19.9136 92.305 20.0675V25.8884H92.3935L96.1677 20.0675C96.21 19.979 96.2754 19.9136 96.3216 19.8905C96.3639 19.8482 96.4755 19.8251 96.6255 19.8251H97.5643ZM14.8014 35.472C14.8014 33.6561 15.7401 32.7366 17.6368 32.7366H21.261C23.1384 32.7366 24.0964 33.6561 24.0964 35.472V36.1068C24.0964 36.2607 24.0079 36.3492 23.8579 36.3492H22.8307C22.6768 36.3492 22.5921 36.2607 22.5921 36.1068V35.472C22.5921 34.5948 22.1574 34.137 21.261 34.137H17.6368C16.7404 34.137 16.3057 34.5756 16.3057 35.472V41.2506C16.3057 42.1278 16.7404 42.5856 17.6368 42.5856H21.261C22.1574 42.5856 22.5921 42.1471 22.5921 41.2506V40.6158C22.5921 40.4619 22.6806 40.3735 22.8307 40.3735H23.8579C24.0118 40.3735 24.0964 40.4619 24.0964 40.6158V41.2506C24.0964 43.0896 23.1577 43.9861 21.261 43.9861H17.6368C15.7593 43.9861 14.8014 43.0666 14.8014 41.2506V35.472ZM31.5832 38.2305C31.5832 37.8804 31.4755 37.5957 31.2562 37.3995C31.0369 37.1802 30.7561 37.0917 30.406 37.0917H28.44C28.0899 37.0917 27.8052 37.1994 27.5898 37.3995C27.3705 37.6188 27.2627 37.8804 27.2627 38.2305V41.6007C27.2627 41.9508 27.3705 42.2355 27.5898 42.4318C27.809 42.6511 28.0899 42.7395 28.44 42.7395H30.406C30.7561 42.7395 31.0408 42.6318 31.2562 42.4318C31.4755 42.2125 31.5832 41.9508 31.5832 41.6007V38.2305ZM32.9144 41.6007C32.9144 42.3663 32.6951 42.9588 32.2796 43.3743C31.8641 43.7898 31.2331 43.9861 30.4021 43.9861H28.4362C27.6051 43.9861 26.9742 43.7898 26.5587 43.3743C26.1432 42.9588 25.9239 42.3663 25.9239 41.6007V38.2074C25.9239 37.4418 26.1432 36.8493 26.5587 36.4338C26.9742 36.0183 27.6051 35.8221 28.4362 35.8221H30.4021C31.2331 35.8221 31.8641 36.0183 32.2796 36.4338C32.6951 36.8493 32.9144 37.4418 32.9144 38.2074V41.6007ZM35.0958 43.9207C34.9419 43.9207 34.8573 43.8322 34.8573 43.6783V36.0414C34.8573 35.8875 34.9458 35.799 35.0958 35.799H35.9691C36.123 35.799 36.2077 35.8875 36.2077 36.0414V42.6703H40.0473V36.0606C40.0473 35.9068 40.1358 35.8183 40.2858 35.8183H41.1591C41.313 35.8183 41.3977 35.9068 41.3977 36.0606V42.8896L42.8173 44.467C42.8596 44.5093 42.8827 44.5555 42.8827 44.6209C42.8827 44.6863 42.8596 44.7286 42.8173 44.7748L42.1171 45.4096C42.0094 45.498 41.8978 45.498 41.8132 45.4096L40.482 43.9207H35.092H35.0958ZM50.6581 35.8029C50.812 35.8029 50.8966 35.8914 50.8966 36.0453V43.6821C50.8966 43.836 50.8081 43.9245 50.6581 43.9245H49.7848C49.6309 43.9245 49.5462 43.836 49.5462 43.6821V37.9266H49.4577L45.6836 43.6821C45.6412 43.7706 45.5758 43.836 45.5297 43.8591C45.4873 43.9014 45.3758 43.9245 45.2257 43.9245H44.287C44.1331 43.9245 44.0485 43.836 44.0485 43.6821V36.0453C44.0485 35.8914 44.1369 35.8029 44.287 35.8029H45.1603C45.3142 35.8029 45.3989 35.8914 45.3989 36.0453V41.8662H45.4873L49.2615 36.0453C49.3039 35.9568 49.3693 35.8914 49.4154 35.8683C49.4577 35.826 49.5693 35.8029 49.7194 35.8029H50.6581ZM54.086 41.7123C54.086 42.0201 54.1745 42.2817 54.3707 42.4548C54.5439 42.6318 54.8055 42.7395 55.1133 42.7395H56.379C56.8599 42.7395 57.2524 42.5856 57.5563 42.2586C57.8602 41.9508 58.0372 41.5584 58.0372 41.0775V40.3773H55.1363C54.8324 40.3773 54.5708 40.4658 54.3938 40.662C54.2207 40.839 54.1091 41.1006 54.1091 41.4045V41.7123H54.086ZM52.7549 41.4045C52.7549 39.8733 53.5397 39.1269 55.1133 39.1269H58.0141V38.1843C58.0141 37.8573 57.9064 37.5919 57.6871 37.3957C57.4678 37.1994 57.187 37.0879 56.8368 37.0879H55.7442C55.3941 37.0879 55.1094 37.1956 54.894 37.3957C54.6747 37.5919 54.5669 37.8535 54.5669 38.1843C54.5669 38.3382 54.4785 38.4036 54.3284 38.4036H53.4551C53.3012 38.4036 53.2165 38.3382 53.2165 38.1843C53.2165 37.4187 53.4358 36.8493 53.8513 36.4338C54.2669 36.0414 54.8978 35.8221 55.7288 35.8221H56.8215C57.6525 35.8221 58.2834 36.0414 58.6989 36.4569C59.1144 36.8724 59.3337 37.4649 59.3337 38.2498V43.7206C59.3337 43.8745 59.2453 43.963 59.0952 43.963H58.2219C58.068 43.963 57.9833 43.8745 57.9833 43.7206V43.1281H57.8949C57.8064 43.3051 57.6986 43.4551 57.5255 43.5859C57.3947 43.6937 57.2216 43.8052 57.0023 43.8937C56.783 43.9822 56.5021 44.0476 56.1713 44.0476H55.0786C53.5089 44.0476 52.7202 43.282 52.7202 41.77V41.3968H52.7626L52.7549 41.4045ZM63.6889 41.7123C63.535 42.501 63.2734 43.0704 62.8809 43.4397C62.5116 43.8129 61.9653 43.9861 61.2458 43.9861H61.0073C60.8534 43.9861 60.7688 43.8976 60.7688 43.7437V42.955C60.7688 42.8011 60.8573 42.7126 61.0073 42.7126H61.2458C61.5075 42.7126 61.746 42.6241 61.946 42.451C62.1423 42.274 62.2731 42.0124 62.3385 41.6854L63.5157 36.0183C63.5388 35.8644 63.6696 35.7759 63.9082 35.7759H68.3172C68.471 35.7759 68.5557 35.8644 68.5557 36.0183V43.6552C68.5557 43.8091 68.4672 43.8976 68.3172 43.8976H67.4438C67.2899 43.8976 67.2053 43.8091 67.2053 43.6552V37.0456H64.6507L63.6889 41.7085V41.7123ZM74.7306 42.6741C75.0345 42.6741 75.2961 42.5856 75.4731 42.3894C75.6501 42.1932 75.7578 41.9508 75.7578 41.6469V40.8582C75.7578 40.5504 75.6693 40.2888 75.4731 40.1157C75.3 39.9387 75.0384 39.831 74.7306 39.831H71.9798V42.6741H74.7306ZM70.8679 43.9207C70.714 43.9207 70.6294 43.8322 70.6294 43.6783V36.0414C70.6294 35.8875 70.7179 35.799 70.8679 35.799H71.7412C71.8951 35.799 71.9798 35.8875 71.9798 36.0414V38.5575H74.7306C76.3003 38.5575 77.089 39.3231 77.089 40.8351V41.6238C77.089 43.155 76.3041 43.9014 74.7306 43.9014H70.8679V43.9245V43.9207ZM80.2514 40.4619V43.7014C80.2514 43.8553 80.163 43.9437 80.0129 43.9437H79.1396C78.9857 43.9437 78.901 43.8553 78.901 43.7014V36.0645C78.901 35.9106 78.9895 35.8221 79.1396 35.8221H80.0129C80.1668 35.8221 80.2514 35.9106 80.2514 36.0645V39.2808H84.268V36.0645C84.268 35.9106 84.3565 35.8221 84.5066 35.8221H85.3799C85.5338 35.8221 85.6184 35.9106 85.6184 36.0645V43.7014C85.6184 43.8553 85.5299 43.9437 85.3799 43.9437H84.5066C84.3527 43.9437 84.268 43.8553 84.268 43.7014V40.4619H80.2514ZM96.4678 43.6783C96.4678 43.8322 96.3793 43.9207 96.2292 43.9207H95.3559C95.202 43.9207 95.1174 43.8322 95.1174 43.6783V36.0414C95.1174 35.8875 95.2059 35.799 95.3559 35.799H96.2292C96.3831 35.799 96.4678 35.8875 96.4678 36.0414V43.6783ZM91.4278 42.6703C91.7318 42.6703 91.9934 42.5818 92.1703 42.3856C92.3435 42.1894 92.455 41.947 92.455 41.6431V40.8544C92.455 40.5466 92.3666 40.285 92.1703 40.1118C91.9972 39.9349 91.7356 39.8271 91.4278 39.8271H88.9848V42.6703H91.4278ZM87.8922 43.9168C87.7383 43.9168 87.6536 43.8283 87.6536 43.6744V36.0376C87.6536 35.8837 87.7421 35.7952 87.8922 35.7952H88.7655C88.9194 35.7952 89.004 35.8837 89.004 36.0376V38.5537H91.4471C93.0168 38.5537 93.8055 39.3193 93.8055 40.8313V41.62C93.8055 43.1512 93.0206 43.8976 91.4471 43.8976H87.8883V43.9207L87.8922 43.9168ZM101.512 38.7307L103.235 36.0606C103.277 35.9722 103.343 35.9067 103.389 35.8837C103.431 35.8413 103.52 35.8183 103.628 35.8183H104.566C104.655 35.8183 104.72 35.8413 104.739 35.8837C104.763 35.926 104.763 35.9914 104.716 36.0606L102.358 39.7579L104.955 43.6975C104.997 43.7629 105.02 43.8283 104.978 43.8745C104.936 43.9168 104.889 43.9399 104.805 43.9399H103.866C103.758 43.9399 103.67 43.9168 103.628 43.8745C103.585 43.8322 103.539 43.786 103.474 43.6975L101.508 40.7005L99.5418 43.6975C99.4994 43.786 99.434 43.8514 99.3879 43.8745C99.3456 43.9168 99.2571 43.9399 99.1493 43.9399H98.2106C98.1221 43.9399 98.0567 43.9168 98.0375 43.8745C97.9951 43.8322 98.0144 43.7668 98.0606 43.6975L100.657 39.7579L98.2991 36.0606C98.2568 35.9722 98.2337 35.9067 98.276 35.8837C98.3183 35.8606 98.3645 35.8183 98.4491 35.8183H99.3879C99.4956 35.8183 99.5841 35.8413 99.6264 35.8837C99.6687 35.926 99.7149 35.9722 99.7803 36.0606L101.504 38.7307H101.512ZM23.5347 48.8644C23.6886 48.8644 23.7732 48.9529 23.7732 49.1068V59.6561C23.7732 59.81 23.6848 59.8984 23.5347 59.8984H22.5075C22.3536 59.8984 22.269 59.81 22.269 59.6561V50.2918H16.4634V59.6561C16.4634 59.81 16.3749 59.8984 16.2249 59.8984H15.1976C15.0437 59.8984 14.9591 59.81 14.9591 59.6561V49.1068C14.9591 48.9529 15.0476 48.8644 15.1976 48.8644H23.5347ZM30.279 58.6481C30.6291 58.6481 30.9138 58.5404 31.1293 58.3211C31.3447 58.1018 31.4563 57.8171 31.4563 57.467V54.2045C31.4563 53.8544 31.3486 53.5697 31.1293 53.3504C30.91 53.1311 30.6291 53.0233 30.279 53.0233H28.9478C28.4669 53.0233 28.0745 53.1772 27.7706 53.4812C27.4666 53.789 27.2897 54.1814 27.2897 54.6392V58.6442H30.279V58.6481ZM27.3089 59.8946V62.6531C27.3089 62.807 27.2204 62.8955 27.0704 62.8955H26.197C26.0431 62.8955 25.9585 62.807 25.9585 62.6531V52.0192C25.9585 51.8653 26.047 51.7768 26.197 51.7768H27.0704C27.2243 51.7768 27.3089 51.8653 27.3089 52.0384V52.6732H27.3974C27.4859 52.4963 27.5936 52.3462 27.7667 52.2154C27.8975 52.1077 28.0707 51.9961 28.29 51.9076C28.5093 51.8191 28.7901 51.7537 29.121 51.7537H30.2982C31.1293 51.7537 31.7602 51.973 32.1757 52.3885C32.5912 52.804 32.8105 53.3965 32.8105 54.1814V57.4631C32.8105 58.2518 32.5912 58.8404 32.1757 59.256C31.7602 59.6715 31.1293 59.8908 30.2982 59.8908H27.3089V59.8946ZM40.3166 54.2045C40.3166 53.8544 40.2089 53.5697 39.9896 53.3734C39.7703 53.1541 39.4894 53.0657 39.1393 53.0657H37.1733C36.8232 53.0657 36.5385 53.1734 36.3231 53.3734C36.1038 53.5927 35.9961 53.8544 35.9961 54.2045V57.5747C35.9961 57.9248 36.1038 58.2095 36.3231 58.4057C36.5424 58.625 36.8232 58.7135 37.1733 58.7135H39.1393C39.4894 58.7135 39.7741 58.6058 39.9896 58.4057C40.2089 58.1864 40.3166 57.9248 40.3166 57.5747V54.2045ZM41.6477 57.5747C41.6477 58.3403 41.4285 58.9328 41.0129 59.3483C40.5974 59.7638 39.9665 59.96 39.1355 59.96H37.1695C36.3385 59.96 35.7075 59.7638 35.292 59.3483C34.8765 58.9328 34.6572 58.3403 34.6572 57.5747V54.1814C34.6572 53.4158 34.8765 52.8233 35.292 52.4078C35.7075 51.9923 36.3385 51.7961 37.1695 51.7961H39.1355C39.9665 51.7961 40.5974 51.9923 41.0129 52.4078C41.4285 52.8233 41.6477 53.4158 41.6477 54.1814V57.5747ZM49.0884 55.1009V54.1583C49.0884 53.8313 48.9807 53.5658 48.7614 53.3696C48.5421 53.1734 48.2612 53.0618 47.9111 53.0618H46.0337C45.6836 53.0618 45.3989 53.1695 45.1834 53.3696C44.9641 53.5658 44.8564 53.8274 44.8564 54.1583V55.1009H49.0923H49.0884ZM44.8333 56.3474V57.5285C44.8333 57.8786 44.941 58.1633 45.1603 58.3826C45.3796 58.6019 45.6605 58.7096 46.0106 58.7096H47.8881C48.2382 58.7096 48.5229 58.6019 48.7383 58.3826C48.9576 58.1633 49.0653 57.8786 49.0653 57.5285V57.44C49.0653 57.2861 49.1538 57.1977 49.3039 57.1977H50.1772C50.3311 57.1977 50.4157 57.2861 50.4157 57.44V57.5285C50.4157 58.3172 50.1964 58.9289 49.7809 59.3444C49.3654 59.7599 48.7345 59.9792 47.9034 59.9792H46.026C45.195 59.9792 44.564 59.783 44.1485 59.3675C43.733 58.952 43.5137 58.3595 43.5137 57.5939V54.2006C43.5137 53.435 43.733 52.8425 44.1485 52.427C44.564 52.0115 45.195 51.8153 46.026 51.8153H47.9034C48.7345 51.8153 49.3654 52.0115 49.7809 52.427C50.1964 52.8425 50.4157 53.4119 50.4157 54.1775V56.1473C50.4157 56.3012 50.3272 56.3666 50.1772 56.3666H44.8295V56.3436L44.8333 56.3474ZM55.6365 56.282H53.6705V59.6753C53.6705 59.8292 53.582 59.9177 53.432 59.9177H52.5587C52.4048 59.9177 52.3201 59.8292 52.3201 59.6753V52.0384C52.3201 51.8845 52.4086 51.7961 52.5587 51.7961H53.432C53.5859 51.7961 53.6705 51.8845 53.6705 52.0384V55.0355H55.6365L57.2062 52.0384C57.2485 51.9499 57.2947 51.8845 57.337 51.8615C57.3793 51.8384 57.4678 51.7961 57.5986 51.7961H58.5373C58.7105 51.7961 58.7759 51.8845 58.6912 52.0384L56.7253 55.651L58.9298 59.6791C58.9952 59.833 58.9529 59.9215 58.7759 59.9215H57.8371C57.7294 59.9215 57.6409 59.8984 57.5755 59.8561C57.5332 59.8138 57.4678 59.7676 57.4447 59.6791L55.6326 56.2858L55.6365 56.282ZM62.8155 59.8946C62.6616 59.8946 62.577 59.8061 62.577 59.6522V53.0426H60.134C59.9801 53.0426 59.8954 52.9541 59.8954 52.8002V52.0115C59.8954 51.8576 59.9839 51.7691 60.134 51.7691H66.332C66.4858 51.7691 66.5705 51.8576 66.5705 52.0115V52.8002C66.5705 52.9541 66.482 53.0426 66.332 53.0426H63.8889V59.6522C63.8889 59.8061 63.8004 59.8946 63.6504 59.8946H62.8194H62.8155ZM73.5956 54.2045C73.5956 53.8544 73.4879 53.5697 73.2686 53.3734C73.0493 53.1541 72.7685 53.0657 72.4184 53.0657H70.4524C70.1023 53.0657 69.8176 53.1734 69.6021 53.3734C69.3829 53.5927 69.2751 53.8544 69.2751 54.2045V57.5747C69.2751 57.9248 69.3829 58.2095 69.6021 58.4057C69.8214 58.625 70.1023 58.7135 70.4524 58.7135H72.4184C72.7685 58.7135 73.0532 58.6058 73.2686 58.4057C73.4879 58.1864 73.5956 57.9248 73.5956 57.5747V54.2045ZM74.9268 57.5747C74.9268 58.3403 74.7075 58.9328 74.292 59.3483C73.8765 59.7638 73.2455 59.96 72.4145 59.96H70.4486C69.6175 59.96 68.9866 59.7638 68.5711 59.3483C68.1556 58.9328 67.9363 58.3403 67.9363 57.5747V54.1814C67.9363 53.4158 68.1556 52.8233 68.5711 52.4078C68.9866 51.9923 69.6175 51.7961 70.4486 51.7961H72.4145C73.2455 51.7961 73.8765 51.9923 74.292 52.4078C74.7075 52.8233 74.9268 53.4158 74.9268 54.1814V57.5747ZM81.2133 58.6481C81.5172 58.6481 81.7788 58.5596 81.9558 58.3634C82.1289 58.1864 82.2405 57.9248 82.2405 57.6209V57.467C82.2405 57.1592 82.152 56.8976 81.9558 56.7244C81.7827 56.5475 81.5211 56.4397 81.2133 56.4397H78.2239V58.6481H81.2133ZM80.7324 55.1701C81.0363 55.1701 81.2979 55.0816 81.4749 54.8854C81.648 54.6892 81.7596 54.4276 81.7596 54.0967C81.7596 53.7659 81.6711 53.5043 81.4749 53.308C81.3018 53.1118 81.0401 53.0233 80.7324 53.0233H78.2239V55.147H80.7324V55.1701ZM77.1313 59.8984C76.9774 59.8984 76.8928 59.81 76.8928 59.6561V52.0192C76.8928 51.8653 76.9813 51.7768 77.1313 51.7768H80.7554C82.3251 51.7768 83.1138 52.5655 83.1138 54.1198C83.1138 54.4468 83.0484 54.7123 82.9407 54.9085C82.833 55.1047 82.7214 55.2586 82.5906 55.3894C82.4367 55.5202 82.2867 55.6087 82.0905 55.651V55.7395C82.3521 55.7818 82.6137 55.8934 82.833 56.0473C83.0292 56.1781 83.2023 56.3551 83.3562 56.5744C83.5101 56.7937 83.5947 57.1015 83.5947 57.4708V57.6247C83.5947 59.1559 82.8099 59.9023 81.2364 59.9023H77.1351L77.1313 59.8984ZM61.5575 85.0289H56.3213V73.9026H15.6632C7.47997 73.9026 0.820312 67.2545 0.820312 59.0751V31.5247H6.05647V59.0713C6.05647 64.369 10.3577 68.6664 15.6593 68.6664H58.5027C60.184 68.6664 61.5575 70.0399 61.5575 71.7173V85.0212V85.0289Z" fill="white"/>
</svg>
